# File produced by Open Asset Import Library (http://www.assimp.sf.net)
# (assimp v5.2.0)

mtllib nrs_spindle.mtl

# 564 vertex positions
v  -0.00505548716 0.0330833718 -0.00626718905
v  -0.0127689196 0.0330833718 -0.0154597703
v  -0.00391316414 0.0330833718 -0.00706708385
v  -0.00991314556 0.0330833718 -0.0174593907
v  -0.00264930702 0.0330833718 -0.00765639497
v  -0.00675356295 0.0330833718 -0.0189327002
v  -0.00130236102 0.0330833718 -0.00801730063
v  -0.00338613894 0.0330833718 -0.0198349897
v  8.68061979e-05 0.0330833718 -0.00813883543
v  8.68061979e-05 0.0330833718 -0.0201388504
v  0.001475989 0.0330833718 -0.00801730063
v  0.00355976797 0.0330833718 -0.0198349897
v  0.00282293512 0.0330833718 -0.00765639497
v  0.00692719221 0.0330833718 -0.0189327002
v  0.004086792 0.0330833718 -0.00706708385
v  0.0100867702 0.0330833718 -0.0174593907
v  0.00522905495 0.0330833718 -0.00626718905
v  0.0129425498 0.0330833718 -0.0154597703
v  0.00621515512 0.0330833718 -0.00528114988
v  0.0154076796 0.0330833718 -0.01299458
v  0.00701498892 0.0330833718 -0.00413882686
v  0.0174072906 0.0330833718 -0.01013886
v  0.00760430004 0.0330833718 -0.00287503004
v  0.0188806597 0.0330833718 -0.00697928621
v  0.00796526577 0.0330833718 -0.00152802397
v  0.0197829604 0.0330833718 -0.00361180305
v  0.00808679964 0.0330833718 -0.000138888994
v  0.0200867597 0.0330833718 -0.000138888994
v  0.00796526577 0.0330833718 0.00125026703
v  0.0197829604 0.0330833718 0.00333404494
v  0.00760430004 0.0330833718 0.00259727193
v  0.0188806597 0.0330833718 0.00670146896
v  0.00701498892 0.0330833718 0.00386106898
v  0.0174072906 0.0330833718 0.00986111071
v  0.00621515512 0.0330833718 0.00500339223
v  0.0154076796 0.0330833718 0.0127168205
v  0.00522905495 0.0330833718 0.00598943187
v  0.0129425498 0.0330833718 0.0151819503
v  0.004086792 0.0330833718 0.00678926706
v  0.0100867702 0.0330833718 0.0171815697
v  0.00282293512 0.0330833718 0.00737863686
v  0.00692719221 0.0330833718 0.0186549406
v  0.001475989 0.0330833718 0.00773954298
v  0.00355976797 0.0330833718 0.0195572302
v  8.68061979e-05 0.0330833718 0.00786107685
v  8.68061979e-05 0.0330833718 0.0198611002
v  -0.00130236102 0.0330833718 0.00773954298
v  -0.00338613894 0.0330833718 0.0195572302
v  -0.00264930702 0.0330833718 0.00737863686
v  -0.00675356295 0.0330833718 0.0186549406
v  -0.00391316414 0.0330833718 0.00678926706
v  -0.00991314556 0.0330833718 0.0171815697
v  -0.00505548716 0.0330833718 0.00598943187
v  -0.0127689196 0.0330833718 0.0151819503
v  -0.00604152586 0.0330833718 0.00500339223
v  -0.0152340503 0.0330833718 0.0127168205
v  -0.00684136106 0.0330833718 0.00386106898
v  -0.0172336604 0.0330833718 0.00986111071
v  -0.00743073178 0.0330833718 0.00259727193
v  -0.0187070295 0.0330833718 0.00670146896
v  -0.00779163791 0.0330833718 0.00125026703
v  -0.0196093302 0.0330833718 0.00333404494
v  -0.00791317225 0.0330833718 -0.000138888994
v  -0.0199131891 0.0330833718 -0.000138888994
v  -0.00779163791 0.0330833718 -0.00152802397
v  -0.0196093302 0.0330833718 -0.00361180305
v  -0.00743073178 0.0330833718 -0.00287503004
v  -0.0187070295 0.0330833718 -0.00697928621
v  -0.00684136106 0.0330833718 -0.00413882686
v  -0.0172336604 0.0330833718 -0.01013886
v  -0.00604152586 0.0330833718 -0.00528114988
v  -0.0152340503 0.0330833718 -0.01299458
v  0.0117996903 -0.155916601 -0.0383855104
v  0.0300867502 -0.155916601 -0.0401388407
v  0.00516748382 -0.155916601 -0.0398148783
v  8.68061979e-05 -0.155916601 -0.0401388407
v  0.0332271382 -0.155916601 -0.02253782
v  0.0365359113 -0.155916601 -0.0166149102
v  0.0400867984 -0.155916601 -0.0301388502
v  0.0180949494 -0.155916601 -0.0358558781
v  0.0238721296 -0.155916601 -0.03229874
v  0.0289650504 -0.155916601 -0.0278164092
v  0.0387961194 -0.155916601 -0.01021796
v  0.0399426818 -0.155916601 -0.0035310979
v  0.0400867984 -0.155916601 -0.000138888994
v  -0.0376282893 -0.155916601 -0.0134644499
v  -0.03991317 -0.155916601 -0.0301388502
v  -0.0393378101 -0.155916601 -0.00689888
v  -0.03991317 -0.155916601 -0.000138888994
v  -0.0208854601 -0.155916601 -0.034200009
v  -0.0148274302 -0.155916601 -0.037254449
v  -0.0299131796 -0.155916601 -0.0401388407
v  -0.0083403578 -0.155916601 -0.0392410718
v  -0.00161081494 -0.155916601 -0.0401028283
v  -0.0348337218 -0.155916601 -0.0196466409
v  -0.0310345795 -0.155916601 -0.0252676606
v  -0.0263401791 -0.155916601 -0.03016573
v  8.68061979e-05 -0.155916601 0.0398610793
v  -0.00161081494 -0.155916601 0.0398250185
v  -0.0299131796 -0.155916601 0.0398610793
v  -0.0083403578 -0.155916601 0.0389633104
v  -0.0148274302 -0.155916601 0.0369766317
v  -0.0348337218 -0.155916601 0.0193688795
v  -0.0376282893 -0.155916601 0.0131866904
v  -0.03991317 -0.155916601 0.0298610907
v  -0.0393378101 -0.155916601 0.00662112189
v  -0.0208854601 -0.155916601 0.0339222513
v  -0.0263401791 -0.155916601 0.0298879705
v  -0.0310345795 -0.155916601 0.0249898992
v  0.0300867502 -0.180916607 -0.0401388407
v  -0.0299131796 -0.180916607 -0.0401388407
v  -0.03991317 -0.180916607 -0.0301388502
v  -0.03991317 -0.180916607 0.0298610907
v  -0.0299131796 -0.180916607 0.0398610793
v  0.0300867502 -0.180916607 0.0398610793
v  0.0300867502 -0.155916601 0.0398610793
v  0.0400867984 -0.155916601 0.0298610907
v  0.0400867984 -0.180916607 0.0298610907
v  0.0400867984 -0.180916607 -0.0301388502
v  0.0399426818 -0.155916601 0.00325334002
v  0.0387961194 -0.155916601 0.009940207
v  0.0365359113 -0.155916601 0.0163371507
v  0.0332271382 -0.155916601 0.0222600605
v  0.0289650504 -0.155916601 0.0275386497
v  0.0238721296 -0.155916601 0.0320209786
v  0.0180949494 -0.155916601 0.0355781317
v  0.0117996903 -0.155916601 0.0381077491
v  0.00516748382 -0.155916601 0.0395371318
v  0.00516748382 -0.0809165835 0.0395371318
v  0.0117996903 -0.0809165835 0.0381077491
v  0.0180949494 -0.0809165835 0.0355781317
v  0.0238721296 -0.0809165835 0.0320209786
v  0.0289650504 -0.0809165835 0.0275386497
v  0.0332271382 -0.0809165835 0.0222600605
v  0.0365359113 -0.0809165835 0.0163371507
v  0.0387961194 -0.0809165835 0.009940207
v  0.0399426818 -0.0809165835 0.00325334002
v  0.0400867984 -0.0809165835 -0.000138888994
v  0.0399426818 -0.0809165835 -0.0035310979
v  0.0387961194 -0.0809165835 -0.01021796
v  0.0365359113 -0.0809165835 -0.0166149102
v  0.0332271382 -0.0809165835 -0.02253782
v  0.0289650504 -0.0809165835 -0.0278164092
v  0.0238721296 -0.0809165835 -0.03229874
v  0.0180949494 -0.0809165835 -0.0358558781
v  0.0117996903 -0.0809165835 -0.0383855104
v  0.00516748382 -0.0809165835 -0.0398148783
v  -0.00161081494 -0.0809165835 -0.0401028283
v  -0.0083403578 -0.0809165835 -0.0392410718
v  -0.0148274302 -0.0809165835 -0.037254449
v  -0.0208854601 -0.0809165835 -0.034200009
v  -0.0263401791 -0.0809165835 -0.03016573
v  -0.0310345795 -0.0809165835 -0.0252676606
v  -0.0348337218 -0.0809165835 -0.0196466409
v  -0.0376282893 -0.0809165835 -0.0134644499
v  -0.0393378101 -0.0809165835 -0.00689888
v  -0.03991317 -0.0809165835 -0.000138888994
v  -0.0393378101 -0.0809165835 0.00662112189
v  -0.0376282893 -0.0809165835 0.0131866904
v  -0.0348337218 -0.0809165835 0.0193688795
v  -0.0310345795 -0.0809165835 0.0249898992
v  -0.0263401791 -0.0809165835 0.0298879705
v  -0.0208854601 -0.0809165835 0.0339222513
v  -0.0148274302 -0.0809165835 0.0369766317
v  -0.0083403578 -0.0809165835 0.0389633104
v  -0.00161081494 -0.0809165835 0.0398250185
v  0.0250867605 -0.0809165835 -0.000138888994
v  0.0247069504 -0.0809165835 0.0042023058
v  0.0247069504 -0.0809165835 -0.00448006298
v  0.0235791206 -0.0809165835 -0.008689343
v  0.0217373893 -0.0809165835 -0.0126388604
v  0.0192378704 -0.0809165835 -0.0162085202
v  0.0161564909 -0.0809165835 -0.0192899704
v  0.0125867696 -0.0809165835 -0.0217894893
v  0.00863730907 -0.0809165835 -0.0236311499
v  0.00442796899 -0.0809165835 -0.0247590505
v  8.68061979e-05 -0.0809165835 -0.0251388494
v  -0.00425434113 -0.0809165835 -0.0247590505
v  -0.00846367981 -0.0809165835 -0.0236311499
v  -0.0124131404 -0.0809165835 -0.0217894893
v  -0.0159828607 -0.0809165835 -0.0192899704
v  -0.0190642998 -0.0809165835 -0.0162085202
v  -0.0215638205 -0.0809165835 -0.0126388604
v  -0.0234054904 -0.0809165835 -0.008689343
v  -0.0245333891 -0.0809165835 -0.00448006298
v  -0.0249131899 -0.0809165835 -0.000138888994
v  -0.0245333891 -0.0809165835 0.0042023058
v  -0.0234054904 -0.0809165835 0.00841158628
v  -0.0215638205 -0.0809165835 0.0123610999
v  -0.0190642998 -0.0809165835 0.01593077
v  -0.0159828607 -0.0809165835 0.0190122109
v  -0.0124131404 -0.0809165835 0.0215117298
v  -0.00846367981 -0.0809165835 0.0233533904
v  -0.00425434113 -0.0809165835 0.0244812891
v  8.68061979e-05 -0.0809165835 0.0248610899
v  0.00442796899 -0.0809165835 0.0244812891
v  0.00863730907 -0.0809165835 0.0233533904
v  0.0125867696 -0.0809165835 0.0215117298
v  0.0161564909 -0.0809165835 0.0190122109
v  0.0192378704 -0.0809165835 0.01593077
v  0.0217373893 -0.0809165835 0.0123610999
v  0.0235791206 -0.0809165835 0.00841158628
v  -0.0245333891 -0.0109165898 -0.00448006298
v  -0.0234054904 -0.0109165898 -0.008689343
v  -0.0215638205 -0.0109165898 -0.0126388604
v  -0.0190642998 -0.0109165898 -0.0162085202
v  -0.0159828607 -0.0109165898 -0.0192899704
v  -0.0124131404 -0.0109165898 -0.0217894893
v  -0.00846367981 -0.0109165898 -0.0236311499
v  -0.00425434113 -0.0109165898 -0.0247590505
v  8.68061979e-05 -0.0109165898 -0.0251388494
v  0.00442796899 -0.0109165898 -0.0247590505
v  0.00863730907 -0.0109165898 -0.0236311499
v  0.0125867696 -0.0109165898 -0.0217894893
v  0.0161564909 -0.0109165898 -0.0192899704
v  0.0192378704 -0.0109165898 -0.0162085202
v  0.0217373893 -0.0109165898 -0.0126388604
v  0.0235791206 -0.0109165898 -0.008689343
v  0.0247069504 -0.0109165898 -0.00448006298
v  0.0250867605 -0.0109165898 -0.000138888994
v  0.0247069504 -0.0109165898 0.0042023058
v  0.0235791206 -0.0109165898 0.00841158628
v  0.0217373893 -0.0109165898 0.0123610999
v  0.0192378704 -0.0109165898 0.01593077
v  0.0161564909 -0.0109165898 0.0190122109
v  0.0125867696 -0.0109165898 0.0215117298
v  0.00863730907 -0.0109165898 0.0233533904
v  0.00442796899 -0.0109165898 0.0244812891
v  8.68061979e-05 -0.0109165898 0.0248610899
v  -0.00425434113 -0.0109165898 0.0244812891
v  -0.00846367981 -0.0109165898 0.0233533904
v  -0.0124131404 -0.0109165898 0.0215117298
v  -0.0159828607 -0.0109165898 0.0190122109
v  -0.0190642998 -0.0109165898 0.01593077
v  -0.0215638205 -0.0109165898 0.0123610999
v  -0.0234054904 -0.0109165898 0.00841158628
v  -0.0245333891 -0.0109165898 0.0042023058
v  -0.0249131899 -0.0109165898 -0.000138888994
v  -0.00217056205 -0.0109165898 -0.0129413595
v  -0.00435942411 -0.0109165898 -0.0123548498
v  -0.00641316082 -0.0109165898 -0.0113971801
v  -0.00826942921 -0.0109165898 -0.0100974403
v  -0.00987172127 -0.0109165898 -0.00849509239
v  -0.0111715104 -0.0109165898 -0.00663888408
v  -0.0121291801 -0.0109165898 -0.00458514597
v  -0.0127156898 -0.0109165898 -0.00239628507
v  -0.01291316 -0.0109165898 -0.000138888994
v  -0.0127156898 -0.0109165898 0.00211852696
v  -0.0121291801 -0.0109165898 0.00430732919
v  -0.0111715104 -0.0109165898 0.00636106683
v  -0.00987172127 -0.0109165898 0.00821733382
v  -0.00826942921 -0.0109165898 0.00981968641
v  -0.00641316082 -0.0109165898 0.0111194197
v  -0.00435942411 -0.0109165898 0.0120770903
v  -0.00217056205 -0.0109165898 0.0126636
v  8.68061979e-05 -0.0109165898 0.0128610702
v  0.00234419107 -0.0109165898 0.0126636
v  0.00453305198 -0.0109165898 0.0120770903
v  0.00658679008 -0.0109165898 0.0111194197
v  0.008442997 -0.0109165898 0.00981968641
v  0.0100453403 -0.0109165898 0.00821733382
v  0.0113450801 -0.0109165898 0.00636106683
v  0.0123028103 -0.0109165898 0.00430732919
v  0.0128892604 -0.0109165898 0.00211852696
v  0.0130867902 -0.0109165898 -0.000138888994
v  0.0128892604 -0.0109165898 -0.00239628507
v  0.0123028103 -0.0109165898 -0.00458514597
v  0.0113450801 -0.0109165898 -0.00663888408
v  0.0100453403 -0.0109165898 -0.00849509239
v  0.008442997 -0.0109165898 -0.0100974403
v  0.00658679008 -0.0109165898 -0.0113971801
v  0.00453305198 -0.0109165898 -0.0123548498
v  0.00234419107 -0.0109165898 -0.0129413595
v  8.68061979e-05 -0.0109165898 -0.0131388903
v  -0.0127156898 -0.00491660787 -0.00239628507
v  -0.0121291801 -0.00491660787 -0.00458514597
v  -0.0111715104 -0.00491660787 -0.00663888408
v  -0.00987172127 -0.00491660787 -0.00849509239
v  -0.00826942921 -0.00491660787 -0.0100974403
v  -0.00641316082 -0.00491660787 -0.0113971801
v  -0.00435942411 -0.00491660787 -0.0123548498
v  -0.00217056205 -0.00491660787 -0.0129413595
v  8.68061979e-05 -0.00491660787 -0.0131388903
v  0.00234419107 -0.00491660787 -0.0129413595
v  0.00453305198 -0.00491660787 -0.0123548498
v  0.00658679008 -0.00491660787 -0.0113971801
v  0.008442997 -0.00491660787 -0.0100974403
v  0.0100453403 -0.00491660787 -0.00849509239
v  0.0113450801 -0.00491660787 -0.00663888408
v  0.0123028103 -0.00491660787 -0.00458514597
v  0.0128892604 -0.00491660787 -0.00239628507
v  0.0130867902 -0.00491660787 -0.000138888994
v  0.0128892604 -0.00491660787 0.00211852696
v  0.0123028103 -0.00491660787 0.00430732919
v  0.0113450801 -0.00491660787 0.00636106683
v  0.0100453403 -0.00491660787 0.00821733382
v  0.008442997 -0.00491660787 0.00981968641
v  0.00658679008 -0.00491660787 0.0111194197
v  0.00453305198 -0.00491660787 0.0120770903
v  0.00234419107 -0.00491660787 0.0126636
v  8.68061979e-05 -0.00491660787 0.0128610702
v  -0.00217056205 -0.00491660787 0.0126636
v  -0.00435942411 -0.00491660787 0.0120770903
v  -0.00641316082 -0.00491660787 0.0111194197
v  -0.00826942921 -0.00491660787 0.00981968641
v  -0.00987172127 -0.00491660787 0.00821733382
v  -0.0111715104 -0.00491660787 0.00636106683
v  -0.0121291801 -0.00491660787 0.00430732919
v  -0.0127156898 -0.00491660787 0.00211852696
v  -0.01291316 -0.00491660787 -0.000138888994
v  0.00796526577 -0.00491660787 -0.00152802397
v  0.00760430004 -0.00491660787 -0.00287503004
v  0.00701498892 -0.00491660787 -0.00413882686
v  0.00621515512 -0.00491660787 -0.00528114988
v  0.00522905495 -0.00491660787 -0.00626718905
v  0.004086792 -0.00491660787 -0.00706708385
v  0.00282293512 -0.00491660787 -0.00765639497
v  0.001475989 -0.00491660787 -0.00801730063
v  8.68061979e-05 -0.00491660787 -0.00813883543
v  -0.00130236102 -0.00491660787 -0.00801730063
v  -0.00264930702 -0.00491660787 -0.00765639497
v  -0.00391316414 -0.00491660787 -0.00706708385
v  -0.00505548716 -0.00491660787 -0.00626718905
v  -0.00604152586 -0.00491660787 -0.00528114988
v  -0.00684136106 -0.00491660787 -0.00413882686
v  -0.00743073178 -0.00491660787 -0.00287503004
v  -0.00779163791 -0.00491660787 -0.00152802397
v  -0.00791317225 -0.00491660787 -0.000138888994
v  -0.00779163791 -0.00491660787 0.00125026703
v  -0.00743073178 -0.00491660787 0.00259727193
v  -0.00684136106 -0.00491660787 0.00386106898
v  -0.00604152586 -0.00491660787 0.00500339223
v  -0.00505548716 -0.00491660787 0.00598943187
v  -0.00391316414 -0.00491660787 0.00678926706
v  -0.00264930702 -0.00491660787 0.00737863686
v  -0.00130236102 -0.00491660787 0.00773954298
v  8.68061979e-05 -0.00491660787 0.00786107685
v  0.001475989 -0.00491660787 0.00773954298
v  0.00282293512 -0.00491660787 0.00737863686
v  0.004086792 -0.00491660787 0.00678926706
v  0.00522905495 -0.00491660787 0.00598943187
v  0.00621515512 -0.00491660787 0.00500339223
v  0.00701498892 -0.00491660787 0.00386106898
v  0.00760430004 -0.00491660787 0.00259727193
v  0.00796526577 -0.00491660787 0.00125026703
v  0.00808679964 -0.00491660787 -0.000138888994
v  -0.0497913882 0.0630833507 0.00334888604
v  -0.0199131891 0.0630833507 -0.000138888994
v  -0.0196093302 0.0630833507 0.00333404494
v  -0.0127689196 0.0630833507 0.0151819503
v  -0.035880141 0.0630833507 0.0345939882
v  -0.0152340503 0.0630833507 0.0127168205
v  -0.0403640196 0.0630833507 0.02925032
v  -0.0172336604 0.0630833507 0.00986111071
v  -0.0440605208 0.0630833507 0.0233346801
v  -0.0187070295 0.0630833507 0.00670146896
v  -0.0468978211 0.0630833507 0.0169621091
v  -0.0488205515 0.0630833507 0.0102566397
v  -0.00338613894 0.0630833507 -0.0198349897
v  -0.00513958884 0.0630833507 -0.0498649403
v  8.68061979e-05 0.0630833507 -0.0201388504
v  0.00183176901 0.0630833507 -0.050108429
v  0.00355976797 0.0630833507 -0.0198349897
v  0.00876921415 0.0630833507 -0.0493792184
v  0.00692719221 0.0630833507 -0.0189327002
v  0.0155376103 0.0630833507 -0.0476916991
v  0.0100867702 0.0630833507 -0.0174593907
v  8.68061979e-05 0.0630833507 0.0198611002
v  -0.00513958884 0.0630833507 0.0495871902
v  -0.00338613894 0.0630833507 0.0195572302
v  -0.0120092602 0.0630833507 0.0483758412
v  -0.00675356295 0.0630833507 0.0186549406
v  -0.0186434891 0.0630833507 0.0462202989
v  -0.00991314556 0.0630833507 0.0171815697
v  -0.0249131899 0.0630833507 0.0431623384
v  -0.0306962691 0.0630833507 0.0392616317
v  -0.0172336604 0.0630833507 -0.01013886
v  -0.0403640196 0.0630833507 -0.0295281392
v  -0.0152340503 0.0630833507 -0.01299458
v  -0.035880141 0.0630833507 -0.0348717496
v  -0.0127689196 0.0630833507 -0.0154597703
v  -0.0306962691 0.0630833507 -0.0395393893
v  -0.00991314556 0.0630833507 -0.0174593907
v  -0.0249131899 0.0630833507 -0.0434401594
v  -0.00675356295 0.0630833507 -0.0189327002
v  -0.0186434891 0.0630833507 -0.0464980602
v  -0.0120092602 0.0630833507 -0.0486536585
v  -0.0499131605 0.0630833507 -0.000138888994
v  -0.0497913882 0.0630833507 -0.00362670398
v  -0.0196093302 0.0630833507 -0.00361180305
v  -0.0488205515 0.0630833507 -0.0105344597
v  -0.0187070295 0.0630833507 -0.00697928621
v  -0.0468978211 0.0630833507 -0.0172398593
v  -0.0440605208 0.0630833507 -0.0236124303
v  0.0129425498 0.0630833507 0.0151819503
v  0.0280464198 0.0630833507 0.0413129888
v  0.0100867702 0.0630833507 0.0171815697
v  0.0220053103 0.0630833507 0.0448007509
v  0.00692719221 0.0630833507 0.0186549406
v  0.0155376103 0.0630833507 0.0474138781
v  0.00355976797 0.0630833507 0.0195572302
v  0.00876921415 0.0630833507 0.0491014682
v  0.00183176901 0.0630833507 0.0498306118
v  0.0197829604 0.0630833507 0.00333404494
v  0.04814988 0.0630833507 0.0136429602
v  0.0188806597 0.0630833507 0.00670146896
v  0.0457640812 0.0630833507 0.0201979205
v  0.0174072906 0.0630833507 0.00986111071
v  0.042489171 0.0630833507 0.0263570491
v  0.0154076796 0.0630833507 0.0127168205
v  0.0383890197 0.0630833507 0.0320004784
v  0.0335432813 0.0630833507 0.0370182917
v  0.0220053103 0.0630833507 -0.0450785682
v  0.0280464198 0.0630833507 -0.0415907502
v  0.0129425498 0.0630833507 -0.0154597703
v  0.0335432813 0.0630833507 -0.0372961089
v  0.0154076796 0.0630833507 -0.01299458
v  0.0383890197 0.0630833507 -0.0322782286
v  0.0174072906 0.0630833507 -0.01013886
v  0.042489171 0.0630833507 -0.0266348105
v  0.0188806597 0.0630833507 -0.00697928621
v  0.0457640812 0.0630833507 -0.02047568
v  0.04814988 0.0630833507 -0.0139207197
v  0.0197829604 0.0630833507 -0.00361180305
v  0.0496001802 0.0630833507 -0.00709748222
v  0.0200867597 0.0630833507 -0.000138888994
v  0.0500867888 0.0630833507 -0.000138888994
v  0.0496001802 0.0630833507 0.00681972504
v  -0.0575888716 0.0890833735 -0.0166770797
v  -0.0593292713 0.0890833735 -0.00848925114
v  8.68061979e-05 0.0890833735 -0.000138888994
v  -0.059913151 0.0890833735 -0.000138888994
v  -0.0593292713 0.0890833735 0.00821149256
v  -0.0458758399 0.0890833735 -0.0387061201
v  -0.0507960282 0.0890833735 -0.0319340192
v  -0.0547258817 0.0890833735 -0.0245430395
v  -0.0262154303 0.0890833735 -0.0540664718
v  -0.0334647186 0.0890833735 -0.0498811007
v  -0.0400609896 0.0890833735 -0.0447275601
v  -0.00200712611 0.0890833735 -0.0601023398
v  -0.0103320396 0.0890833735 -0.0592273399
v  -0.0184541903 0.0890833735 -0.0572022684
v  0.0225631502 0.0890833735 -0.0557699203
v  0.01460212 0.0890833735 -0.0583565794
v  0.00635850383 0.0890833735 -0.0598101616
v  0.0432471596 0.0890833735 -0.0418183804
v  0.0370264612 0.0890833735 -0.047419481
v  0.0300867502 0.0890833735 -0.0521003604
v  0.0564683601 0.0890833735 -0.0206601005
v  0.0530636311 0.0890833735 -0.0283071306
v  0.0486277901 0.0890833735 -0.0354059897
v  0.0599406287 0.0890833735 0.0040464988
v  0.0599406287 0.0890833735 -0.00432425691
v  0.0587756597 0.0890833735 -0.0126135899
v  0.0530636311 0.0890833735 0.0280293804
v  0.0564683601 0.0890833735 0.0203822795
v  0.0587756597 0.0890833735 0.0123357698
v  0.0370264612 0.0890833735 0.0471417308
v  0.0432471596 0.0890833735 0.0415405594
v  0.0486277901 0.0890833735 0.0351281688
v  0.01460212 0.0890833735 0.0580788217
v  0.0225631502 0.0890833735 0.0554920994
v  0.0300867502 0.0890833735 0.051822599
v  -0.0103320396 0.0890833735 0.0589495301
v  -0.00200712611 0.0890833735 0.0598245189
v  0.00635850383 0.0890833735 0.0595324002
v  -0.0334647186 0.0890833735 0.0496033393
v  -0.0262154303 0.0890833735 0.0537887216
v  -0.0184541903 0.0890833735 0.0569244586
v  -0.0507960282 0.0890833735 0.0316562615
v  -0.0458758399 0.0890833735 0.0384283587
v  -0.0400609896 0.0890833735 0.0444497392
v  -0.0575888716 0.0890833735 0.0163993202
v  -0.0547258817 0.0890833735 0.02426528
v  -0.0597670004 0.0730834007 0.0040464988
v  -0.0593292713 0.0730834007 0.00821149256
v  -0.0586020313 0.0730834007 0.0123357698
v  -0.0575888716 0.0730834007 0.0163993202
v  -0.0562947318 0.0730834007 0.0203822795
v  -0.0547258817 0.0730834007 0.02426528
v  -0.052889999 0.0730834007 0.0280293804
v  -0.0507960282 0.0730834007 0.0316562615
v  -0.0484541617 0.0730834007 0.0351281688
v  -0.0458758399 0.0730834007 0.0384283587
v  -0.0430735312 0.0730834007 0.0415405594
v  -0.0400609896 0.0730834007 0.0444497392
v  -0.0368528292 0.0730834007 0.0471417308
v  -0.0334647186 0.0730834007 0.0496033393
v  -0.0299131796 0.0730834007 0.051822599
v  -0.0262154303 0.0730834007 0.0537887216
v  -0.0223895907 0.0730834007 0.0554920994
v  -0.0184541903 0.0730834007 0.0569244586
v  -0.0144284898 0.0730834007 0.0580788217
v  -0.0103320396 0.0730834007 0.0589495301
v  -0.00618487503 0.0730834007 0.0595324002
v  -0.00200712611 0.0730834007 0.0598245189
v  0.00218075491 0.0730834007 0.0598245189
v  0.00635850383 0.0730834007 0.0595324002
v  0.0105056698 0.0730834007 0.0589495301
v  0.01460212 0.0730834007 0.0580788217
v  0.0186278205 0.0730834007 0.0569244586
v  0.0225631502 0.0730834007 0.0554920994
v  0.0263890605 0.0730834007 0.0537887216
v  0.0300867502 0.0730834007 0.051822599
v  0.0336383507 0.0730834007 0.0496033393
v  0.0370264612 0.0730834007 0.0471417308
v  0.0402346216 0.0730834007 0.0444497392
v  0.0432471596 0.0730834007 0.0415405594
v  0.0460494682 0.0730834007 0.0384283587
v  0.0486277901 0.0730834007 0.0351281688
v  0.0509696603 0.0730834007 0.0316562615
v  0.0530636311 0.0730834007 0.0280293804
v  0.05489951 0.0730834007 0.02426528
v  0.0564683601 0.0730834007 0.0203822795
v  0.0577624999 0.0730834007 0.0163993202
v  0.0587756597 0.0730834007 0.0123357698
v  0.0595028885 0.0730834007 0.00821149256
v  0.0599406287 0.0730834007 0.0040464988
v  0.0600867793 0.0730834007 -0.000138888994
v  0.0599406287 0.0730834007 -0.00432425691
v  0.0595028885 0.0730834007 -0.00848925114
v  0.0587756597 0.0730834007 -0.0126135899
v  0.0577624999 0.0730834007 -0.0166770797
v  0.0564683601 0.0730834007 -0.0206601005
v  0.05489951 0.0730834007 -0.0245430395
v  0.0530636311 0.0730834007 -0.0283071306
v  0.0509696603 0.0730834007 -0.0319340192
v  0.0486277901 0.0730834007 -0.0354059897
v  0.0460494682 0.0730834007 -0.0387061201
v  0.0432471596 0.0730834007 -0.0418183804
v  0.0402346216 0.0730834007 -0.0447275601
v  0.0370264612 0.0730834007 -0.047419481
v  0.0336383507 0.0730834007 -0.0498811007
v  0.0300867502 0.0730834007 -0.0521003604
v  0.0263890605 0.0730834007 -0.0540664718
v  0.0225631502 0.0730834007 -0.0557699203
v  0.0186278205 0.0730834007 -0.0572022684
v  0.01460212 0.0730834007 -0.0583565794
v  0.0105056698 0.0730834007 -0.0592273399
v  0.00635850383 0.0730834007 -0.0598101616
v  0.00218075491 0.0730834007 -0.0601023398
v  -0.00200712611 0.0730834007 -0.0601023398
v  -0.00618487503 0.0730834007 -0.0598101616
v  -0.0103320396 0.0730834007 -0.0592273399
v  -0.0144284898 0.0730834007 -0.0583565794
v  -0.0184541903 0.0730834007 -0.0572022684
v  -0.0223895907 0.0730834007 -0.0557699203
v  -0.0262154303 0.0730834007 -0.0540664718
v  -0.0299131796 0.0730834007 -0.0521003604
v  -0.0334647186 0.0730834007 -0.0498811007
v  -0.0368528292 0.0730834007 -0.047419481
v  -0.0400609896 0.0730834007 -0.0447275601
v  -0.0430735312 0.0730834007 -0.0418183804
v  -0.0458758399 0.0730834007 -0.0387061201
v  -0.0484541617 0.0730834007 -0.0354059897
v  -0.0507960282 0.0730834007 -0.0319340192
v  -0.052889999 0.0730834007 -0.0283071306
v  -0.0547258817 0.0730834007 -0.0245430395
v  -0.0562947318 0.0730834007 -0.0206601005
v  -0.0575888716 0.0730834007 -0.0166770797
v  -0.0586020313 0.0730834007 -0.0126135899
v  -0.0593292713 0.0730834007 -0.00848925114
v  -0.0597670004 0.0730834007 -0.00432425691
v  -0.059913151 0.0730834007 -0.000138888994

# 0 UV coordinates

# 443 vertex normals
vn 0 -1 0
vn 0 1 0
vn 0 0 -1
vn -0.707106829 0 -0.707106829
vn -1 0 0
vn -0.707106829 0 0.707106829
vn 0 0 1
vn 0.707106829 0 0.707106829
vn 1 0 0
vn 0.707106829 0 -0.707106829
vn 0.210679293 0 0.977555275
vn 0.372856796 0 0.92788887
vn 0.524307072 0 0.8515293
vn 0.660674512 0 0.750672579
vn 0.778035879 0 0.628219903
vn 0.873014271 0 0.48769471
vn 0.942877412 0 0.333139807
vn 0.985615909 0 0.169001207
vn 0.999099016 0 0.0424393415
vn 0.999099016 0 -0.0424393415
vn 0.985615909 0 -0.1690014
vn 0.942877591 0 -0.33313939
vn 0.873014092 0 -0.487694889
vn 0.778035879 0 -0.628219903
vn 0.660674512 0 -0.750672579
vn 0.524306774 0 -0.851529479
vn 0.372856796 0 -0.92788887
vn 0.210679293 0 -0.977555275
vn 0.0636376068 0 -0.997973084
vn 0.0424413607 0.00144070305 -0.999097884
vn -0.0212236606 0 -0.999774694
vn -0.127017796 0 -0.991900504
vn -0.292822301 0 -0.956166923
vn -0.450203687 0 -0.892925918
vn -0.594633222 0 -0.803997099
vn -0.721956074 0 -0.691938818
vn -0.828509629 0 -0.559974909
vn -0.911228776 0 -0.41190061
vn -0.967732906 0 -0.251978308
vn -0.996397495 0 -0.0848058984
vn -0.996397495 0 0.0848058984
vn -0.967732906 0 0.251978308
vn -0.911228716 0 0.411900789
vn -0.828509629 0 0.559974909
vn -0.721956074 0 0.691938877
vn -0.594633102 0 0.803997219
vn -0.450204104 0 0.89292568
vn -0.292822301 0 0.956166923
vn -0.127017796 0 0.991900504
vn -0.0212258603 0 0.999774694
vn 0.0424407683 0.00144076301 0.999097884
vn 0.0636376068 0 0.997973084
vn -0.99619472 0 -0.0871562287
vn -0.965925992 0 -0.258818507
vn -0.906307518 0 -0.422618985
vn -0.819152176 0 -0.573576212
vn -0.573575795 0 -0.819152474
vn -0.422619402 0 -0.90630728
vn -0.258818597 0 -0.965925992
vn -0.0871562287 0 -0.99619472
vn 0.0871562287 0 -0.99619472
vn 0.258818507 0 -0.965925992
vn 0.4226197 0 -0.90630722
vn 0.573575616 0 -0.819152713
vn 0.819152713 0 -0.573575616
vn 0.90630722 0 -0.4226197
vn 0.965925992 0 -0.258818507
vn 0.99619472 0 -0.0871562287
vn 0.99619472 0 0.0871562287
vn 0.965925992 0 0.258818597
vn 0.90630728 0 0.422619402
vn 0.819152474 0 0.573575795
vn 0.573576212 0 0.819152176
vn 0.422618985 0 0.906307518
vn 0.258818507 0 0.965925992
vn 0.0871562287 0 0.99619472
vn -0.0871562287 0 0.99619472
vn -0.258818597 0 0.965925992
vn -0.422618598 0 0.906307578
vn -0.573576391 0 0.819152117
vn -0.819152117 0 0.573576391
vn -0.906307578 0 0.422618598
vn -0.965925992 0 0.258818597
vn -0.99619472 0 0.0871562287
vn -0.99619472 0 -0.0871561095
vn -0.96592617 0 -0.258817911
vn -0.906307518 0 -0.422618896
vn -0.81915158 0 -0.573577106
vn -0.573576987 0 -0.8191517
vn -0.42261821 0 -0.906307817
vn -0.258818299 0 -0.965926111
vn -0.0871561095 0 -0.99619472
vn 0.0871561095 0 -0.99619472
vn 0.258817911 0 -0.96592617
vn 0.422618896 0 -0.906307518
vn 0.573577225 0 -0.81915158
vn 0.81915158 0 -0.573577106
vn 0.906307518 0 -0.422618896
vn 0.96592617 0 -0.258817911
vn 0.99619472 0 -0.0871561095
vn 0.99619472 0 0.0871561095
vn 0.965925992 0 0.258818209
vn 0.906307817 0 0.42261821
vn 0.81915158 0 0.573577106
vn 0.573577225 0 0.81915158
vn 0.422618896 0 0.906307518
vn 0.258817911 0 0.96592617
vn 0.0871561095 0 0.99619472
vn -0.0871561095 0 0.99619472
vn -0.258818299 0 0.965926111
vn -0.42261821 0 0.906307817
vn -0.573576987 0 0.8191517
vn -0.81915158 0 0.573577106
vn -0.906307817 0 0.42261821
vn -0.965925992 0 0.258818209
vn -0.99619472 0 0.0871561095
vn -0.99619472 0 -0.0871556923
vn -0.965925872 0 -0.258819103
vn -0.906306326 0 -0.422621399
vn -0.819152594 0 -0.573575675
vn -0.573577404 0 -0.819151402
vn -0.422620296 0 -0.906306803
vn -0.258819103 0 -0.965925813
vn -0.087152712 0 -0.996195018
vn 0.087152712 0 -0.996195018
vn 0.258819103 0 -0.965925813
vn 0.422621399 0 -0.906306386
vn 0.573577404 0 -0.819151402
vn 0.819151402 0 -0.573577404
vn 0.906306326 0 -0.422621399
vn 0.965925872 0 -0.258818686
vn 0.996195018 0 -0.087152712
vn 0.996195018 0 0.087152712
vn 0.965925872 0 0.258818805
vn 0.906306803 0 0.422620296
vn 0.819151402 0 0.573577404
vn 0.573575675 0 0.819152594
vn 0.422621399 0 0.906306386
vn 0.258819103 0 0.965925813
vn 0.0871554017 0 0.99619478
vn -0.0871554017 0 0.99619478
vn -0.258819103 0 0.965925813
vn -0.422620296 0 0.906306803
vn -0.573575675 0 0.819152594
vn -0.819152594 0 0.573575616
vn -0.906306803 0 0.422620296
vn -0.965925813 0 0.258819103
vn -0.99619472 0 0.0871556923
vn -0.99619472 0 -0.0871548578
vn -0.965925813 0 -0.258819103
vn -0.906307697 0 -0.4226183
vn -0.573577583 0 -0.819151223
vn -0.4226183 0 -0.906307817
vn -0.0871548578 0 -0.99619472
vn 0.0871548578 0 -0.99619472
vn 0.422618508 0 -0.906307817
vn 0.573578179 0 -0.819150925
vn 0.819150925 0 -0.573578179
vn 0.906307697 0 -0.4226183
vn 0.965925813 0 -0.258819103
vn 0.99619472 0 -0.0871548578
vn 0.99619472 0 0.0871548578
vn 0.965925813 0 0.258819103
vn 0.906307697 0 0.4226183
vn 0.819151223 0 0.573577583
vn 0.573577106 0 0.81915158
vn 0.422618508 0 0.906307817
vn 0.0871548578 0 0.99619472
vn -0.0871548578 0 0.99619472
vn -0.4226183 0 0.906307817
vn -0.573576629 0 0.819151998
vn -0.819151998 0 0.573576629
vn -0.906307697 0 0.4226183
vn -0.99619472 0 0.0871548578
vn -0.997522414 0.00913447142 0.0697532222
vn -0.994521916 0 0.104528397
vn -0.984807789 0 0.173648402
vn -0.978106678 0.00913441088 0.207903296
vn -0.970295608 0 0.241922095
vn -0.95105648 0 0.309016913
vn -0.939653277 0.00913447142 0.342005998
vn -0.927183688 0 0.374606997
vn -0.898794115 0 0.438370913
vn -0.882910907 0.00913435221 0.469451696
vn -0.866025627 0 0.499999613
vn -0.829037607 0 0.559193015
vn -0.808983088 0.00913447142 0.587760925
vn -0.788010478 0 0.615661919
vn -0.74314481 0 0.669130683
vn -0.719309926 0.00913435221 0.694629312
vn -0.694658697 0 0.71933949
vn -0.642787814 0 0.766044319
vn -0.615635812 0.00913447142 0.787977874
vn -0.587785125 0 0.809017122
vn -0.52991879 0 0.848048508
vn -0.499978811 0.00913435221 0.865989506
vn -0.469471514 0 0.882947624
vn -0.406736702 0 0.91354543
vn -0.374590993 0.00913441088 0.927145123
vn -0.342020214 0 0.939692616
vn -0.275638103 0 0.961261511
vn -0.241912007 0.00913458969 0.970255077
vn -0.207911298 0 0.978147686
vn -0.139172897 0 0.990268171
vn -0.104524098 0.00913435221 0.994480371
vn -0.0697567984 0 0.997564018
vn 0.0348981582 0.00913447142 0.999349117
vn 0.0697567984 0 0.997564018
vn 0.139173001 0 0.990268171
vn 0.173640594 0.00913435221 0.984766781
vn 0.207911 0 0.978147805
vn 0.275638014 0 0.961261511
vn 0.309004396 0.00913429167 0.951016724
vn 0.342020214 0 0.939692616
vn 0.406736702 0 0.91354543
vn 0.438353002 0.00913441088 0.898756504
vn 0.469471604 0 0.882947624
vn 0.529918194 0 0.848048806
vn 0.559169412 0.0091347089 0.829003096
vn 0.587786019 0 0.809016526
vn 0.642787278 0 0.766044676
vn 0.669102907 0.00913458969 0.743113577
vn 0.694659114 0 0.719339073
vn 0.743144274 0 0.669131219
vn 0.766012073 0.00913447142 0.64276129
vn 0.788010478 0 0.615661919
vn 0.829037607 0 0.559193015
vn 0.848013103 0.00913453102 0.529896677
vn 0.866026103 0 0.499998987
vn 0.898793817 0 0.438371688
vn 0.913507104 0.00913441088 0.406720102
vn 0.927183688 0 0.374606997
vn 0.95105648 0 0.309016913
vn 0.961221576 0.00913447142 0.275625497
vn 0.970295906 0 0.241921306
vn 0.984807372 0 0.173650205
vn 0.990226686 0.00913488772 0.139167398
vn 0.994522095 0 0.104526602
vn 0.9993909 0 0.0348997116
vn 0.999958277 0.00913447142 0
vn 0.9993909 0 -0.0348997116
vn 0.994522095 0 -0.104526803
vn 0.990226686 0.00913482904 -0.139167294
vn 0.984807491 0 -0.173649803
vn 0.970295906 0 -0.241921395
vn 0.961221576 0.00913441088 -0.275625408
vn 0.951056719 0 -0.309016705
vn 0.927183688 0 -0.374606997
vn 0.913507104 0.00913447142 -0.40672031
vn 0.898793578 0 -0.438371986
vn 0.866026103 0 -0.499998987
vn 0.848013222 0.00913447142 -0.529896379
vn 0.829037905 0 -0.559192479
vn 0.78801018 0 -0.615662217
vn 0.766012073 0.00913429167 -0.64276129
vn 0.74314481 0 -0.669130802
vn 0.694658577 0 -0.719339609
vn 0.669102371 0.00913458969 -0.743114114
vn 0.642786801 0 -0.766045094
vn 0.587786615 0 -0.809015989
vn 0.55916971 0.00913476944 -0.829002917
vn 0.529918194 0 -0.848048806
vn 0.469471604 0 -0.882947624
vn 0.438353002 0.00913441088 -0.898756504
vn 0.406736702 0 -0.91354543
vn 0.342020214 0 -0.939692616
vn 0.309004396 0.00913429167 -0.951016724
vn 0.275638014 0 -0.961261511
vn 0.207911 0 -0.978147805
vn 0.173640996 0.00913423207 -0.984766722
vn 0.139173895 0 -0.990267873
vn 0.0697567984 0 -0.997564018
vn 0.0348981582 0.00913447142 -0.999349117
vn -0.0697567984 0 -0.997564018
vn -0.104524598 0.00913447142 -0.994480312
vn -0.139173806 0 -0.990267992
vn -0.207911298 0 -0.978147686
vn -0.241912007 0.00913458969 -0.970255077
vn -0.275638103 0 -0.961261511
vn -0.342020214 0 -0.939692616
vn -0.374590993 0.00913441088 -0.927145123
vn -0.406736702 0 -0.91354543
vn -0.469471514 0 -0.882947624
vn -0.499978811 0.00913435221 -0.865989506
vn -0.52991879 0 -0.848048508
vn -0.587785721 0 -0.809016705
vn -0.615635812 0.00913429167 -0.787977874
vn -0.642787278 0 -0.766044796
vn -0.69465822 0 -0.719340026
vn -0.719309926 0.00913447142 -0.694629312
vn -0.743145227 0 -0.669130325
vn -0.78801018 0 -0.615662217
vn -0.808983088 0.00913458969 -0.587760925
vn -0.829037905 0 -0.559192479
vn -0.866025627 0 -0.499999613
vn -0.882910907 0.00913429167 -0.469451904
vn -0.898793995 0 -0.438371301
vn -0.927183688 0 -0.374606997
vn -0.939653277 0.00913453102 -0.342005908
vn -0.951056719 0 -0.309016705
vn -0.970295608 0 -0.2419222
vn -0.978106678 0.00913447142 -0.207903206
vn -0.984807789 0 -0.173648104
vn -0.994521916 0 -0.104528502
vn -0.997522414 0.00913447142 -0.0697532222
vn -0.9993909 0 -0.0348988101
vn -0.9993909 0 0.0348988101
vn 0.701102018 -0.711373627 0.0490258895
vn 0.70344758 -0.706891179 0.0739340112
vn 0.696576118 -0.706891298 0.122826599
vn 0.687456012 -0.711373508 0.146122903
vn 0.686312079 -0.706891 0.171116397
vn 0.672703803 -0.706891 0.218574703
vn 0.660429299 -0.711373508 0.240376398
vn 0.655817986 -0.706890881 0.264968008
vn 0.635737181 -0.706890821 0.310070187
vn 0.620547771 -0.711373389 0.329951704
vn 0.612559617 -0.706891119 0.353660494
vn 0.586396813 -0.706891119 0.395529687
vn 0.568588078 -0.711373806 0.413104087
vn 0.557377279 -0.706891179 0.435471296
vn 0.525642514 -0.706891179 0.473291397
vn 0.505562484 -0.711373687 0.488215297
vn 0.491347909 -0.706891119 0.508804619
vn 0.454657912 -0.706891119 0.541840613
vn 0.432695687 -0.711373627 0.553824902
vn 0.415754199 -0.706891179 0.572235405
vn 0.374823004 -0.706891119 0.599843919
vn 0.351406604 -0.711373627 0.608654976
vn 0.332067788 -0.706891119 0.624528527
vn 0.287694007 -0.706891119 0.646171093
vn 0.263278991 -0.711373687 0.651637614
vn 0.241918504 -0.706891119 0.66466558
vn 0.194964901 -0.706891119 0.679921806
vn 0.170026198 -0.711373806 0.681937277
vn 0.147060201 -0.706891119 0.691865921
vn 0.0984401703 -0.706891119 0.700438917
vn 0.0734640881 -0.711373627 0.698963881
vn 0.0493405387 -0.706891119 0.705599427
vn 0 -0.706891119 0.707322419
vn -0.0245279595 -0.711373627 0.702385902
vn -0.0493405387 -0.706891119 0.705599427
vn -0.0984401107 -0.706891 0.700438917
vn -0.122042201 -0.711373627 0.692136705
vn -0.147060305 -0.706891179 0.691865802
vn -0.194965005 -0.706891179 0.679921806
vn -0.217181593 -0.711373627 0.668415904
vn -0.241918504 -0.706891119 0.664665699
vn -0.287694007 -0.706891119 0.646171212
vn -0.308093399 -0.711373627 0.631685078
vn -0.332067698 -0.706891 0.624528706
vn -0.374823511 -0.706891119 0.5998438
vn -0.393008709 -0.711373687 0.582659125
vn -0.415753603 -0.706891179 0.572235823
vn -0.45465821 -0.706891179 0.541840315
vn -0.470274299 -0.711373687 0.522292614
vn -0.491347611 -0.706891119 0.508804977
vn -0.525642872 -0.706891119 0.473291099
vn -0.538386822 -0.711373627 0.451760113
vn -0.557377398 -0.706891179 0.435471296
vn -0.586396694 -0.706891179 0.395529598
vn -0.596019924 -0.711373687 0.372434705
vn -0.612559378 -0.706891119 0.353661001
vn -0.635737181 -0.706891119 0.310069591
vn -0.64205271 -0.711373627 0.2858603
vn -0.655817807 -0.706891119 0.264967889
vn -0.672703624 -0.706891119 0.218574598
vn -0.675588191 -0.711373687 0.193721697
vn -0.686311781 -0.706891119 0.171116903
vn -0.696576476 -0.706891119 0.122825399
vn -0.695974171 -0.711373806 0.0978127718
vn -0.703447521 -0.706891119 0.0739352703
vn -0.706891418 -0.706891119 0.0246852599
vn -0.706891596 -0.706891119 0.0246847197
vn -0.706891477 -0.706891 -0.0246853195
vn -0.706891477 -0.706891179 -0.0246847197
vn -0.703447521 -0.706891179 -0.0739353225
vn -0.695974171 -0.711373687 -0.0978127122
vn -0.696576476 -0.706891179 -0.122825198
vn -0.686311722 -0.706891119 -0.171116993
vn -0.675588191 -0.711373687 -0.193721607
vn -0.672703624 -0.706891119 -0.218574405
vn -0.655817807 -0.706891119 -0.264967889
vn -0.642052472 -0.711373627 -0.2858603
vn -0.635737121 -0.706891119 -0.310069889
vn -0.612559378 -0.706891119 -0.353661001
vn -0.596020103 -0.711373627 -0.372434586
vn -0.586396992 -0.706891179 -0.395529389
vn -0.557377219 -0.706891179 -0.435471594
vn -0.538386703 -0.711373627 -0.451760292
vn -0.525643229 -0.706891119 -0.473290801
vn -0.491347313 -0.706891179 -0.508805215
vn -0.470274299 -0.711373687 -0.522292614
vn -0.454657793 -0.706891119 -0.541840613
vn -0.41575399 -0.706891119 -0.572235584
vn -0.393009007 -0.711373627 -0.582659006
vn -0.374823511 -0.706891 -0.5998438
vn -0.332067698 -0.706891 -0.624528825
vn -0.308093101 -0.711373508 -0.631685317
vn -0.287694007 -0.706891119 -0.646171212
vn -0.241918504 -0.706891119 -0.664665699
vn -0.217181593 -0.711373627 -0.668415904
vn -0.194965005 -0.706891179 -0.679921806
vn -0.147060305 -0.706891179 -0.691865802
vn -0.122042201 -0.711373627 -0.692136705
vn -0.0984406993 -0.706891179 -0.700438619
vn -0.0493404791 -0.706891179 -0.705599308
vn -0.0245278999 -0.711373806 -0.702385724
vn 0 -0.706891179 -0.707322299
vn 0.0493404791 -0.706891179 -0.705599308
vn 0.0734645128 -0.711373806 -0.698963702
vn 0.0984407589 -0.706891179 -0.700438619
vn 0.147060096 -0.706891179 -0.691865683
vn 0.170025498 -0.711373806 -0.681937516
vn 0.194965005 -0.706891 -0.679921925
vn 0.241918594 -0.706891 -0.664665818
vn 0.263279289 -0.711373627 -0.651637614
vn 0.287694007 -0.706891119 -0.646171093
vn 0.332067788 -0.706891119 -0.624528527
vn 0.351406813 -0.711373806 -0.608654797
vn 0.374822915 -0.706891179 -0.5998438
vn 0.415754586 -0.706891179 -0.572235107
vn 0.432695508 -0.711373508 -0.55382508
vn 0.454657495 -0.706891119 -0.541840792
vn 0.491347611 -0.706891119 -0.508804977
vn 0.505562425 -0.711373687 -0.488215297
vn 0.525642812 -0.706891179 -0.47329101
vn 0.5573771 -0.706891179 -0.435471505
vn 0.568587899 -0.711373806 -0.413104206
vn 0.586397111 -0.706891119 -0.395529389
vn 0.612559617 -0.706891 -0.353660494
vn 0.62054801 -0.711373508 -0.329951614
vn 0.635737002 -0.706891 -0.310070395
vn 0.655817986 -0.706891 -0.264968008
vn 0.660429418 -0.711373627 -0.240376204
vn 0.672703803 -0.706891 -0.218574405
vn 0.686312079 -0.706891119 -0.171116397
vn 0.687456012 -0.711373627 -0.146122903
vn 0.696576178 -0.706891298 -0.122826301
vn 0.70344758 -0.706891179 -0.0739340708
vn 0.701102018 -0.711373627 -0.0490258299
vn 0.706891477 -0.706891119 -0.0246853195
vn 0.706891596 -0.706891119 0.0246853195

# Mesh 'NRS_spindle-mesh' with 1124 faces
g NRS_spindle-mesh
usemtl DefaultMaterial
f  1//1 2//1 3//1
f  3//1 2//1 4//1
f  3//1 4//1 5//1
f  5//1 4//1 6//1
f  5//1 6//1 7//1
f  7//1 6//1 8//1
f  7//1 8//1 9//1
f  9//1 8//1 10//1
f  9//1 10//1 11//1
f  11//1 10//1 12//1
f  11//1 12//1 13//1
f  13//1 12//1 14//1
f  13//1 14//1 15//1
f  15//1 14//1 16//1
f  15//1 16//1 17//1
f  17//1 16//1 18//1
f  17//1 18//1 19//1
f  19//1 18//1 20//1
f  19//1 20//1 21//1
f  21//1 20//1 22//1
f  21//1 22//1 23//1
f  23//1 22//1 24//1
f  23//1 24//1 25//1
f  25//1 24//1 26//1
f  25//1 26//1 27//1
f  27//1 26//1 28//1
f  27//1 28//1 29//1
f  29//1 28//1 30//1
f  29//1 30//1 31//1
f  31//1 30//1 32//1
f  31//1 32//1 33//1
f  33//1 32//1 34//1
f  33//1 34//1 35//1
f  35//1 34//1 36//1
f  35//1 36//1 37//1
f  37//1 36//1 38//1
f  37//1 38//1 39//1
f  39//1 38//1 40//1
f  39//1 40//1 41//1
f  41//1 40//1 42//1
f  41//1 42//1 43//1
f  43//1 42//1 44//1
f  43//1 44//1 45//1
f  45//1 44//1 46//1
f  45//1 46//1 47//1
f  47//1 46//1 48//1
f  47//1 48//1 49//1
f  49//1 48//1 50//1
f  49//1 50//1 51//1
f  51//1 50//1 52//1
f  51//1 52//1 53//1
f  53//1 52//1 54//1
f  53//1 54//1 55//1
f  55//1 54//1 56//1
f  55//1 56//1 57//1
f  57//1 56//1 58//1
f  57//1 58//1 59//1
f  59//1 58//1 60//1
f  59//1 60//1 61//1
f  61//1 60//1 62//1
f  61//1 62//1 63//1
f  63//1 62//1 64//1
f  63//1 64//1 65//1
f  65//1 64//1 66//1
f  65//1 66//1 67//1
f  67//1 66//1 68//1
f  67//1 68//1 69//1
f  69//1 68//1 70//1
f  69//1 70//1 71//1
f  71//1 70//1 72//1
f  71//1 72//1 1//1
f  1//1 72//1 2//1
f  73//2 74//2 75//2
f  75//2 74//2 76//2
f  77//2 78//2 79//2
f  73//2 80//2 74//2
f  74//2 80//2 81//2
f  74//2 81//2 79//2
f  79//2 81//2 82//2
f  79//2 82//2 77//2
f  78//2 83//2 79//2
f  79//2 83//2 84//2
f  79//2 84//2 85//2
f  86//2 87//2 88//2
f  88//2 87//2 89//2
f  90//2 91//2 92//2
f  91//2 93//2 92//2
f  92//2 93//2 94//2
f  92//2 94//2 76//2
f  86//2 95//2 87//2
f  87//2 95//2 96//2
f  87//2 96//2 92//2
f  92//2 96//2 97//2
f  92//2 97//2 90//2
f  98//2 99//2 100//2
f  100//2 99//2 101//2
f  100//2 101//2 102//2
f  103//2 104//2 105//2
f  105//2 104//2 106//2
f  105//2 106//2 89//2
f  102//2 107//2 100//2
f  100//2 107//2 108//2
f  100//2 108//2 105//2
f  105//2 108//2 109//2
f  105//2 109//2 103//2
f  74//3 110//3 76//3
f  76//3 110//3 111//3
f  76//3 111//3 92//3
f  87//4 92//4 112//4
f  112//4 92//4 111//4
f  113//5 105//5 112//5
f  112//5 105//5 89//5
f  112//5 89//5 87//5
f  100//6 105//6 114//6
f  114//6 105//6 113//6
f  100//7 114//7 98//7
f  98//7 114//7 115//7
f  98//7 115//7 116//7
f  117//8 116//8 118//8
f  118//8 116//8 115//8
f  117//9 118//9 85//9
f  85//9 118//9 119//9
f  85//9 119//9 79//9
f  74//10 79//10 110//10
f  110//10 79//10 119//10
f  85//2 120//2 117//2
f  117//2 120//2 121//2
f  117//2 121//2 122//2
f  122//2 123//2 117//2
f  117//2 123//2 124//2
f  117//2 124//2 116//2
f  116//2 124//2 125//2
f  116//2 125//2 126//2
f  126//2 127//2 116//2
f  116//2 127//2 128//2
f  116//2 128//2 98//2
f  115//1 114//1 113//1
f  119//1 118//1 110//1
f  110//1 118//1 115//1
f  110//1 115//1 111//1
f  111//1 115//1 113//1
f  111//1 113//1 112//1
f  129//11 127//11 130//11
f  130//12 127//12 126//12
f  130//12 126//12 131//12
f  131//13 126//13 125//13
f  131//13 125//13 132//13
f  132//14 125//14 124//14
f  132//14 124//14 133//14
f  133//15 124//15 123//15
f  133//15 123//15 134//15
f  134//16 123//16 122//16
f  134//16 122//16 135//16
f  135//17 122//17 121//17
f  135//17 121//17 136//17
f  136//18 121//18 120//18
f  136//18 120//18 137//18
f  137//19 120//19 138//19
f  138//19 120//19 85//19
f  138//20 85//20 139//20
f  85//20 84//20 139//20
f  139//21 84//21 83//21
f  139//21 83//21 140//21
f  140//22 83//22 78//22
f  140//22 78//22 141//22
f  141//23 78//23 77//23
f  141//23 77//23 142//23
f  142//24 77//24 82//24
f  142//24 82//24 143//24
f  143//25 82//25 81//25
f  143//25 81//25 144//25
f  144//26 81//26 80//26
f  144//26 80//26 145//26
f  145//27 80//27 73//27
f  145//27 73//27 146//27
f  146//28 73//28 75//28
f  146//28 75//28 147//28
f  147//29 75//29 76//29
f  147//30 76//30 148//30
f  76//31 94//31 148//31
f  148//32 94//32 93//32
f  148//32 93//32 149//32
f  149//33 93//33 91//33
f  149//33 91//33 150//33
f  150//34 91//34 90//34
f  150//34 90//34 151//34
f  151//35 90//35 97//35
f  151//35 97//35 152//35
f  152//36 97//36 96//36
f  152//36 96//36 153//36
f  153//37 96//37 95//37
f  153//37 95//37 154//37
f  154//38 95//38 86//38
f  154//38 86//38 155//38
f  155//39 86//39 88//39
f  155//39 88//39 156//39
f  156//40 88//40 89//40
f  156//40 89//40 157//40
f  157//41 89//41 106//41
f  157//41 106//41 158//41
f  158//42 106//42 104//42
f  158//42 104//42 159//42
f  159//43 104//43 103//43
f  159//43 103//43 160//43
f  160//44 103//44 109//44
f  160//44 109//44 161//44
f  161//45 109//45 108//45
f  161//45 108//45 162//45
f  162//46 108//46 107//46
f  162//46 107//46 163//46
f  163//47 107//47 102//47
f  163//47 102//47 164//47
f  164//48 102//48 101//48
f  164//48 101//48 165//48
f  165//49 101//49 99//49
f  165//49 99//49 166//49
f  166//50 99//50 98//50
f  166//51 98//51 129//51
f  129//52 98//52 128//52
f  129//11 128//11 127//11
f  137//2 167//2 168//2
f  137//2 138//2 167//2
f  167//2 138//2 139//2
f  167//2 139//2 169//2
f  169//2 139//2 140//2
f  169//2 140//2 170//2
f  170//2 140//2 141//2
f  170//2 141//2 171//2
f  171//2 141//2 142//2
f  171//2 142//2 172//2
f  172//2 142//2 143//2
f  172//2 143//2 173//2
f  173//2 143//2 144//2
f  173//2 144//2 174//2
f  174//2 144//2 145//2
f  174//2 145//2 175//2
f  175//2 145//2 146//2
f  175//2 146//2 176//2
f  176//2 146//2 147//2
f  176//2 147//2 177//2
f  177//2 147//2 148//2
f  177//2 148//2 178//2
f  178//2 148//2 149//2
f  178//2 149//2 179//2
f  179//2 149//2 150//2
f  179//2 150//2 180//2
f  180//2 150//2 151//2
f  180//2 151//2 181//2
f  181//2 151//2 152//2
f  181//2 152//2 182//2
f  182//2 152//2 153//2
f  182//2 153//2 183//2
f  183//2 153//2 154//2
f  183//2 154//2 184//2
f  184//2 154//2 155//2
f  184//2 155//2 185//2
f  185//2 155//2 156//2
f  185//2 156//2 186//2
f  186//2 156//2 157//2
f  186//2 157//2 187//2
f  187//2 157//2 158//2
f  187//2 158//2 188//2
f  188//2 158//2 159//2
f  188//2 159//2 189//2
f  189//2 159//2 160//2
f  189//2 160//2 190//2
f  190//2 160//2 161//2
f  190//2 161//2 191//2
f  191//2 161//2 162//2
f  191//2 162//2 192//2
f  192//2 162//2 163//2
f  192//2 163//2 193//2
f  193//2 163//2 164//2
f  193//2 164//2 194//2
f  194//2 164//2 165//2
f  194//2 165//2 195//2
f  195//2 165//2 166//2
f  195//2 166//2 196//2
f  196//2 166//2 129//2
f  196//2 129//2 197//2
f  197//2 129//2 130//2
f  197//2 130//2 198//2
f  198//2 130//2 131//2
f  198//2 131//2 199//2
f  199//2 131//2 132//2
f  199//2 132//2 200//2
f  200//2 132//2 133//2
f  200//2 133//2 201//2
f  201//2 133//2 134//2
f  201//2 134//2 202//2
f  202//2 134//2 135//2
f  202//2 135//2 168//2
f  168//2 135//2 136//2
f  168//2 136//2 137//2
f  186//53 203//53 185//53
f  185//54 203//54 204//54
f  185//54 204//54 184//54
f  184//55 204//55 205//55
f  184//55 205//55 183//55
f  183//56 205//56 206//56
f  183//56 206//56 182//56
f  182//4 206//4 207//4
f  182//4 207//4 181//4
f  181//57 207//57 208//57
f  181//57 208//57 180//57
f  180//58 208//58 209//58
f  180//58 209//58 179//58
f  179//59 209//59 210//59
f  179//59 210//59 178//59
f  178//60 210//60 211//60
f  178//60 211//60 177//60
f  177//61 211//61 212//61
f  177//61 212//61 176//61
f  176//62 212//62 213//62
f  176//62 213//62 175//62
f  175//63 213//63 214//63
f  175//63 214//63 174//63
f  174//64 214//64 215//64
f  174//64 215//64 173//64
f  173//10 215//10 216//10
f  173//10 216//10 172//10
f  172//65 216//65 217//65
f  172//65 217//65 171//65
f  171//66 217//66 218//66
f  171//66 218//66 170//66
f  170//67 218//67 219//67
f  170//67 219//67 169//67
f  169//68 219//68 220//68
f  169//68 220//68 167//68
f  167//69 220//69 221//69
f  167//69 221//69 168//69
f  168//70 221//70 222//70
f  168//70 222//70 202//70
f  202//71 222//71 223//71
f  202//71 223//71 201//71
f  201//72 223//72 224//72
f  201//72 224//72 200//72
f  200//8 224//8 225//8
f  200//8 225//8 199//8
f  199//73 225//73 226//73
f  199//73 226//73 198//73
f  198//74 226//74 227//74
f  198//74 227//74 197//74
f  197//75 227//75 228//75
f  197//75 228//75 196//75
f  196//76 228//76 229//76
f  196//76 229//76 195//76
f  195//77 229//77 230//77
f  195//77 230//77 194//77
f  194//78 230//78 231//78
f  194//78 231//78 193//78
f  193//79 231//79 232//79
f  193//79 232//79 192//79
f  192//80 232//80 233//80
f  192//80 233//80 191//80
f  191//6 233//6 234//6
f  191//6 234//6 190//6
f  190//81 234//81 235//81
f  190//81 235//81 189//81
f  189//82 235//82 236//82
f  189//82 236//82 188//82
f  188//83 236//83 237//83
f  188//83 237//83 187//83
f  187//84 237//84 238//84
f  187//84 238//84 186//84
f  186//53 238//53 203//53
f  239//2 210//2 240//2
f  240//2 210//2 209//2
f  240//2 209//2 241//2
f  241//2 209//2 208//2
f  241//2 208//2 242//2
f  242//2 208//2 207//2
f  242//2 207//2 243//2
f  243//2 207//2 206//2
f  243//2 206//2 244//2
f  244//2 206//2 205//2
f  244//2 205//2 245//2
f  245//2 205//2 204//2
f  245//2 204//2 246//2
f  246//2 204//2 203//2
f  246//2 203//2 247//2
f  247//2 203//2 238//2
f  247//2 238//2 248//2
f  248//2 238//2 237//2
f  248//2 237//2 249//2
f  249//2 237//2 236//2
f  249//2 236//2 250//2
f  250//2 236//2 235//2
f  250//2 235//2 251//2
f  251//2 235//2 234//2
f  251//2 234//2 252//2
f  252//2 234//2 233//2
f  252//2 233//2 253//2
f  253//2 233//2 232//2
f  253//2 232//2 254//2
f  254//2 232//2 231//2
f  254//2 231//2 255//2
f  255//2 231//2 230//2
f  255//2 230//2 256//2
f  256//2 230//2 229//2
f  256//2 229//2 257//2
f  257//2 229//2 228//2
f  257//2 228//2 258//2
f  258//2 228//2 227//2
f  258//2 227//2 259//2
f  259//2 227//2 226//2
f  259//2 226//2 260//2
f  260//2 226//2 225//2
f  260//2 225//2 261//2
f  261//2 225//2 224//2
f  261//2 224//2 262//2
f  262//2 224//2 223//2
f  262//2 223//2 263//2
f  263//2 223//2 222//2
f  263//2 222//2 264//2
f  264//2 222//2 221//2
f  264//2 221//2 265//2
f  265//2 221//2 220//2
f  265//2 220//2 266//2
f  266//2 220//2 219//2
f  266//2 219//2 267//2
f  267//2 219//2 218//2
f  267//2 218//2 268//2
f  268//2 218//2 217//2
f  268//2 217//2 269//2
f  269//2 217//2 216//2
f  269//2 216//2 270//2
f  270//2 216//2 215//2
f  270//2 215//2 271//2
f  271//2 215//2 214//2
f  271//2 214//2 272//2
f  272//2 214//2 213//2
f  272//2 213//2 273//2
f  273//2 213//2 212//2
f  273//2 212//2 274//2
f  274//2 212//2 211//2
f  274//2 211//2 239//2
f  239//2 211//2 210//2
f  247//85 275//85 246//85
f  246//86 275//86 276//86
f  246//86 276//86 245//86
f  245//87 276//87 277//87
f  245//87 277//87 244//87
f  244//88 277//88 278//88
f  244//88 278//88 243//88
f  243//4 278//4 279//4
f  243//4 279//4 242//4
f  242//89 279//89 280//89
f  242//89 280//89 241//89
f  241//90 280//90 281//90
f  241//90 281//90 240//90
f  240//91 281//91 282//91
f  240//91 282//91 239//91
f  239//92 282//92 283//92
f  239//92 283//92 274//92
f  274//93 283//93 284//93
f  274//93 284//93 273//93
f  273//94 284//94 285//94
f  273//94 285//94 272//94
f  272//95 285//95 286//95
f  272//95 286//95 271//95
f  271//96 286//96 287//96
f  271//96 287//96 270//96
f  270//10 287//10 288//10
f  270//10 288//10 269//10
f  269//97 288//97 289//97
f  269//97 289//97 268//97
f  268//98 289//98 290//98
f  268//98 290//98 267//98
f  267//99 290//99 291//99
f  267//99 291//99 266//99
f  266//100 291//100 292//100
f  266//100 292//100 265//100
f  265//101 292//101 293//101
f  265//101 293//101 264//101
f  264//102 293//102 294//102
f  264//102 294//102 263//102
f  263//103 294//103 295//103
f  263//103 295//103 262//103
f  262//104 295//104 296//104
f  262//104 296//104 261//104
f  261//8 296//8 297//8
f  261//8 297//8 260//8
f  260//105 297//105 298//105
f  260//105 298//105 259//105
f  259//106 298//106 299//106
f  259//106 299//106 258//106
f  258//107 299//107 300//107
f  258//107 300//107 257//107
f  257//108 300//108 301//108
f  257//108 301//108 256//108
f  256//109 301//109 302//109
f  256//109 302//109 255//109
f  255//110 302//110 303//110
f  255//110 303//110 254//110
f  254//111 303//111 304//111
f  254//111 304//111 253//111
f  253//112 304//112 305//112
f  253//112 305//112 252//112
f  252//6 305//6 306//6
f  252//6 306//6 251//6
f  251//113 306//113 307//113
f  251//113 307//113 250//113
f  250//114 307//114 308//114
f  250//114 308//114 249//114
f  249//115 308//115 309//115
f  249//115 309//115 248//115
f  248//116 309//116 310//116
f  248//116 310//116 247//116
f  247//85 310//85 275//85
f  311//2 291//2 312//2
f  312//2 291//2 290//2
f  312//2 290//2 313//2
f  313//2 290//2 289//2
f  313//2 289//2 314//2
f  314//2 289//2 288//2
f  314//2 288//2 315//2
f  315//2 288//2 287//2
f  315//2 287//2 316//2
f  316//2 287//2 286//2
f  316//2 286//2 317//2
f  317//2 286//2 285//2
f  317//2 285//2 318//2
f  318//2 285//2 284//2
f  318//2 284//2 319//2
f  319//2 284//2 283//2
f  319//2 283//2 320//2
f  320//2 283//2 282//2
f  320//2 282//2 321//2
f  321//2 282//2 281//2
f  321//2 281//2 322//2
f  322//2 281//2 280//2
f  322//2 280//2 323//2
f  323//2 280//2 279//2
f  323//2 279//2 324//2
f  324//2 279//2 278//2
f  324//2 278//2 325//2
f  325//2 278//2 277//2
f  325//2 277//2 326//2
f  326//2 277//2 276//2
f  326//2 276//2 327//2
f  327//2 276//2 275//2
f  327//2 275//2 328//2
f  328//2 275//2 310//2
f  328//2 310//2 329//2
f  329//2 310//2 309//2
f  329//2 309//2 330//2
f  330//2 309//2 308//2
f  330//2 308//2 331//2
f  331//2 308//2 307//2
f  331//2 307//2 332//2
f  332//2 307//2 306//2
f  332//2 306//2 333//2
f  333//2 306//2 305//2
f  333//2 305//2 334//2
f  334//2 305//2 304//2
f  334//2 304//2 335//2
f  335//2 304//2 303//2
f  335//2 303//2 336//2
f  336//2 303//2 302//2
f  336//2 302//2 337//2
f  337//2 302//2 301//2
f  337//2 301//2 338//2
f  338//2 301//2 300//2
f  338//2 300//2 339//2
f  339//2 300//2 299//2
f  339//2 299//2 340//2
f  340//2 299//2 298//2
f  340//2 298//2 341//2
f  341//2 298//2 297//2
f  341//2 297//2 342//2
f  342//2 297//2 296//2
f  342//2 296//2 343//2
f  343//2 296//2 295//2
f  343//2 295//2 344//2
f  344//2 295//2 294//2
f  344//2 294//2 345//2
f  345//2 294//2 293//2
f  345//2 293//2 346//2
f  346//2 293//2 292//2
f  346//2 292//2 311//2
f  311//2 292//2 291//2
f  328//117 65//117 327//117
f  327//118 65//118 67//118
f  327//118 67//118 326//118
f  326//119 67//119 69//119
f  326//119 69//119 325//119
f  325//120 69//120 71//120
f  325//120 71//120 324//120
f  324//4 71//4 1//4
f  324//4 1//4 323//4
f  323//121 1//121 3//121
f  323//121 3//121 322//121
f  322//122 3//122 5//122
f  322//122 5//122 321//122
f  321//123 5//123 7//123
f  321//123 7//123 320//123
f  320//124 7//124 9//124
f  320//124 9//124 319//124
f  319//125 9//125 11//125
f  319//125 11//125 318//125
f  318//126 11//126 13//126
f  318//126 13//126 317//126
f  317//127 13//127 15//127
f  317//127 15//127 316//127
f  316//128 15//128 17//128
f  316//128 17//128 315//128
f  315//10 17//10 19//10
f  315//10 19//10 314//10
f  314//129 19//129 21//129
f  314//129 21//129 313//129
f  313//130 21//130 23//130
f  313//130 23//130 312//130
f  312//131 23//131 25//131
f  312//131 25//131 311//131
f  311//132 25//132 27//132
f  311//132 27//132 346//132
f  346//133 27//133 29//133
f  346//133 29//133 345//133
f  345//134 29//134 31//134
f  345//134 31//134 344//134
f  344//135 31//135 33//135
f  344//135 33//135 343//135
f  343//136 33//136 35//136
f  343//136 35//136 342//136
f  342//8 35//8 37//8
f  342//8 37//8 341//8
f  341//137 37//137 39//137
f  341//137 39//137 340//137
f  340//138 39//138 41//138
f  340//138 41//138 339//138
f  339//139 41//139 43//139
f  339//139 43//139 338//139
f  338//140 43//140 45//140
f  338//140 45//140 337//140
f  337//141 45//141 47//141
f  337//141 47//141 336//141
f  336//142 47//142 49//142
f  336//142 49//142 335//142
f  335//143 49//143 51//143
f  335//143 51//143 334//143
f  334//144 51//144 53//144
f  334//144 53//144 333//144
f  333//6 53//6 55//6
f  333//6 55//6 332//6
f  332//145 55//145 57//145
f  332//145 57//145 331//145
f  331//146 57//146 59//146
f  331//146 59//146 330//146
f  330//147 59//147 61//147
f  330//147 61//147 329//147
f  329//148 61//148 63//148
f  329//148 63//148 328//148
f  328//117 63//117 65//117
f  347//1 348//1 349//1
f  350//1 351//1 352//1
f  352//1 351//1 353//1
f  352//1 353//1 354//1
f  354//1 353//1 355//1
f  354//1 355//1 356//1
f  356//1 355//1 357//1
f  356//1 357//1 349//1
f  349//1 357//1 358//1
f  349//1 358//1 347//1
f  359//1 360//1 361//1
f  361//1 360//1 362//1
f  361//1 362//1 363//1
f  363//1 362//1 364//1
f  363//1 364//1 365//1
f  365//1 364//1 366//1
f  365//1 366//1 367//1
f  368//1 369//1 370//1
f  370//1 369//1 371//1
f  370//1 371//1 372//1
f  372//1 371//1 373//1
f  372//1 373//1 374//1
f  374//1 373//1 375//1
f  374//1 375//1 350//1
f  350//1 375//1 376//1
f  350//1 376//1 351//1
f  377//1 378//1 379//1
f  379//1 378//1 380//1
f  379//1 380//1 381//1
f  381//1 380//1 382//1
f  381//1 382//1 383//1
f  383//1 382//1 384//1
f  383//1 384//1 385//1
f  385//1 384//1 386//1
f  385//1 386//1 359//1
f  359//1 386//1 387//1
f  359//1 387//1 360//1
f  347//1 388//1 348//1
f  348//1 388//1 389//1
f  348//1 389//1 390//1
f  390//1 389//1 391//1
f  390//1 391//1 392//1
f  392//1 391//1 393//1
f  392//1 393//1 377//1
f  377//1 393//1 394//1
f  377//1 394//1 378//1
f  395//1 396//1 397//1
f  397//1 396//1 398//1
f  397//1 398//1 399//1
f  399//1 398//1 400//1
f  399//1 400//1 401//1
f  401//1 400//1 402//1
f  401//1 402//1 368//1
f  368//1 402//1 403//1
f  368//1 403//1 369//1
f  404//1 405//1 406//1
f  406//1 405//1 407//1
f  406//1 407//1 408//1
f  408//1 407//1 409//1
f  408//1 409//1 410//1
f  410//1 409//1 411//1
f  410//1 411//1 395//1
f  395//1 411//1 412//1
f  395//1 412//1 396//1
f  366//1 413//1 367//1
f  367//1 413//1 414//1
f  367//1 414//1 415//1
f  415//1 414//1 416//1
f  415//1 416//1 417//1
f  417//1 416//1 418//1
f  417//1 418//1 419//1
f  419//1 418//1 420//1
f  419//1 420//1 421//1
f  420//1 422//1 421//1
f  421//1 422//1 423//1
f  421//1 423//1 424//1
f  424//1 423//1 425//1
f  424//1 425//1 426//1
f  426//1 425//1 427//1
f  426//1 427//1 404//1
f  404//1 427//1 428//1
f  404//1 428//1 405//1
f  64//149 390//149 66//149
f  66//150 390//150 392//150
f  66//150 392//150 68//150
f  68//151 392//151 377//151
f  68//151 377//151 70//151
f  70//88 377//88 379//88
f  70//88 379//88 72//88
f  72//4 379//4 381//4
f  72//4 381//4 2//4
f  2//152 381//152 383//152
f  2//152 383//152 4//152
f  4//153 383//153 385//153
f  4//153 385//153 6//153
f  6//123 385//123 359//123
f  6//123 359//123 8//123
f  8//154 359//154 361//154
f  8//154 361//154 10//154
f  10//155 361//155 363//155
f  10//155 363//155 12//155
f  12//126 363//126 365//126
f  12//126 365//126 14//126
f  14//156 365//156 367//156
f  14//156 367//156 16//156
f  16//157 367//157 415//157
f  16//157 415//157 18//157
f  18//10 415//10 417//10
f  18//10 417//10 20//10
f  20//158 417//158 419//158
f  20//158 419//158 22//158
f  22//159 419//159 421//159
f  22//159 421//159 24//159
f  24//160 421//160 424//160
f  24//160 424//160 26//160
f  26//161 424//161 426//161
f  26//161 426//161 28//161
f  28//162 426//162 404//162
f  28//162 404//162 30//162
f  30//163 404//163 406//163
f  30//163 406//163 32//163
f  32//164 406//164 408//164
f  32//164 408//164 34//164
f  34//165 408//165 410//165
f  34//165 410//165 36//165
f  36//8 410//8 395//8
f  36//8 395//8 38//8
f  38//166 395//166 397//166
f  38//166 397//166 40//166
f  40//167 397//167 399//167
f  40//167 399//167 42//167
f  42//139 399//139 401//139
f  42//139 401//139 44//139
f  44//168 401//168 368//168
f  44//168 368//168 46//168
f  46//169 368//169 370//169
f  46//169 370//169 48//169
f  48//142 370//142 372//142
f  48//142 372//142 50//142
f  50//170 372//170 374//170
f  50//170 374//170 52//170
f  52//171 374//171 350//171
f  52//171 350//171 54//171
f  54//6 350//6 352//6
f  54//6 352//6 56//6
f  56//172 352//172 354//172
f  56//172 354//172 58//172
f  58//173 354//173 356//173
f  58//173 356//173 60//173
f  60//147 356//147 349//147
f  60//147 349//147 62//147
f  62//174 349//174 348//174
f  62//174 348//174 64//174
f  64//149 348//149 390//149
f  429//2 430//2 431//2
f  431//2 430//2 432//2
f  431//2 432//2 433//2
f  434//2 435//2 431//2
f  431//2 435//2 436//2
f  431//2 436//2 429//2
f  437//2 438//2 431//2
f  431//2 438//2 439//2
f  431//2 439//2 434//2
f  440//2 441//2 431//2
f  431//2 441//2 442//2
f  431//2 442//2 437//2
f  443//2 444//2 431//2
f  431//2 444//2 445//2
f  431//2 445//2 440//2
f  446//2 447//2 431//2
f  431//2 447//2 448//2
f  431//2 448//2 443//2
f  449//2 450//2 431//2
f  431//2 450//2 451//2
f  431//2 451//2 446//2
f  452//2 453//2 431//2
f  431//2 453//2 454//2
f  431//2 454//2 449//2
f  455//2 456//2 431//2
f  431//2 456//2 457//2
f  431//2 457//2 452//2
f  458//2 459//2 431//2
f  431//2 459//2 460//2
f  431//2 460//2 455//2
f  461//2 462//2 431//2
f  431//2 462//2 463//2
f  431//2 463//2 458//2
f  464//2 465//2 431//2
f  431//2 465//2 466//2
f  431//2 466//2 461//2
f  467//2 468//2 431//2
f  431//2 468//2 469//2
f  431//2 469//2 464//2
f  470//2 471//2 431//2
f  431//2 471//2 472//2
f  431//2 472//2 467//2
f  433//2 473//2 431//2
f  431//2 473//2 474//2
f  431//2 474//2 470//2
f  475//175 433//175 432//175
f  475//176 476//176 433//176
f  433//177 476//177 477//177
f  433//178 477//178 473//178
f  477//179 478//179 473//179
f  473//180 478//180 479//180
f  473//181 479//181 474//181
f  479//182 480//182 474//182
f  474//183 480//183 481//183
f  474//184 481//184 470//184
f  481//185 482//185 470//185
f  470//186 482//186 483//186
f  470//187 483//187 471//187
f  483//188 484//188 471//188
f  471//189 484//189 485//189
f  471//190 485//190 472//190
f  485//191 486//191 472//191
f  472//192 486//192 487//192
f  472//193 487//193 467//193
f  487//194 488//194 467//194
f  467//195 488//195 489//195
f  467//196 489//196 468//196
f  489//197 490//197 468//197
f  468//198 490//198 491//198
f  468//199 491//199 469//199
f  491//200 492//200 469//200
f  469//201 492//201 493//201
f  469//202 493//202 464//202
f  493//203 494//203 464//203
f  464//204 494//204 495//204
f  464//205 495//205 465//205
f  495//206 496//206 465//206
f  465//7 496//7 497//7
f  465//207 497//207 466//207
f  497//208 498//208 466//208
f  466//209 498//209 499//209
f  466//210 499//210 461//210
f  499//211 500//211 461//211
f  461//212 500//212 501//212
f  461//213 501//213 462//213
f  501//214 502//214 462//214
f  462//215 502//215 503//215
f  462//216 503//216 463//216
f  503//217 504//217 463//217
f  463//218 504//218 505//218
f  463//219 505//219 458//219
f  505//220 506//220 458//220
f  458//221 506//221 507//221
f  458//222 507//222 459//222
f  507//223 508//223 459//223
f  459//224 508//224 509//224
f  459//225 509//225 460//225
f  509//226 510//226 460//226
f  460//227 510//227 511//227
f  460//228 511//228 455//228
f  511//229 512//229 455//229
f  455//230 512//230 513//230
f  455//231 513//231 456//231
f  513//232 514//232 456//232
f  456//233 514//233 515//233
f  456//234 515//234 457//234
f  515//235 516//235 457//235
f  457//236 516//236 517//236
f  457//237 517//237 452//237
f  517//238 518//238 452//238
f  452//239 518//239 519//239
f  452//240 519//240 453//240
f  519//241 520//241 453//241
f  453//242 520//242 521//242
f  453//243 521//243 454//243
f  521//244 522//244 454//244
f  454//245 522//245 523//245
f  454//246 523//246 449//246
f  523//247 524//247 449//247
f  449//248 524//248 525//248
f  449//249 525//249 450//249
f  525//250 526//250 450//250
f  450//251 526//251 527//251
f  450//252 527//252 451//252
f  527//253 528//253 451//253
f  451//254 528//254 529//254
f  451//255 529//255 446//255
f  529//256 530//256 446//256
f  446//257 530//257 531//257
f  446//258 531//258 447//258
f  531//259 532//259 447//259
f  447//260 532//260 533//260
f  447//261 533//261 448//261
f  533//262 534//262 448//262
f  448//263 534//263 535//263
f  448//264 535//264 443//264
f  535//265 536//265 443//265
f  443//266 536//266 537//266
f  443//267 537//267 444//267
f  537//268 538//268 444//268
f  444//269 538//269 539//269
f  444//270 539//270 445//270
f  539//271 540//271 445//271
f  445//272 540//272 541//272
f  445//273 541//273 440//273
f  541//3 542//3 440//3
f  440//274 542//274 543//274
f  440//275 543//275 441//275
f  543//276 544//276 441//276
f  441//277 544//277 545//277
f  441//278 545//278 442//278
f  545//279 546//279 442//279
f  442//280 546//280 547//280
f  442//281 547//281 437//281
f  547//282 548//282 437//282
f  437//283 548//283 549//283
f  437//284 549//284 438//284
f  549//285 550//285 438//285
f  438//286 550//286 551//286
f  438//287 551//287 439//287
f  551//288 552//288 439//288
f  439//289 552//289 553//289
f  439//290 553//290 434//290
f  553//291 554//291 434//291
f  434//292 554//292 555//292
f  434//293 555//293 435//293
f  555//294 556//294 435//294
f  435//295 556//295 557//295
f  435//296 557//296 436//296
f  557//297 558//297 436//297
f  436//298 558//298 559//298
f  436//299 559//299 429//299
f  559//300 560//300 429//300
f  429//301 560//301 561//301
f  429//302 561//302 430//302
f  561//303 562//303 430//303
f  430//304 562//304 563//304
f  430//305 563//305 432//305
f  432//306 563//306 564//306
f  432//307 564//307 475//307
f  518//308 428//308 427//308
f  518//309 517//309 428//309
f  428//310 517//310 516//310
f  428//311 516//311 405//311
f  516//312 515//312 405//312
f  405//313 515//313 514//313
f  405//314 514//314 407//314
f  514//315 513//315 407//315
f  407//316 513//316 512//316
f  407//317 512//317 409//317
f  512//318 511//318 409//318
f  409//319 511//319 510//319
f  409//320 510//320 411//320
f  510//321 509//321 411//321
f  411//322 509//322 508//322
f  411//323 508//323 412//323
f  508//324 507//324 412//324
f  412//325 507//325 506//325
f  412//326 506//326 396//326
f  506//327 505//327 396//327
f  396//328 505//328 504//328
f  396//329 504//329 398//329
f  504//330 503//330 398//330
f  398//331 503//331 502//331
f  398//332 502//332 400//332
f  502//333 501//333 400//333
f  400//334 501//334 500//334
f  400//335 500//335 402//335
f  500//336 499//336 402//336
f  402//337 499//337 498//337
f  402//338 498//338 403//338
f  498//339 497//339 403//339
f  403//340 497//340 496//340
f  403//341 496//341 369//341
f  496//342 495//342 369//342
f  369//343 495//343 494//343
f  369//344 494//344 371//344
f  494//345 493//345 371//345
f  371//346 493//346 492//346
f  371//347 492//347 373//347
f  492//348 491//348 373//348
f  373//349 491//349 490//349
f  373//350 490//350 375//350
f  490//351 489//351 375//351
f  375//352 489//352 488//352
f  375//353 488//353 376//353
f  488//354 487//354 376//354
f  376//355 487//355 486//355
f  376//356 486//356 351//356
f  486//357 485//357 351//357
f  351//358 485//358 484//358
f  351//359 484//359 353//359
f  484//360 483//360 353//360
f  353//361 483//361 482//361
f  353//362 482//362 355//362
f  482//363 481//363 355//363
f  355//364 481//364 480//364
f  355//365 480//365 357//365
f  480//366 479//366 357//366
f  357//367 479//367 478//367
f  357//368 478//368 358//368
f  478//369 477//369 358//369
f  358//370 477//370 476//370
f  358//371 476//371 347//371
f  347//372 476//372 475//372
f  347//373 475//373 388//373
f  388//374 475//374 564//374
f  388//375 564//375 389//375
f  564//376 563//376 389//376
f  389//377 563//377 562//377
f  389//378 562//378 391//378
f  562//379 561//379 391//379
f  391//380 561//380 560//380
f  391//381 560//381 393//381
f  560//382 559//382 393//382
f  393//383 559//383 558//383
f  393//384 558//384 394//384
f  558//385 557//385 394//385
f  394//386 557//386 556//386
f  394//387 556//387 378//387
f  556//388 555//388 378//388
f  378//389 555//389 554//389
f  378//390 554//390 380//390
f  554//391 553//391 380//391
f  380//392 553//392 552//392
f  380//393 552//393 382//393
f  552//394 551//394 382//394
f  382//395 551//395 550//395
f  382//396 550//396 384//396
f  550//397 549//397 384//397
f  384//398 549//398 548//398
f  384//399 548//399 386//399
f  548//400 547//400 386//400
f  386//401 547//401 546//401
f  386//402 546//402 387//402
f  546//403 545//403 387//403
f  387//404 545//404 544//404
f  387//405 544//405 360//405
f  544//406 543//406 360//406
f  360//407 543//407 542//407
f  360//408 542//408 362//408
f  542//409 541//409 362//409
f  362//410 541//410 540//410
f  362//411 540//411 364//411
f  540//412 539//412 364//412
f  364//413 539//413 538//413
f  364//414 538//414 366//414
f  538//415 537//415 366//415
f  366//416 537//416 536//416
f  366//417 536//417 413//417
f  536//418 535//418 413//418
f  413//419 535//419 534//419
f  413//420 534//420 414//420
f  534//421 533//421 414//421
f  414//422 533//422 532//422
f  414//423 532//423 416//423
f  532//424 531//424 416//424
f  416//425 531//425 530//425
f  416//426 530//426 418//426
f  530//427 529//427 418//427
f  418//428 529//428 528//428
f  418//429 528//429 420//429
f  528//430 527//430 420//430
f  420//431 527//431 526//431
f  420//432 526//432 422//432
f  526//433 525//433 422//433
f  422//434 525//434 524//434
f  422//435 524//435 423//435
f  524//436 523//436 423//436
f  423//437 523//437 522//437
f  423//438 522//438 425//438
f  522//439 521//439 425//439
f  425//440 521//440 520//440
f  425//441 520//441 427//441
f  427//442 520//442 519//442
f  427//443 519//443 518//443

