# File produced by Open Asset Import Library (http://www.assimp.sf.net)
# (assimp v5.2.0)

mtllib wrist3.mtl

# 532 vertex positions
v  -8.47045243e-08 0.0401648767 -0.0859966949
v  0.00106297829 0.0401648767 -0.0859059691
v  -8.14797474e-08 0.0401648767 -0.0760968253
v  -0.0011770525 0.0401648767 -0.0762006193
v  -0.019279195 0.015128009 -0.108496383
v  -0.0202974509 0.0177660938 -0.108496383
v  -0.0179759115 0.0197335985 -0.108496383
v  -0.0155011844 0.0157059412 -0.108496383
v  -0.0173925906 0.0146128749 -0.108496383
v  -0.0154222548 0.0185299329 -0.108496383
v  0.0173789784 0.0197335985 -0.108496398
v  0.0160756856 0.015128009 -0.108496398
v  0.0150574287 0.0177660938 -0.108496398
v  0.0179622918 0.0146128749 -0.108496398
v  0.0198536981 0.0157059301 -0.108496398
v  0.0199326258 0.0185299329 -0.108496398
v  -0.0199262165 -0.0167302787 -0.108496383
v  -0.0172978919 -0.0156663116 -0.108496383
v  -0.0152157182 -0.0172374416 -0.108496383
v  -0.0195272416 -0.0201692749 -0.108496383
v  -0.016071327 -0.020373581 -0.108496383
v  0.0154286642 -0.0167302787 -0.108496398
v  0.0180569906 -0.0156663116 -0.108496398
v  0.0201391634 -0.0172374416 -0.108496398
v  0.015827639 -0.0201692749 -0.108496398
v  0.0192835536 -0.020373581 -0.108496398
v  -0.0176515579 0.0197854284 -0.115955085
v  -0.0150778322 0.0178112835 -0.115945086
v  -0.0158929098 0.0153274862 -0.115968086
v  -0.0181618817 0.0145448269 -0.115955085
v  -0.0199938379 0.0160868354 -0.115968086
v  -0.0200282373 0.0182662178 -0.115961581
v  0.0177033227 0.0197854284 -0.115955099
v  0.0202770494 0.0178112835 -0.115945101
v  0.0194619689 0.0153274862 -0.115968101
v  0.0171929989 0.0145448269 -0.115955099
v  0.015361052 0.0160868354 -0.115968101
v  0.0153266527 0.0182662178 -0.115961596
v  -0.0181011632 -0.015674362 -0.115965687
v  -0.0156365037 -0.0165333003 -0.115955085
v  -0.0153268296 -0.0193354152 -0.115961581
v  -0.0177034959 -0.0208546855 -0.115955085
v  -0.0197752509 -0.0196542311 -0.115968086
v  -0.0201518647 -0.0172837917 -0.115955085
v  0.0181470681 -0.0156824924 -0.115965702
v  0.0201694518 -0.0173326507 -0.115955099
v  0.0193560123 -0.0202531125 -0.115955099
v  0.0169975217 -0.0206652787 -0.115968101
v  0.0153057026 -0.0192905143 -0.115961596
v  0.0156696886 -0.0164935309 -0.115955099
v  -0.0156277549 0.0145536968 -0.116480783
v  -0.0190487709 0.0143852085 -0.116495579
v  -0.0208408069 0.016675517 -0.116490476
v  -0.0196145624 0.0195794012 -0.116494678
v  -0.0170557555 0.020192733 -0.116494678
v  -0.0147853456 0.0183964763 -0.116493076
v  0.0197271276 0.0145536968 -0.116480798
v  0.0163061209 0.0143852085 -0.116495594
v  0.0145140737 0.016675517 -0.116490491
v  0.0157403275 0.0195794012 -0.116494693
v  0.0182991251 0.020192733 -0.116494693
v  0.020569535 0.0183964651 -0.116493091
v  -0.0146171683 -0.0185571052 -0.116495579
v  -0.0161565673 -0.0210247226 -0.116490476
v  -0.0195555035 -0.0207437258 -0.116493076
v  -0.0208090469 -0.0178515539 -0.116493076
v  -0.0191619284 -0.0154761039 -0.116494678
v  -0.0157401524 -0.0156050725 -0.116486579
v  0.020837212 -0.017460309 -0.116486594
v  0.0191983134 -0.0210247226 -0.116490491
v  0.0157993771 -0.0207437258 -0.116493091
v  0.0145458328 -0.0178515539 -0.116493091
v  0.017196659 -0.01494502 -0.116480798
v  -0.00220100256 0.0509104766 -0.0828517601
v  -0.0033244004 0.0507949181 -0.081189096
v  -0.000188926002 0.0510739721 -0.0790454894
v  8.04437423e-06 0.0510130562 -0.0830521286
v  0.00262570172 0.0507988967 -0.083064802
v  0.00203992752 0.0509487614 -0.0792253837
v  -0.0130248787 0.0182658266 -0.116496287
v  -0.0135524822 0.0146131953 -0.11649628
v  -0.0165546723 0.0124900825 -0.11649628
v  -0.0202071052 0.0130177271 -0.11649628
v  -0.0224634744 0.0164288897 -0.11649628
v  -0.021048205 0.0207032654 -0.11649628
v  -0.0171409734 0.0218988806 -0.11649628
v  -0.014547769 0.0207095053 -0.11649628
v  0.0223299935 0.0182658173 -0.116496295
v  0.0218023993 0.0146131953 -0.116496295
v  0.018800199 0.0124900928 -0.116496295
v  0.0151477754 0.0130177159 -0.116496295
v  0.0128914043 0.0164289009 -0.116496295
v  0.0143066859 0.0207032654 -0.116496295
v  0.0182139054 0.0218988806 -0.116496295
v  0.0208071023 0.0207095146 -0.116496295
v  -0.0161433481 -0.0228013992 -0.11649628
v  -0.0193986464 -0.0226342119 -0.11649628
v  -0.0216655657 -0.0208585151 -0.11649628
v  -0.0223768465 -0.0168140382 -0.11649628
v  -0.0192116573 -0.013622757 -0.11649628
v  -0.0155474069 -0.0139259035 -0.11649628
v  -0.0129088406 -0.0170730036 -0.11649628
v  -0.013621361 -0.020674618 -0.11649628
v  0.0217335317 -0.020674618 -0.116496295
v  0.0192115344 -0.0228013992 -0.116496295
v  0.0151477754 -0.0223372243 -0.116496295
v  0.0130246822 -0.0193350054 -0.116496287
v  0.0137394639 -0.0152913155 -0.116496295
v  0.0169563033 -0.0135219889 -0.116496295
v  0.0198074747 -0.0139259035 -0.116496295
v  0.0224460401 -0.0170729943 -0.116496295
v  -0.000394567207 0.0492635146 -0.0857264325
v  0.00080272794 0.0480008535 -0.0859503448
v  -8.470154e-08 0.047996562 -0.0859466866
v  -0.000579680374 0.0479972139 -0.0859266743
v  -0.00247492339 0.0488610603 -0.085240595
v  0.00143999932 0.0491626076 -0.0764558166
v  -0.000365841697 0.0480067544 -0.0760454014
v  0.000579154759 0.0479972139 -0.0761668086
v  0.00485404395 0.0469970256 -0.0798292384
v  0.0047676512 0.0487814434 -0.0822701827
v  0.00401914679 0.0499097966 -0.0793401375
v  0.00372079131 0.0487937815 -0.0778855979
v  -0.00172851549 0.0479927734 -0.0763947293
v  -0.00181220169 0.049846977 -0.077053912
v  -0.00370042352 0.0488610603 -0.0778812319
v  0.00192155619 0.0494115129 -0.0853525326
v  0.00369116664 0.0504943095 -0.0814669207
v  0.00133599935 0.0505387783 -0.0775831714
v  -0.00261095981 0.0506166667 -0.0785611495
v  -0.00461027725 0.0491015464 -0.0797420368
v  -0.0048284377 0.048792582 -0.0817475468
v  -0.00397060765 0.0493664667 -0.0835996419
v  -0.00198807078 0.0502552651 -0.0844617039
v  0.00364828599 0.0488759615 -0.0842528865
v  -2.46563013e-05 0.0507978052 -0.0842463374
v  -4.59901057e-05 0.0510505214 -0.0790347233
v  4.58208233e-05 0.0510505214 -0.0830587819
v  -0.022292776 0.0157818999 -0.107596397
v  -0.0206628665 0.0134219211 -0.107596397
v  -0.0184023157 0.012427724 -0.107596397
v  -0.0151344892 0.0129957665 -0.107596397
v  -0.0130001064 0.0160139557 -0.107596405
v  -0.01353049 0.0196858291 -0.107596405
v  -0.0157412905 0.0214705952 -0.107596397
v  -0.0182167199 0.0219241995 -0.107596397
v  -0.0208238941 0.0207285248 -0.107596397
v  -0.0221951567 0.0186751913 -0.107596397
v  0.0130621055 0.0157818999 -0.107596412
v  0.014377418 0.0137385074 -0.107596412
v  0.0165484101 0.0124653839 -0.107596412
v  0.0202203821 0.0129957665 -0.107596412
v  0.0223547742 0.0160139557 -0.107596412
v  0.0218243916 0.0196858291 -0.107596412
v  0.0196135901 0.0214705952 -0.107596412
v  0.0171381626 0.0219241995 -0.107596412
v  0.0145309856 0.0207285248 -0.107596412
v  0.013159724 0.0186751913 -0.107596412
v  -0.0222927667 -0.0195730012 -0.107596397
v  -0.0203382913 -0.0222212262 -0.107596397
v  -0.0180173609 -0.0229410473 -0.107596397
v  -0.0151343783 -0.0223590564 -0.107596397
v  -0.0130001167 -0.0193409454 -0.107596397
v  -0.0135305496 -0.0156689528 -0.107596397
v  -0.016548641 -0.0135346586 -0.107596397
v  -0.0198193081 -0.013903304 -0.107596397
v  -0.0220878497 -0.0162880737 -0.107596397
v  0.0188062415 -0.0135346586 -0.107596412
v  0.0218243301 -0.0156689528 -0.107596412
v  0.022354763 -0.0193409454 -0.107596412
v  0.0202205032 -0.0223590564 -0.107596412
v  0.0173375197 -0.0229410473 -0.107596412
v  0.0150165893 -0.0222212262 -0.107596412
v  0.0130621055 -0.0195729919 -0.107596405
v  0.0132670319 -0.0162880849 -0.107596405
v  0.0155355735 -0.013903304 -0.107596412
v  -0.00474653719 0.0469648354 -0.0793169364
v  -0.00437617209 0.0469648354 -0.0835708529
v  -0.00146726589 0.0469648354 -0.0858134851
v  0.00176684815 0.0469648354 -0.085784547
v  0.00474637048 0.0469648354 -0.0827765986
v  0.00353558804 0.0469648354 -0.0775156692
v  0.00116322411 0.0469648354 -0.0762499422
v  -0.00176717597 0.0469648354 -0.0763090625
v  0.00313694426 0.0237050466 -0.110481262
v  0.000877308426 0.0215419047 -0.110496469
v  -9.21134813e-08 0.0244650058 -0.108693786
v  -9.27008372e-08 0.0214650463 -0.110496365
v  -0.00171514566 0.0216550324 -0.110511862
v  -0.00304825138 0.024666803 -0.110494159
v  -0.00153051212 0.0273117498 -0.110500067
v  -9.27008372e-08 0.0274649672 -0.110496365
v  0.00148863473 0.0273104198 -0.110506065
v  0.0129046459 0.00898993481 -0.110496372
v  0.0157202799 0.00108738604 -0.110496372
v  0.00952473097 -0.0134392204 -0.110496365
v  0.0150587382 -0.00564221432 -0.110496372
v  0.00376349385 0.0150566502 -0.110496365
v  -0.00576716615 0.0142842997 -0.110496365
v  -0.0133642228 0.00833385903 -0.110496357
v  -0.0157632995 0.000597798964 -0.110496357
v  -0.0148191033 -0.00630110269 -0.110496357
v  -0.00995031092 -0.0129381968 -0.110496357
v  -0.000998622389 -0.016542621 -0.110496365
v  0.00315682823 0.0249443799 -0.116609089
v  0.00265944051 0.0228970069 -0.116439588
v  0.00147522893 0.0216086544 -0.116598383
v  -0.000608063594 0.0212716982 -0.116688684
v  -0.00252099638 0.0226330608 -0.116581388
v  -0.0031480859 0.0245615467 -0.116604887
v  -0.00220702123 0.0267380066 -0.116601788
v  -0.000696562871 0.0274021979 -0.116446987
v  0.00153487804 0.0272951089 -0.116452985
v  -0.0129073905 0.0157568399 -0.116475284
v  -0.0152719896 0.0128872981 -0.116185583
v  -0.0198110193 0.0126763405 -0.116190083
v  -0.0225812029 0.016029207 -0.116531476
v  -0.0218888726 0.0196248591 -0.116184987
v  -0.0180666633 0.0220776573 -0.116174079
v  -0.0135940313 0.0199406762 -0.116175294
v  0.0223384816 0.015851358 -0.116190203
v  0.020087732 0.0128900874 -0.116195299
v  0.0164691191 0.0122812456 -0.116550192
v  0.014566863 0.0134920403 -0.116192698
v  0.0129948929 0.0159309171 -0.116190203
v  0.013646814 0.0200166851 -0.116174094
v  0.01725314 0.0221224073 -0.116507396
v  0.0201091319 0.0212765764 -0.116197199
v  0.0220760964 0.0191543065 -0.116193794
v  -0.012692363 -0.0177856255 -0.116518475
v  -0.0142072635 -0.0217422135 -0.116174079
v  -0.0173685122 -0.0232027639 -0.116530374
v  -0.0208810475 -0.0219030213 -0.116166778
v  -0.022499295 -0.0185926445 -0.116190083
v  -0.021368321 -0.0150083993 -0.116166987
v  -0.018058084 -0.0133903511 -0.116190188
v  -0.0145013398 -0.0144962063 -0.116185583
v  0.022656979 -0.0177878458 -0.116507396
v  0.0213682558 -0.0214156378 -0.116166793
v  0.0180574581 -0.0230338555 -0.116190203
v  0.0151012158 -0.0225208737 -0.116523594
v  0.0131760798 -0.0203849021 -0.116536081
v  0.013099202 -0.0164985023 -0.116185591
v  0.0149140283 -0.0140447225 -0.116530389
v  0.0182585269 -0.0132215032 -0.116524197
v  0.0212268867 -0.0146721341 -0.116537295
v  0.00129513838 -0.0162878931 -0.115690194
v  0.00661585759 -0.0148900906 -0.115708299
v  0.0111185387 -0.011769251 -0.115690194
v  0.0149028394 -0.00608490407 -0.115684599
v  0.0157531388 0.000760483905 -0.115690105
v  0.0143601662 0.00607023714 -0.115690105
v  0.0112351868 0.0105833085 -0.115690105
v  0.00674429676 0.0137609961 -0.115708299
v  0.00192014128 0.0150608504 -0.115694299
v  -0.00466007739 0.014772743 -0.115709201
v  -0.0111183729 0.0107003171 -0.115690194
v  -0.0142903617 0.00622033095 -0.11569009
v  -0.0157388933 0.000925439293 -0.11569009
v  -0.0149842426 -0.00586177129 -0.115684584
v  -0.0103129139 -0.0126403607 -0.115684487
v  -0.00423009694 -0.0157631002 -0.115673497
v  -0.00474653719 0.0439647548 -0.0827765986
v  -0.00177242293 0.0439647548 -0.0857893378
v  -6.40211056e-07 0.0469648354 -0.0859468356
v  0.00140870071 0.0439647548 -0.0858314708
v  0.00437600538 0.0439647548 -0.0835708529
v  0.00474637235 0.0439647548 -0.0793169364
v  0.00177226111 0.0439647548 -0.076304175
v  4.7335979e-07 0.0469648354 -0.0761466771
v  -0.00105840003 0.0439647548 -0.0762282535
v  -0.00353575218 0.0439647548 -0.0775156692
v  -0.00475818105 0.0439647548 -0.0797817335
v  -6.62204548e-06 0.0277150534 -0.11669489
v  -9.46395602e-08 0.0274649672 -0.116446286
v  -9.47210239e-08 0.027714964 -0.116696283
v  0.00121500914 0.0276052263 -0.116702586
v  6.36277582e-06 0.0212149695 -0.11669489
v  -9.47210239e-08 0.0212150495 -0.116696283
v  -0.0199767482 0.0223274045 -0.116784371
v  -0.0152982594 0.0219287798 -0.116694674
v  -0.0125774154 0.0188656282 -0.116694778
v  -0.0222657286 0.0200695843 -0.11673408
v  -0.0201193262 0.0122772558 -0.116690382
v  -0.0151014524 0.0123949647 -0.116692983
v  0.021294836 0.0211994797 -0.116705589
v  0.0133985076 0.0205250792 -0.11669419
v  0.0202589687 0.0124207744 -0.116693296
v  0.0124893896 0.0152544072 -0.116686694
v  0.0231298432 0.0165645797 -0.116690494
v  -0.022793781 -0.0198919568 -0.116693176
v  -0.0224636048 -0.0158330593 -0.116694674
v  -0.0189172104 -0.0128968777 -0.116691574
v  -0.021439787 -0.0222275574 -0.116718479
v  -0.0136147011 -0.0217799433 -0.116693176
v  -0.0140971048 -0.014167781 -0.116692677
v  0.0123843709 -0.0171335936 -0.11669299
v  0.0193573218 -0.0233280323 -0.116692998
v  0.0220267363 -0.021454826 -0.116729185
v  -0.0103679532 0.0128685683 -0.116695285
v  -0.00376393786 0.0158838592 -0.116699882
v  -9.43951903e-08 0.0152151277 -0.115696296
v  -9.47210239e-08 0.0162151139 -0.116696283
v  0.000230970487 0.0162156224 -0.116656184
v  -0.00497763744 -0.0168409068 -0.116710484
v  -0.0131905368 -0.0111157 -0.116695181
v  -0.017022077 -0.00159629236 -0.116693981
v  -0.0151199512 0.00680413423 -0.116695777
v  0.0103665572 -0.013938643 -0.116695188
v  0.000230062302 -0.0172847006 -0.116656788
v  -9.47210239e-08 -0.01728433 -0.116696283
v  0.0106773134 0.0126832603 -0.116694786
v  0.0160132553 0.00489689829 -0.116694689
v  0.0163586605 -0.00535872532 -0.11669419
v  0.0025313762 -0.0313531682 -0.116697282
v  -0.00721067935 0.0293583833 -0.116697185
v  0.00778761366 0.0291647054 -0.116696991
v  -0.0281202421 0.011913131 -0.116697878
v  -0.0304942112 0.000870799704 -0.116696477
v  0.0260418542 0.0155294137 -0.116696492
v  0.0304527972 0.00392900174 -0.116697893
v  0.0183128249 0.0240051523 -0.116696388
v  -0.0133867944 -0.02821129 -0.116697378
v  -0.0290960986 -0.0106430566 -0.116698377
v  0.0287076887 -0.0116984323 -0.116698191
v  0.0158321075 -0.0268288273 -0.116696894
v  -0.00504040625 0.0401648767 -0.0803945437
v  -0.00414066436 0.0401648767 -0.0838839784
v  -0.00139327685 0.0401648767 -0.0858226195
v  4.707193e-07 0.0439647548 -0.0859565586
v  0.00311554386 0.0401648767 -0.0849823579
v  0.00490005733 0.0401648767 -0.082229428
v  0.00434442097 0.0401648767 -0.0783826485
v  0.00146305014 0.0401648767 -0.0762711987
v  -6.37229618e-07 0.0439647548 -0.0761369616
v  -0.00351319555 0.0401648767 -0.0774617866
v  -0.020618299 -0.0244283881 -0.11570169
v  -0.0120570306 -0.0298160594 -0.115690887
v  -0.0315017477 0.00269303285 -0.115690686
v  -0.0304064415 -0.00938025396 -0.115706488
v  -0.0259543601 -0.0184926856 -0.115702286
v  -0.0245426483 0.0193067733 -0.11570169
v  -0.0288113132 0.0123505751 -0.115702286
v  -0.0187072847 0.0248831119 -0.115720585
v  -0.0115975263 0.0288162399 -0.115730993
v  0.00424510008 0.0307383854 -0.115720198
v  -0.00377271255 0.030798234 -0.115676798
v  0.0120391864 0.0286386218 -0.115720205
v  0.0190442149 0.0246315449 -0.1157206
v  0.0260789823 0.0174279381 -0.115690701
v  0.0302906986 0.00833008718 -0.115702301
v  0.031548392 0.000373990973 -0.115682699
v  0.030742934 -0.00767473038 -0.115702301
v  0.0279264208 -0.0152392965 -0.115702301
v  0.0231738221 -0.0219573006 -0.115713604
v  0.0150905168 -0.0283706468 -0.115699001
v  -0.00214280188 -0.0320230499 -0.115702294
v  0.00591336144 -0.0315369517 -0.115702197
v  0.000293151388 0.0401648767 -0.0760705918
v  -0.0017473402 0.0401648767 -0.0858882591
v  0.00238051824 -0.0320029482 -0.110196367
v  0.0102848103 -0.0303699821 -0.110196367
v  0.0193459727 -0.0256017521 -0.110196374
v  0.0273387581 -0.0165101923 -0.110196374
v  0.0313357748 -0.00508354977 -0.110196374
v  0.0303286519 0.00907238852 -0.110196374
v  0.0244480167 0.0194207225 -0.110196374
v  0.0168435257 0.0262781214 -0.110196374
v  0.00765637541 0.0300808121 -0.110196374
v  -0.0025385099 0.0310278013 -0.110196367
v  -0.0121756075 0.0285803843 -0.110196367
v  -0.0191622563 0.0245399959 -0.110196359
v  -0.0248957425 0.0188595094 -0.110196359
v  -0.0290009081 0.011910391 -0.110196359
v  -0.0312091503 0.00414732751 -0.110196359
v  -0.0311730504 -0.00609127572 -0.110196359
v  -0.0268097166 -0.0173832104 -0.110196359
v  -0.018528115 -0.026212275 -0.110196359
v  -0.00753727695 -0.0312888473 -0.110196359
v  0.0048743519 0.0408786759 -0.0828805566
v  0.0022052126 0.0408570841 -0.0856786519
v  -0.000215976397 0.0409678631 -0.0862397924
v  -0.00218315469 0.0409807153 -0.0860396028
v  -0.00511197187 0.0408836678 -0.0819833502
v  -0.00474079605 0.0408923626 -0.0791483968
v  -0.00224189064 0.0408002771 -0.0763147622
v  0.00108107016 0.0407643989 -0.0761376992
v  0.00210563396 0.0409845524 -0.0760467649
v  0.00475155329 0.0408823751 -0.079111062
v  -0.0306167286 0.0293744728 -0.110198066
v  -0.01738411 0.0384202674 -0.110196963
v  -0.000366236956 0.0419652835 -0.11023467
v  0.0173829477 -0.0394898504 -0.110197075
v  0.00403483398 -0.0430012047 -0.11019697
v  -0.00973601174 -0.0420664772 -0.11019706
v  0.00631000893 0.0416204147 -0.110191971
v  0.0184367951 0.0379330739 -0.110197075
v  -0.0224879142 -0.0367835872 -0.110196963
v  -0.03117528 -0.0295021012 -0.110196553
v  -0.0403456129 0.0137547972 -0.110197954
v  0.0374134481 -0.0210262723 -0.110197082
v  0.0289119091 -0.03189997 -0.110196978
v  0.0278600827 0.0316339433 -0.110196576
v  0.0356297009 0.0229217969 -0.110196985
v  0.0412541255 0.0103176022 -0.110197082
v  -0.0379570648 -0.0200012159 -0.110197052
v  -0.0426164903 -0.00450661313 -0.110198058
v  0.0424739607 -0.0058167642 -0.110197984
v  7.12865512e-05 0.0409525372 -0.0862468183
v  -1.04487081e-05 0.040962521 -0.0758467019
v  -8.14757612e-08 0.0407648459 -0.0760468319
v  -8.14105903e-08 0.0409647934 -0.0758468434
v  -0.0025843326 -0.0455230512 -0.107702196
v  0.00714721205 -0.0450267717 -0.107702196
v  0.0187801514 -0.0416160934 -0.107705809
v  0.0290623587 -0.0349729992 -0.107702203
v  0.0357862823 -0.0279202126 -0.107702203
v  0.0418859124 -0.0174446683 -0.107705913
v  0.0447824337 -0.00555046787 -0.107702211
v  0.0448137149 0.00419347268 -0.107702211
v  0.0427495725 0.0137166772 -0.107702211
v  0.0386864766 0.0225733705 -0.107702211
v  0.0312133189 0.0321166664 -0.107705913
v  0.0209322423 0.0394025445 -0.107668504
v  0.00799031183 0.0439944975 -0.107682608
v  -9.26030879e-08 0.0419648997 -0.110196367
v  -9.17884933e-08 0.0444647484 -0.107696399
v  -0.00602140371 0.0441550314 -0.107698902
v  -0.0189240891 0.0404597037 -0.107721694
v  -0.0309144035 0.0324000046 -0.107705891
v  -0.0385374911 0.0228212886 -0.107702181
v  -0.0426573269 0.0139909741 -0.107702181
v  -0.0447826125 0.00448114425 -0.107702181
v  -0.0448138937 -0.00526280934 -0.107702181
v  -0.0420385152 -0.0170621146 -0.107705884
v  -0.0359616354 -0.0276897755 -0.107702181
v  -0.0274992995 -0.0363700539 -0.107705891
v  -0.0146179749 -0.0432745107 -0.107705891
v  -0.00729805557 0.0442324728 -0.0717362836
v  0.00980969425 0.0435097106 -0.0725021884
v  -0.0173995681 0.0409647934 -0.0750468373
v  0.0173994098 0.0409647934 -0.0750468522
v  3.74433184e-05 0.0444678664 -0.0715495422
v  -0.0173995718 0.0409647934 -0.0870466754
v  0.0173994061 0.0409647934 -0.0870466903
v  0.00730534457 0.0442322642 -0.0903574601
v  -0.0098139951 0.0435090587 -0.0895908698
v  -3.77879514e-05 0.0444678888 -0.0905439779
v  0.0121178403 0.042873662 -0.0679469928
v  0.0208939575 0.039382454 -0.0679467916
v  -8.62003873e-08 0.0444647484 -0.0905466378
v  -0.0114283031 0.0430453569 -0.0679470524
v  -0.0209991001 0.0393687449 -0.0679467097
v  0.000396620308 0.0446037054 -0.0679480284
v  -8.00094924e-08 0.0444647484 -0.0715468898
v  -0.0315052941 0.0318311602 -0.0679469407
v  -0.0388306677 0.0223243553 -0.0679469332
v  -0.0428368449 0.0134425526 -0.0679469332
v  -0.0448400304 0.00390701136 -0.0679469332
v  -0.0447465479 -0.00583583768 -0.0679469332
v  -0.0417288989 -0.0178213231 -0.0679469332
v  -0.0356084891 -0.0281460788 -0.0679469332
v  -0.0288401172 -0.0351553783 -0.0679469407
v  -0.0184071623 -0.0417814516 -0.0679469407
v  -0.00686281733 -0.0450683758 -0.0679469407
v  0.00287107658 -0.0455025025 -0.0679469481
v  0.0150025133 -0.0431379117 -0.0679469481
v  0.0278200656 -0.0361177847 -0.0679469556
v  0.0361315571 -0.0274577774 -0.0679469556
v  0.0421832986 -0.0166804772 -0.067946963
v  0.0448398776 -0.00497631496 -0.067946963
v  0.0447463989 0.00476651825 -0.067946963
v  0.0425606221 0.0142618818 -0.067946963
v  0.0383847579 0.0230651964 -0.067946963
v  0.0306133796 0.0326758921 -0.067946963
v  -0.043723885 -0.000534664025 -0.0679469332
v  -0.0434585065 -0.00534466049 -0.0679469332
v  -0.0426656082 -0.0100961812 -0.0679469332
v  -0.0413548052 -0.0147317415 -0.0679469332
v  -0.0395420082 -0.0191949457 -0.0679469332
v  -0.0372492373 -0.0234315898 -0.0679469332
v  -0.0345043056 -0.0273902789 -0.0679469332
v  -0.0313405469 -0.0310230404 -0.0679469332
v  -0.0277963411 -0.0342858098 -0.0679469407
v  -0.023914732 -0.0371388011 -0.0679469407
v  -0.0197428372 -0.0395473428 -0.0679469407
v  -0.0153312832 -0.0414824933 -0.0679469407
v  -0.0107336333 -0.0429204665 -0.0679469407
v  -0.00600569928 -0.0438439138 -0.0679469407
v  -0.00120485958 -0.0442418605 -0.0679469481
v  0.00361060398 -0.0441090502 -0.0679469481
v  0.00838223938 -0.0434473082 -0.0679469481
v  0.0130521273 -0.042264834 -0.0679469481
v  0.0175635703 -0.0405757651 -0.0679469556
v  0.0218618233 -0.0384006239 -0.0679469556
v  0.0258947015 -0.0357657708 -0.0679469556
v  0.0296132546 -0.0327033103 -0.0679469556
v  0.0329723284 -0.0292503536 -0.0679469556
v  0.03593117 -0.0254487731 -0.0679469556
v  0.0384538583 -0.0213448182 -0.067946963
v  0.0405097641 -0.0169883128 -0.067946963
v  0.042073939 -0.0124319708 -0.067946963
v  0.0431273878 -0.00773134734 -0.067946963
v  0.0436573327 -0.00294332369 -0.067946963
v  0.0436573327 0.00187399564 -0.067946963
v  0.0431273878 0.00666214153 -0.067946963
v  0.042073939 0.0113627594 -0.067946963
v  0.0405097641 0.0159190986 -0.067946963
v  0.0384538583 0.0202756133 -0.067946963
v  0.03593117 0.0243795607 -0.067946963
v  0.0329723284 0.0281811506 -0.067946963
v  0.0296132546 0.0316341035 -0.0679469556
v  0.0258947015 0.0346965678 -0.0679469556
v  0.0218618233 0.0373313017 -0.0679469556
v  0.0175635703 0.0395064466 -0.0679469556
v  0.0130521273 0.041195631 -0.0679469556
v  0.00838223938 0.0423781052 -0.0679469556
v  0.00361060398 0.0430398397 -0.0679469481
v  -0.00120485958 0.0431725271 -0.0679469481
v  -0.00600569928 0.0427747108 -0.0679469481
v  -0.0107336333 0.0418512635 -0.0679469481
v  -0.0153312832 0.0404132903 -0.0679469481
v  -0.0197428372 0.0384781361 -0.0679469407
v  -0.023914732 0.0360694788 -0.0679469407
v  -0.0277963411 0.0332166068 -0.0679469407
v  -0.0313405469 0.0299538262 -0.0679469407
v  -0.0345043056 0.0263210628 -0.0679469407
v  -0.0372492373 0.0223623775 -0.0679469407
v  -0.0395420082 0.0181257408 -0.0679469332
v  -0.0413548052 0.0136624193 -0.0679469332
v  -0.0426656082 0.0090269791 -0.0679469332
v  -0.0434585065 0.00427533267 -0.0679469332

# 0 UV coordinates

# 926 vertex normals
vn 0 0.000999987009 -4.37107989e-11
vn -4.08038847e-09 -4.37107989e-11 -0.000999987009
vn -3.25836996e-10 -4.37107989e-11 -0.000999987009
vn -6.84622226e-09 -4.37107989e-11 -0.000999987009
vn 2.63031485e-09 -4.37107989e-11 -0.000999987009
vn 8.02739475e-09 -4.37107989e-11 -0.000999987009
vn 7.13259452e-10 -4.37107989e-11 -0.000999987009
vn -0.000426225539 -0.000904262182 -2.48183896e-05
vn -0.000608014932 -0.00079243636 4.83392068e-05
vn -0.000998402829 2.79022352e-05 -4.88586302e-05
vn -0.000949678477 0.000311331678 3.40216429e-05
vn -0.000500277558 0.000865670852 -1.76179346e-05
vn -0.000325854489 0.000945076055 2.49864806e-05
vn 0.000263234397 0.000964048551 -3.59453697e-05
vn 0.000643377076 0.000764657627 3.65905144e-05
vn 0.000932043651 0.000359751837 -4.29801294e-05
vn 0.000999176409 1.56625792e-05 3.70826892e-05
vn 0.000646283268 -0.000762574608 -2.77808758e-05
vn 0.000538460852 -0.000842452107 1.75617824e-05
vn -0.000426223763 -0.000904262939 -2.48186898e-05
vn -0.000608015805 -0.00079243572 4.83400945e-05
vn -0.000998402946 2.79013948e-05 -4.88586302e-05
vn -0.000949677778 0.000311333977 3.40217048e-05
vn -0.000500277674 0.000865670736 -1.76182348e-05
vn -0.000325853267 0.000945076405 2.49865407e-05
vn 0.00026323268 0.000964049075 -3.59453115e-05
vn 0.000643377774 0.000764657045 3.65905726e-05
vn 0.000932043302 0.000359752943 -4.29798347e-05
vn 0.000999176526 1.56606784e-05 3.70827511e-05
vn 0.000646284083 -0.000762574025 -2.77805248e-05
vn 0.000538462191 -0.000842451234 1.75618443e-05
vn -0.000329008821 -0.000943611318 3.63999861e-05
vn -0.00060180627 -0.000797555025 -4.1342144e-05
vn -0.000992888003 -0.000109836474 4.56454436e-05
vn -0.000963019615 0.000262729474 -5.95033052e-05
vn -0.000537388027 0.000840936729 6.33540476e-05
vn 5.88394214e-05 0.000995274633 -7.70732368e-05
vn 0.00050068181 0.000864548958 4.29756728e-05
vn 0.000987343141 0.000156989263 -2.19520734e-05
vn 0.000992585206 0.000115155002 -3.85740968e-05
vn 0.000617020763 -0.00078593049 3.96588184e-05
vn 0.000374932919 -0.000926203676 -3.93238479e-05
vn -0.000602311629 -0.000798225694 -5.53380914e-06
vn -0.000632197189 -0.000774756307 7.32215767e-06
vn -0.000964702922 0.000263190566 -7.27703173e-06
vn -0.000963305589 0.000268311705 -5.0232311e-06
vn -0.000172206972 0.000984944752 1.42354975e-05
vn 5.8919657e-05 0.000996624818 -5.69352196e-05
vn 0.000630032329 0.000775116903 4.71917156e-05
vn 0.000991776818 0.000115062809 -5.57974745e-05
vn 0.000991230016 -0.000129060718 2.7935419e-05
vn 0.0003751677 -0.000926781562 -1.72937271e-05
vn 0.000311142852 -0.000950331858 5.81131644e-06
vn -0.000679101213 0.000229303201 -0.000697291689
vn -0.00017750726 0.00050056522 -0.00084728963
vn -4.71741441e-05 0.000976348587 -0.000210931292
vn 0.000397789874 0.000465926394 -0.000790348044
vn 0.000680554891 0.000533622049 -0.000502062438
vn 0.000530409452 1.08863114e-05 -0.000847656454
vn 0.000894797442 -0.000378174183 -0.000237268192
vn 0.000280801061 -0.000435603462 -0.000855204242
vn 0.000210400816 -0.000877818209 -0.000430279615
vn -0.0003747218 -0.000492496882 -0.000785496377
vn -0.00040303421 -0.000510098645 -0.000759826857
vn -0.000937383738 0.000204587224 -0.000281833229
vn -0.000679089397 0.000229305297 -0.000697302516
vn -0.000177511174 0.000500565744 -0.000847288524
vn -4.71741441e-05 0.000976347714 -0.000210935381
vn 0.000397790573 0.000465928111 -0.000790346588
vn 0.000680555182 0.000533621584 -0.000502062612
vn 0.000530408579 1.08858312e-05 -0.000847656862
vn 0.000894796452 -0.000378173776 -0.000237272281
vn 0.000280797045 -0.000435604161 -0.000855205464
vn 0.000210400627 -0.000877818617 -0.000430279237
vn -0.000374739291 -0.000492492341 -0.000785490847
vn -0.000403022917 -0.000510099751 -0.000759832154
vn -0.000937383214 0.000204587122 -0.000281834858
vn -0.000799257541 0.000497933419 -0.000336487312
vn -0.000259633118 0.000402377947 -0.000877870538
vn 8.21940121e-05 0.000993544003 -7.80299961e-05
vn 0.000272853882 0.000461741874 -0.000843990128
vn 0.000839435728 0.000363829953 -0.000403670158
vn 0.000579277519 9.64774081e-05 -0.000809384859
vn 0.000762312789 -0.000528826495 -0.000373089686
vn 0.000335929566 -0.000433562498 -0.000836151245
vn -3.53918549e-05 -0.00095704617 -0.000287722592
vn -0.000171960346 -0.000503886607 -0.00084646442
vn -0.000856988074 -0.000324778201 -0.000400080811
vn -0.000557540858 -5.96816826e-05 -0.000827985757
vn -0.000594572339 0.000165608013 -0.000786785851
vn -0.000861390145 0.000396407471 -0.000317556609
vn -9.70286201e-05 0.000580733235 -0.000808274897
vn 7.83057912e-05 0.000944235828 -0.000319782819
vn 0.000340341328 0.000422782759 -0.000839878805
vn 0.000893153308 0.000387128966 -0.00022887213
vn 0.000490763516 -6.18328995e-05 -0.000869081123
vn 0.000729336229 -0.000665841333 0.000157156464
vn 0.00014001198 -0.0004393048 -0.000887345348
vn -0.000631308707 -0.000773371139 5.76253697e-05
vn -0.000505362637 -0.000730379194 -0.000459487812
vn -9.29706512e-05 0.000995635404 6.37855419e-06
vn -4.79694318e-05 0.00099868176 -1.75394198e-05
vn 8.14818777e-05 0.00099659944 -1.11471254e-05
vn 5.35814252e-05 0.000998075819 -3.07855735e-05
vn -2.05093716e-06 -2.75767593e-06 -0.000999981072
vn -7.53538734e-06 1.08766721e-06 -0.000999958022
vn -7.81743165e-06 1.10517631e-05 -0.000999895507
vn 4.04427237e-06 5.72502677e-06 -0.000999962562
vn 6.77200802e-08 4.97028793e-07 -0.000999987009
vn -1.01680962e-06 1.412389e-06 -0.000999985612
vn 3.25583301e-06 2.15040336e-06 -0.000999979326
vn 3.77081005e-06 -1.24749249e-06 -0.000999979093
vn 1.61954468e-08 -1.43983391e-06 -0.000999985961
vn 2.73952622e-07 -1.13335091e-06 -0.000999986427
vn 2.92745369e-07 -9.60175271e-07 -0.000999986543
vn -4.59163829e-07 -9.97706593e-07 -0.000999986543
vn -3.76519921e-07 -1.362528e-06 -0.000999986078
vn -1.93405367e-06 -1.20344498e-06 -0.000999984331
vn -7.53538734e-06 1.08766721e-06 -0.000999958138
vn -7.81749259e-06 1.10517631e-05 -0.00099989539
vn 4.04868297e-06 5.72502677e-06 -0.000999962562
vn 7.04419492e-08 4.97028793e-07 -0.000999987009
vn -1.00482976e-06 1.412389e-06 -0.000999985496
vn 1.61954468e-08 -1.43983391e-06 -0.000999986078
vn 2.71920641e-07 -1.13335091e-06 -0.000999986427
vn 2.92747359e-07 -9.60180159e-07 -0.000999986543
vn -4.59162862e-07 -9.97705683e-07 -0.000999986427
vn -3.87268813e-07 -1.362528e-06 -0.000999985961
vn -1.91915296e-06 -1.20344498e-06 -0.000999984331
vn 1.03117782e-06 3.27530779e-06 -0.000999981072
vn 8.80680204e-08 1.71833494e-06 -0.000999985496
vn 1.43141858e-06 1.82997348e-06 -0.000999984331
vn 1.49453876e-06 6.51678818e-07 -0.000999985728
vn 2.35253651e-06 4.11570937e-07 -0.000999984215
vn 1.10615986e-06 -1.43870193e-06 -0.000999985496
vn 8.80994719e-07 -8.73794363e-07 -0.000999986194
vn 2.33101991e-06 -8.34801824e-07 -0.000999983982
vn -4.7442569e-07 -5.75628701e-06 -0.000999970362
vn -6.09464314e-06 -5.11113421e-06 -0.00099995546
vn -2.3243997e-06 2.16238436e-06 -0.00099998212
vn -5.39344796e-07 1.06641899e-07 -0.000999986893
vn -2.20483412e-06 -6.73011016e-07 -0.000999984331
vn -2.74812305e-06 3.24729422e-06 -0.000999977929
vn -2.61186892e-06 2.30817545e-06 -0.000999980955
vn -2.74132822e-06 3.24729422e-06 -0.000999978161
vn 1.02611182e-06 3.27536782e-06 -0.000999981072
vn 2.20284292e-07 1.93934625e-06 -0.000999985263
vn 1.81711459e-06 1.28614772e-06 -0.000999984681
vn 1.49644575e-06 6.51194796e-07 -0.000999985728
vn 2.58928344e-06 -4.55303791e-07 -0.000999983633
vn 4.49159961e-06 1.47425368e-07 -0.000999976997
vn 5.50731011e-06 -1.00114039e-05 -0.0009999217
vn -1.58757621e-06 -1.12097978e-05 -0.000999922981
vn -4.39485893e-06 -4.0390405e-06 -0.000999969197
vn -5.03518368e-06 -4.23102347e-06 -0.000999965472
vn -6.35952256e-06 1.25980296e-06 -0.000999966054
vn -5.39798793e-06 0.000169635954 -0.000985478749
vn -3.38975697e-05 0.000160925774 -0.000986371189
vn -0.000257634674 0.000187543716 -0.000947853376
vn 0.000127478066 0.000148999912 0.000980572542
vn 0.000956952223 0.000249369477 0.000148429855
vn 0.000916037534 0.000204649958 0.000344917207
vn -0.000238657201 0.000315706246 0.000918338948
vn -0.000501101022 0.000269706914 0.00082227122
vn -7.37756491e-05 0.000434067304 0.000897840015
vn 0.000133904861 0.000294750353 -0.000946132175
vn 0.000849512115 0.000527360884 1.39290596e-05
vn 0.000526691496 0.000618792488 0.000582808745
vn 0.000500342227 0.000570983859 0.000650852569
vn -0.000561290886 0.000577795552 0.000592519064
vn -0.000692388159 0.000590324518 0.000414836832
vn -0.000798761146 0.000601598935 -5.78736081e-06
vn -0.00076660281 0.00062117487 -0.00016259127
vn -0.000527787372 0.000547208299 -0.000649598078
vn -0.000289118005 0.000541846326 -0.000789168873
vn 0.000546434196 0.0006308874 -0.000550785568
vn 0.00070602668 0.000603940338 -0.000369806075
vn 0.000707361207 0.000611117575 -0.000355175551
vn -9.05858269e-06 0.000633261283 0.000773868465
vn -0.000670392648 0.000705489714 0.000229852201
vn -0.000117709991 0.000703998783 -0.000700360048
vn 7.36350266e-05 0.000683137507 -0.000726550119
vn -0.00010593966 0.000861709006 0.000496194058
vn -0.00054519315 0.000777121575 -0.000314357458
vn -0.000511102378 0.00077038462 -0.000381124701
vn 0.000247985125 0.000792609528 -0.000556998886
vn 0.000465831108 0.0008689604 0.000166983547
vn 0.000445323123 0.000805045827 0.000391870912
vn -0.000204810363 0.00089682918 -0.000392077083
vn 7.15428541e-05 0.000960083504 0.000270361343
vn -8.08311233e-05 0.00091338146 0.000398967037
vn 4.15201866e-05 0.000614623248 0.000787710946
vn -0.000162961456 0.000980384531 0.000110741974
vn 9.43622144e-05 0.000972565904 -0.000212569212
vn 0.000269877492 0.000962874503 3.58897637e-06
vn 1.76669637e-05 0.000157501607 0.000987347565
vn -7.95348169e-05 0.00097593863 -0.000202958268
vn -0.000833794358 -0.000551525329 -2.41016605e-05
vn -0.000822711212 -0.000568202347 -1.6324846e-05
vn -0.000402492267 -0.000915169483 2.09522386e-05
vn -0.000142879653 -0.000989050372 -3.65921514e-05
vn 0.000171186184 -0.000984809129 2.86386239e-05
vn 0.00057678303 -0.00081560231 -4.56977177e-05
vn 0.000815801963 -0.000576912193 4.01676407e-05
vn 0.000988966436 -0.000142850942 -3.88972621e-05
vn 0.000989163411 0.000142879042 3.33979769e-05
vn 0.000848121592 0.000528542616 -3.61485472e-05
vn 0.000628043432 0.000777960406 1.76953727e-05
vn 0.000416786992 0.00090872799 -2.18184014e-05
vn 0.000180208153 0.000983432168 1.89838411e-05
vn -0.0002923914 0.000955527415 -3.806124e-05
vn -0.00041684488 0.000908928807 7.92657647e-06
vn -0.000831438461 0.00055525545 1.93788364e-05
vn -0.000948084402 0.00031391863 -5.064785e-05
vn -0.000999184907 3.37115816e-05 2.16159024e-05
vn -0.000833794766 -0.000551524514 -2.41015987e-05
vn -0.000840496912 -0.000541019079 -2.89357667e-05
vn -0.000505681033 -0.000862311746 2.60661636e-05
vn -0.000142866862 -0.000988964341 -3.88926819e-05
vn 0.000142874967 -0.00098916376 3.34037322e-05
vn 0.000576782331 -0.000815602893 -4.56981397e-05
vn 0.000815801497 -0.000576912775 4.01678772e-05
vn 0.000988966553 -0.000142850244 -3.88973203e-05
vn 0.000989163411 0.000142879449 3.33978605e-05
vn 0.000848121475 0.0005285425 -3.61488492e-05
vn 0.000628042617 0.000777960988 1.76951908e-05
vn 0.000416786468 0.000908728282 -2.1817872e-05
vn 0.000180208357 0.000983432052 1.89841412e-05
vn -0.000292391109 0.000955527474 -3.80617821e-05
vn -0.000416845403 0.000908928574 7.92651645e-06
vn -0.000831439451 0.00055525417 1.93788364e-05
vn -0.000948084053 0.00031391962 -5.06477882e-05
vn -0.000999184907 3.37117017e-05 2.16157241e-05
vn -0.000983903767 -0.000173033652 -4.43450663e-05
vn -0.000804247684 -0.000593561796 2.90575299e-05
vn -0.000616389909 -0.000786906399 -2.85629449e-05
vn -0.000296192564 -0.000955025607 1.30440185e-05
vn -5.12738116e-05 -0.000998320989 -2.64608352e-05
vn 0.000197807356 -0.000979875447 2.62762769e-05
vn 0.00064426224 -0.000763983408 -3.50679911e-05
vn 0.000816112151 -0.000577116676 2.95154769e-05
vn 0.000980214332 -0.00019391859 -3.9362938e-05
vn 0.000988641987 0.000142814344 4.65326484e-05
vn 0.000765417935 0.000641737774 -4.77715257e-05
vn 0.000577130937 0.000816118903 2.90496901e-05
vn 8.23992377e-05 0.000995988492 -3.45145199e-05
vn -0.000111969937 0.000993416528 2.36695741e-05
vn -0.000709747372 0.000703947851 -2.62692483e-05
vn -0.000724426995 0.000689118111 -1.72008713e-05
vn -0.000997635187 6.22359075e-05 2.87182393e-05
vn 0.000140211458 0.000989719993 -2.7734779e-05
vn 0.000577131228 0.000816118729 2.90495682e-05
vn 0.000765417179 0.000641738763 -4.77712856e-05
vn 0.00098864187 0.000142814839 4.65327103e-05
vn 0.000980214449 -0.000193918182 -3.93628761e-05
vn 0.000816112501 -0.000577116327 2.9515415e-05
vn 0.000644261308 -0.000763984048 -3.50678129e-05
vn 0.000197807647 -0.000979875447 2.62767553e-05
vn -0.000113395239 -0.00099275331 -3.94543968e-05
vn -0.000296208775 -0.000955075608 8.08200457e-06
vn -0.000804580748 -0.000593807199 -4.12036525e-06
vn -0.000816399814 -0.000577339786 -1.20047034e-05
vn -0.000998029718 6.22605294e-05 5.86236229e-06
vn -0.000984192709 0.000173970533 -3.27589223e-05
vn -0.000723990786 0.000688704255 3.87021246e-05
vn -0.000481552444 0.000875518192 -3.93601913e-05
vn -0.00011196734 0.000993392081 2.46880318e-05
vn -0.000983708771 -0.000157974355 -8.56457191e-05
vn -0.000914031349 0.000149834741 -0.000376922108
vn -0.000716791721 0.000112798807 -0.000688084576
vn -0.000608358649 -8.48785639e-05 -0.000789094076
vn -0.000281113957 0.000137557668 -0.000949751004
vn 8.88637533e-06 -0.000116527328 -0.000993134687
vn -1.6409027e-05 -0.000172874803 -0.000984793995
vn 0.000317383587 0.000145392973 -0.000937071338
vn 0.000557932886 0.00010996074 -0.000822553062
vn 0.000704023929 -0.000134181886 -0.000697366311
vn 0.00086654129 0.000124573271 -0.000483282434
vn 0.000999319949 -1.53360872e-06 -3.64906409e-05
vn 0.000868672563 1.21989633e-05 0.000495210465
vn 0.000540834677 0.000113796959 0.000833380094
vn 0.000470590574 2.33606352e-05 0.000882027787
vn 0.000243766553 5.99746418e-05 0.000967964297
vn -2.00802151e-05 -9.15300334e-05 0.000995586859
vn -9.80876794e-05 8.63146706e-05 0.000991414418
vn -0.000574131147 8.94212135e-05 0.000813849736
vn -0.000703509839 -0.000139491356 0.000696843083
vn -0.000881209562 0.00014566262 0.000449695624
vn -0.000992039568 8.22135917e-05 9.52498594e-05
vn -0.000378244033 0.000400997465 -0.000834329927
vn 6.4644526e-05 0.00051395403 -0.000855363323
vn -4.51903798e-05 0.000514505431 -0.000856280327
vn 0.000506231736 0.000228956298 -0.000831433979
vn 0.000475444453 -0.000274668069 -0.00083575357
vn -5.89585143e-05 -0.000514135463 -0.00085566513
vn 5.35235158e-05 -0.000514293381 -0.000855927472
vn -0.000524105562 -0.000245227537 -0.000815567793
vn 2.39088771e-09 -4.37107989e-11 -0.000999987009
vn -2.49075871e-09 -4.37107989e-11 -0.000999987009
vn 1.29301192e-09 -4.37107989e-11 -0.000999987009
vn -1.08303921e-09 -4.37107989e-11 -0.000999987009
vn 6.36685371e-10 -4.37107989e-11 -0.000999987009
vn -0.000969860819 0.000239364585 4.52637796e-05
vn -0.000690730405 0.000721842342 -4.2536587e-05
vn -0.000730756379 0.000679596269 -6.41727092e-05
vn 4.34987305e-05 0.000998925068 1.51899249e-05
vn -0.00015527611 0.000983850914 -8.88875365e-05
vn 0.000580975146 0.000812130049 5.37278866e-05
vn 0.000912855263 0.000404387451 -5.60380213e-05
vn 0.000950841524 0.000308932678 -2.0855894e-05
vn 0.000867316034 -0.000497700239 -5.59652699e-06
vn 0.000915993412 -0.000395970361 -6.43242383e-05
vn 0.000398560718 -0.00091616757 4.19570315e-05
vn -4.79803457e-05 -0.000998594915 -2.19151443e-05
vn -4.36428451e-07 -0.000999983633 2.57004353e-06
vn -0.000909417286 -0.000415810297 -6.00125804e-06
vn -0.000821124995 -0.000558876141 -0.000115695708
vn -0.000816200976 0.000577194209 -2.52371028e-05
vn -0.000771509309 0.000636183191 4.31667559e-06
vn -0.000171248583 0.000985166989 -9.70004021e-06
vn -4.64297882e-05 0.000998241943 3.64898769e-05
vn 0.000402266975 0.000914656615 -3.94802773e-05
vn 0.000822393631 0.000567981799 3.22414016e-05
vn 0.000771247491 0.000636473414 -7.28017676e-06
vn 0.000998868258 -3.37013335e-05 -3.31766132e-05
vn 0.000981604448 -0.000190347127 1.39577169e-05
vn 0.000831175945 -0.000555079605 -3.17360282e-05
vn 0.000539534318 -0.000840941328 4.11620495e-05
vn 0.000416841998 -0.000908920541 -8.96863094e-06
vn -0.000180202158 -0.000983397593 -2.07461489e-05
vn -0.000430487882 -0.000901028397 5.29355602e-05
vn -0.000628035108 -0.000777949463 -1.84586024e-05
vn -0.000989710912 -0.000142957942 3.08345761e-06
vn -0.000986835104 -0.000161551696 -5.62651394e-06
vn -0.000816425658 0.000577351893 -9.3765193e-06
vn -0.000796122767 0.000605094421 4.84507291e-06
vn -0.000142947843 0.000989667024 -9.95765731e-06
vn -0.000164093377 0.00098625198 -1.88295653e-05
vn 0.000533862272 0.00084526703 -2.21107348e-05
vn 0.000505806587 0.000862524961 -1.35829059e-05
vn 0.000840845401 0.000541243062 3.01255818e-06
vn 0.0008405181 0.000541752321 2.81944176e-06
vn 0.000999383046 -3.37187412e-05 -8.40136909e-06
vn 0.000986989471 -0.000157607457 3.13981654e-05
vn 0.00083094358 -0.000554922153 -3.96008145e-05
vn 0.000416640076 -0.000908478047 3.24465727e-05
vn 0.000503310293 -0.000863997207 -1.27239409e-05
vn -0.000180188261 -0.000983321224 -2.41972739e-05
vn -0.0002844845 -0.000958652876 5.23478457e-06
vn -0.000628031557 -0.000777948007 -1.8635501e-05
vn -0.000733285677 -0.000679591147 2.05466113e-05
vn -0.000989514985 -0.000142929945 -2.01331386e-05
vn -0.000996841001 -7.91876082e-05 3.38731729e-06
vn -0.000932548661 0.000359714439 3.05394024e-05
vn -0.000815577863 0.000576739316 -4.66773963e-05
vn -0.000421158737 0.000906758942 1.96871315e-05
vn -0.000197692556 0.000979305245 -4.30466571e-05
vn 0.00029621154 0.0009550869 -6.46680019e-06
vn 0.000348163681 0.000937333156 1.27538797e-05
vn 0.000804251642 0.000593564298 -2.8894452e-05
vn 0.000897945079 0.000439153169 2.85188271e-05
vn 0.000997564988 -6.22326334e-05 -3.10725918e-05
vn 0.000952987117 -0.000300931104 3.50735354e-05
vn 0.00072389358 -0.000688610424 -4.20437609e-05
vn 0.000439055992 -0.000897707709 3.63978907e-05
vn 0.000111927431 -0.00099303876 -3.6335281e-05
vn -0.000296745216 -0.0009542607 3.609755e-05
vn -0.000576759689 -0.000815592299 -4.61700693e-05
vn -0.000874355319 -0.000484155113 3.27189482e-05
vn -0.000987992273 -0.000142720644 -5.8958507e-05
vn -0.000941163162 0.000336850411 2.67906744e-05
vn -0.000815613545 0.000576763996 -4.57381575e-05
vn -0.000438994321 0.000897584017 4.00143254e-05
vn -0.000197803442 0.000979852397 -2.71528152e-05
vn 0.000296186859 0.000955006399 1.4499753e-05
vn 0.000174319008 0.000984175946 -3.13810524e-05
vn 0.000804526848 0.000593767094 -1.23034188e-05
vn 0.000741978758 0.000668442342 -5.12495826e-05
vn 0.000999749755 1.87799269e-05 1.10402698e-05
vn 0.000997885712 -6.22515872e-05 -1.79729668e-05
vn 0.000724532991 -0.000689215958 2.72774355e-06
vn 0.000800012087 -0.000598181679 -4.61888158e-05
vn 0.000239005589 -0.000971003959 -1.25767713e-06
vn 0.000111904126 -0.000992831076 -4.16899129e-05
vn -0.000439075317 -0.000898424361 -4.5762622e-06
vn -0.000576582679 -0.000815342646 -5.23747076e-05
vn -0.000908784918 -0.000416991097 1.42359804e-05
vn -0.000988025567 -0.000142726451 -5.83841647e-05
vn -0.000253758131 0.000965085463 -6.47376291e-05
vn -0.000281189277 0.000953486538 -0.000108489738
vn -0.000567629002 0.000818447152 8.89700095e-05
vn -0.000829888799 0.000552566489 -7.69981707e-05
vn -0.000815211737 0.000578606327 -2.48747765e-05
vn -0.000992174144 0.000123257094 1.92957577e-05
vn -0.000995112816 9.78229364e-05 -1.24522376e-05
vn -0.000967208762 -0.000253740785 9.85219049e-06
vn -0.000939323218 -0.000334673154 -7.50986437e-05
vn -0.00081885379 -0.000566996343 8.92620956e-05
vn -0.000576216844 -0.000814713829 -6.47268971e-05
vn -0.00054969918 -0.000828273012 -0.000108483277
vn -0.000258837332 -0.000961609825 9.10164163e-05
vn 4.37720591e-05 -0.00099889515 -1.63303484e-05
vn 8.05386953e-05 -0.000993835391 -7.60188195e-05
vn 0.000533139159 -0.000845328032 3.40200786e-05
vn 0.000614020217 -0.000783931464 -9.16771169e-05
vn 0.000812870858 -0.000575541344 8.92589887e-05
vn 0.000962537131 -0.000263322087 -6.44819811e-05
vn 0.000955017109 -0.000296167244 -1.41954342e-05
vn 0.00099379418 0.000110506568 1.16410802e-05
vn 0.000990552013 0.000135568334 -2.00484392e-05
vn 0.000823208422 0.000567296345 2.18367732e-05
vn 0.000806099735 0.000591333956 -2.23927382e-05
vn 0.000456586858 0.000889458111 1.91498129e-05
vn 0.000371884351 0.000923588697 -9.3059447e-05
vn 9.44382991e-05 0.000991411041 9.03310138e-05
vn -0.000708241831 -9.76658484e-05 -0.000699163007
vn -0.000609613839 5.56412415e-05 -0.000790727034
vn -9.05519482e-05 1.19173501e-06 -0.000995878014
vn -1.32302339e-05 -4.46251506e-05 -0.000998903182
vn 9.14175835e-05 4.66151505e-06 -0.000995788723
vn 0.000604921603 -5.97945218e-05 -0.000794020598
vn 0.000707019411 9.81273042e-05 -0.000700334727
vn 0.000991272042 -9.9525656e-05 -8.63053428e-05
vn 0.000998474308 -4.15403229e-05 -3.60227568e-05
vn 0.000867281633 5.28324163e-05 0.000494980195
vn 0.000705289771 -0.00013338303 0.000696239411
vn 0.000469232677 7.93577565e-05 0.000879486906
vn 8.84540204e-05 -4.93396222e-08 0.000996067305
vn 2.67978066e-05 -3.66172935e-05 0.000998956966
vn -9.14717093e-05 5.21335505e-06 0.000995780923
vn -0.00045946383 -8.47324045e-05 0.000884130888
vn -0.000703998259 0.000134553789 0.00069732056
vn -0.000877939048 -6.99677112e-05 0.000473605032
vn -0.00099996943 4.48316359e-06 -3.88775379e-06
vn -0.000991272042 9.95256414e-05 -8.6304768e-05
vn 0.000404675433 -0.000914041826 -2.71890494e-05
vn 6.40295184e-05 -0.00070259202 -0.000708687992
vn -0.000164301193 -0.000697447162 -0.000697528943
vn -8.104874e-05 -0.000704725797 -0.000704816892
vn -6.38630954e-05 -0.000664798019 -0.000744270859
vn -0.000774649787 -0.000554679194 0.000303682173
vn -0.000288243929 0.000148346022 0.00094598264
vn 0.000182702352 -0.000469026418 -0.000864064903
vn 7.80701339e-06 0.000213827676 -0.000976826879
vn -8.10998172e-05 -0.000985428109 -0.000149426982
vn -0.000190197417 -0.000397548371 -0.00089763815
vn -0.000744720746 -0.000661469647 -8.84479959e-05
vn 0.000473776134 -0.000496523397 -0.000727306586
vn 0.000238910608 -0.000368313747 -0.000898465747
vn 0.000588241732 0.000415371876 -0.000693838636
vn 0.000784667151 -9.19978775e-05 -0.000613031734
vn -0.000465863239 -1.30149592e-05 -0.000884746434
vn -0.000621650659 0.000447304541 -0.000642995466
vn -3.23824097e-05 0.000711809203 -0.000701607496
vn -1.87767273e-05 0.000787208264 -0.000616380363
vn -0.000387313659 -0.000360321254 -0.000848605298
vn 0.000289237505 -0.000611868163 -0.000736160961
vn -0.000223351337 -0.000895426434 -0.000385096966
vn -5.264629e-05 0.000717656221 -0.000694386079
vn 0.000547066622 0.000749415078 0.000372919952
vn 0.000446160324 0.000288462033 -0.000847174553
vn 0.00077323633 -0.000120933662 -0.000622458756
vn 0.000830875535 -0.00014406495 -0.000537461892
vn -0.000928439142 -0.00036775152 -5.22834707e-05
vn -0.000507144723 -4.12395311e-05 -0.00086085865
vn -0.00074002787 0.000563103531 -0.000367759727
vn -0.000635554723 0.000440750649 -0.000633863849
vn 0.000470322499 0.000223890238 -0.0008536065
vn 0.000933622476 -7.60769544e-05 -0.000350050745
vn 0.000523490715 -0.00015978876 -0.000836898456
vn 0.000633239222 -0.000764691096 -0.000119288423
vn 0.000558170548 0.00033180046 -0.000760478899
vn -0.000334568409 0.000832067104 -0.000442382589
vn 0.000206375815 0.00073758862 -0.000642919971
vn 0.000225295793 -0.000473111606 -0.000851693156
vn -0.000272055564 -0.000876710226 -0.000396659627
vn -0.00019636254 -0.000744136225 -0.000638495781
vn -0.000650173053 -0.000286324503 -0.000703752215
vn -0.000641565071 0.00018073582 -0.000745454745
vn 0.000524191768 8.6758635e-05 -0.000847154122
vn 0.000744407007 -0.000593539677 -0.000305848022
vn -0.000223801471 0.000470204483 -0.000853694684
vn 0.000181348412 0.000977960997 -0.000103340259
vn -0.000467767532 0.000655094511 -0.000593311677
vn -0.000636243203 0.000155069458 -0.000755726185
vn 0.000348709786 -0.000764564495 -0.000542048481
vn 6.78511351e-05 -0.000693900627 -0.000716848881
vn 6.27849367e-05 -0.000705692335 -0.00070571265
vn -5.5965811e-05 -0.000705978484 -0.000706000254
vn 0.000149864878 -0.000494132517 -0.000856357277
vn -0.000214838001 -0.000791197061 -0.000572560879
vn 0.000285824528 0.000554012309 -0.000781887968
vn 0.000532536127 0.00076490239 -0.000362358609
vn 0.000459184172 0.000316430756 -0.000830057543
vn 0.000889785588 0.000358169549 -0.000282790104
vn 0.000540093868 5.93593904e-05 -0.000839493412
vn 0.000837945263 -0.000229235127 -0.00049525057
vn 0.000713152811 -0.000161629127 -0.000682101992
vn 0.000574589008 -0.000406831852 -0.000710147433
vn 0.000631930714 -0.000495116867 -0.000596235623
vn 0.000303541601 -0.000485204422 -0.000820008107
vn -0.000302786939 0.000914165925 -0.000269434066
vn -0.000208619575 0.000786542834 -0.000581207802
vn 0.000134650894 0.000611916708 -0.00077935966
vn 6.12742006e-05 0.000668624358 -0.000741054013
vn 6.17393453e-05 0.000669418136 -0.000740298361
vn -0.000311860029 -0.00091966358 -0.000238612949
vn -0.000334635028 -0.000477552239 -0.000812365324
vn -0.000662956969 -0.00045905626 -0.000591379358
vn -0.000676662894 -0.000463719392 -0.000571896497
vn -0.00059106265 -0.000155060217 -0.000791565224
vn -0.000928742287 -3.12972297e-05 -0.000369367597
vn -0.000592660333 7.29641542e-05 -0.000802124676
vn -0.00064945739 0.000432982255 -0.000625064422
vn -0.00069592311 0.000486090954 -0.000528564793
vn -0.000335871417 0.000489269674 -0.00080484763
vn -6.22962716e-07 -1.40596882e-07 -0.000999986893
vn -4.48962965e-06 2.14045053e-06 -0.000999974785
vn 1.39967424e-05 -7.38824065e-06 -0.000999861746
vn 1.41183409e-05 -7.58094029e-06 -0.000999858603
vn -1.19451706e-05 6.19227139e-05 -0.00099799654
vn -6.68489884e-06 3.57736026e-05 -0.000999324606
vn 4.11036254e-08 -2.52840408e-07 -0.000999987009
vn 1.04171859e-05 0.000201234652 -0.000979474513
vn -7.96167387e-06 8.02170916e-07 -0.000999954995
vn -1.1737453e-05 -7.9524516e-06 -0.000999886543
vn 7.81666131e-06 -2.9402212e-05 -0.000999524142
vn 1.61303251e-05 -5.58564125e-06 -0.000999841373
vn 5.41176561e-08 3.31685123e-06 -0.000999981537
vn -1.05708887e-05 -4.78898437e-05 -0.00099878374
vn -1.41022429e-05 -6.32368246e-05 -0.000997885945
vn -1.06240702e-06 2.04320223e-08 -0.000999986543
vn -5.23516007e-07 5.16123521e-07 -0.000999986776
vn -5.50834613e-07 5.16241585e-07 -0.00099998666
vn -0.00014711851 -5.41111112e-05 -0.000987624517
vn -7.4458012e-06 6.9440488e-05 -0.000997545198
vn 7.11365865e-05 -5.54772923e-05 -0.000995909679
vn -9.60917077e-07 4.16812327e-05 -0.000999117619
vn 9.48466834e-07 -3.36402366e-07 -0.000999986543
vn 2.39359053e-07 3.1072824e-07 -0.000999987009
vn -1.79402505e-07 -1.33541974e-07 -0.000999987009
vn -2.29835314e-06 -7.52879942e-07 -0.000999984099
vn 6.74678873e-08 6.23785184e-07 -0.000999986893
vn -3.80389683e-05 8.3957575e-06 -0.000999228097
vn 2.40048921e-05 -1.37771149e-05 -0.000999603886
vn 2.62030244e-05 1.79393428e-05 -0.000999482814
vn -6.35244069e-05 -6.425623e-05 -0.000995896524
vn -3.83935549e-05 -7.8425328e-05 -0.000996167422
vn 3.82505204e-05 2.45118081e-05 -0.000998954521
vn -3.71567262e-06 -4.72752436e-06 -0.000999968965
vn -5.97328039e-07 -1.15765211e-07 -0.000999986893
vn -4.15840418e-07 -6.8890472e-07 -0.00099998666
vn 2.25532403e-05 3.84682862e-05 -0.000998992356
vn -2.14253469e-05 -2.8064278e-05 -0.000999363489
vn 6.8875881e-05 -2.12676587e-05 -0.000997385592
vn 6.65375628e-05 8.60440341e-05 -0.000994054019
vn -4.29992033e-05 -8.67192455e-07 -0.000999061856
vn 1.3969435e-07 -2.38657606e-07 -0.000999987009
vn 7.21061781e-07 2.52743973e-07 -0.000999986776
vn 7.11830921e-07 2.10945544e-07 -0.000999986776
vn 2.42661002e-07 -3.91898624e-07 -0.000999986893
vn 0.000110899236 7.50037871e-05 -0.000990984146
vn -3.49960288e-07 1.26023636e-07 -0.000999987009
vn 8.05811669e-06 -1.262974e-05 -0.000999874785
vn -1.69734758e-05 -2.57083793e-05 -0.0009995125
vn -0.000110716683 7.89623227e-05 -0.000990697183
vn -1.49554717e-05 -1.64636403e-05 -0.000999739743
vn -2.25072235e-05 2.53133248e-06 -0.000999730546
vn -4.88213118e-05 5.0281833e-05 -0.000997528201
vn -1.28921583e-05 3.79980702e-05 -0.000999181648
vn 1.09661823e-05 4.05462879e-06 -0.000999918557
vn -3.32005147e-05 3.45393782e-05 -0.000998838805
vn 0.000201336778 6.73555178e-06 -0.000979485805
vn 5.17540757e-05 -3.55619704e-05 -0.000998013536
vn 3.67261491e-05 2.25111435e-05 -0.00099905883
vn 7.46198452e-07 -2.14286928e-07 -0.00099998666
vn 6.75672663e-06 -1.9979374e-05 -0.000999764656
vn 3.56216224e-05 -2.47667613e-05 -0.000999045442
vn 1.38959336e-07 6.62076729e-07 -0.000999986776
vn 1.75049663e-05 -1.93877531e-05 -0.000999645796
vn -2.32830225e-05 -1.29557757e-05 -0.000999632175
vn 1.06962962e-05 4.62366597e-06 -0.000999919139
vn -3.28628721e-06 1.2210005e-06 -0.000999980955
vn 8.54496102e-06 -2.88868523e-06 -0.00099994638
vn 7.30603631e-07 -1.105089e-05 -0.000999925775
vn 8.67168001e-06 2.73508613e-05 -0.000999575364
vn -0.000965105952 -8.13596416e-05 -0.00024884814
vn -0.0007086962 9.08874645e-05 -0.000699616328
vn -0.000575810496 -5.03033116e-05 -0.000816018321
vn -9.39034144e-05 -6.46315129e-07 -0.000995568
vn -3.38970458e-05 -2.27798682e-05 -0.000999152777
vn 8.84614637e-05 1.14769764e-05 -0.000996000483
vn 0.000410265289 -1.94531876e-05 -0.000911744486
vn 0.000603320426 9.40391983e-05 -0.000791918603
vn 0.000836680294 -7.60722542e-05 -0.000542359136
vn 0.000990587752 0.000106168911 -8.62455199e-05
vn 0.00098733115 -6.93754919e-05 0.00014261184
vn 0.000708290027 9.69923276e-05 0.000699208002
vn 0.000590575975 -4.10622597e-05 0.000805920688
vn 9.39031816e-05 1.00001751e-06 0.000995567883
vn -8.57742343e-05 -6.81547681e-05 0.000993967638
vn 2.67162086e-05 6.43291014e-06 0.000999609474
vn -0.000461019314 2.08452984e-05 0.000887130678
vn -0.000475014531 9.65985782e-06 0.000879910251
vn -0.000880094594 1.50925018e-06 0.000474768633
vn -0.000886902679 -8.61017634e-06 0.000461847871
vn -0.000997186289 7.46883525e-05 -3.876969e-06
vn -0.000446658174 -0.000710862165 -0.000543273054
vn -0.00036932205 -0.000499796588 -0.000783440424
vn -0.000636766257 -5.67627067e-05 -0.000768947764
vn -0.000760906434 -0.000372000912 -0.000531611266
vn -0.000424894388 -0.000279318599 -0.000861057546
vn -0.000567604729 -0.000510329672 -0.000646036002
vn -0.00078414887 -9.51179609e-05 -0.000613218581
vn -0.00065859413 0.00040419132 -0.000634710363
vn -0.000757424918 0.000210269238 -0.00061811693
vn -0.000579183688 0.000124411454 -0.000805631687
vn -0.000480585411 0.000341377832 -0.000807757955
vn -0.000512842671 0.000534389401 -0.000671858899
vn -0.000490567763 0.000481166207 -0.000726496044
vn -0.000244789524 0.000455077854 -0.000856128696
vn -0.000266963412 0.000480349816 -0.000835445186
vn 6.96497409e-06 0.000538624881 -0.000842501526
vn -1.0407846e-07 0.000578369247 -0.00081575918
vn -0.000211617706 0.000848729571 -0.000484613556
vn 0.000221852752 0.000823497307 -0.000522118644
vn 0.000363698055 0.000635858858 -0.000680721132
vn 0.000251981255 0.000513939362 -0.000819967012
vn 0.000511184742 0.000496292487 -0.000701682176
vn 0.000482444681 0.00040265455 -0.000777875714
vn 0.000608016679 0.000647723966 -0.000459067785
vn 0.0006986066 0.000324225257 -0.000637809455
vn 0.000538247405 0.000204768206 -0.000817516993
vn 0.000875137164 0.000137198411 -0.000463989069
vn 0.000575540529 -5.56136038e-05 -0.000815864129
vn 0.00053083821 -5.92636861e-05 -0.000845383212
vn 0.000836381805 -0.000311415381 -0.0004510656
vn 0.000473715307 -0.000333746168 -0.00081497326
vn 0.000526197022 -0.000357873068 -0.000771373976
vn 0.000436057016 -0.00050712307 -0.000743407349
vn 0.000496519438 -0.000627173577 -0.000600079831
vn -0.000117579737 -0.000595747435 -0.000794502441
vn -0.000111771733 -0.000497638714 -0.00086013769
vn 5.61359338e-05 -0.00093023933 -0.000362598366
vn 0.000200605427 -0.000580646214 -0.00078903843
vn 0.000203818199 -0.000599118881 -0.000774266606
vn 2.7769328e-14 0.000999987009 8.5179785e-08
vn 3.24822973e-14 0.000999987009 9.96437919e-08
vn 0.000202095383 -0.000978229917 4.68809194e-05
vn 0.000325608358 -0.000943679071 -5.85085363e-05
vn 0.000463997509 -0.000881748158 8.48573764e-05
vn 0.000619134051 -0.000780541042 -8.6040498e-05
vn 0.000748329738 -0.000657888246 8.46153998e-05
vn 0.000815526058 -0.000576858001 -4.61094314e-05
vn 0.000936959754 -0.000348856789 1.94796175e-05
vn 0.000942544371 -0.000329701608 5.3674361e-05
vn 0.000993224559 -9.92489586e-05 -6.02377768e-05
vn 0.00099156599 7.05452912e-05 0.000108601358
vn 0.00098734966 0.000156011971 -2.78392672e-05
vn 0.000905644905 0.000419333548 -6.27770714e-05
vn 0.000866719871 0.000492530409 7.86421733e-05
vn 0.000714916212 0.000697991985 -4.09411405e-05
vn 0.000668986817 0.000741870375 4.53780776e-05
vn 0.000495605287 0.000866401417 -6.0811999e-05
vn 0.000381702761 0.00092218339 6.20885839e-05
vn 0.000259856315 0.000964554201 -4.56507842e-05
vn 9.23158586e-05 0.000993828173 6.1297731e-05
vn 7.22194818e-06 0.000999015523 -4.34734357e-05
vn -0.000245608797 0.000969243993 1.47110468e-05
vn -0.000246110896 0.000969102781 1.55907965e-05
vn -0.000484034215 0.000874933554 -1.32725281e-05
vn -0.000500571157 0.000865589653 1.25358829e-05
vn -0.000690840126 0.000722889963 -1.19981796e-05
vn -0.000703750527 0.000710317807 1.25703546e-05
vn -0.000852243742 0.00052297872 -1.21728172e-05
vn -0.000860924949 0.000508587167 1.1015225e-05
vn -0.000963242317 0.000268330128 -1.17159652e-05
vn -0.000961614656 0.000273536862 -2.1191674e-05
vn -0.000998516101 -3.52085704e-06 5.41079426e-05
vn -0.000992354355 -8.99176302e-05 -8.43914167e-05
vn -0.00092939107 -0.00035912593 8.50592187e-05
vn -0.000897303456 -0.000438422401 -5.10549835e-05
vn -0.000743527838 -0.000668410503 1.91792406e-05
vn -0.000728238083 -0.000683082966 5.5148088e-05
vn -0.000531169469 -0.000844195834 -7.1878414e-05
vn -0.000417169038 -0.000903177424 0.00010106706
vn -0.000216636108 -0.000972743845 -8.25369352e-05
vn -7.16754221e-05 -0.000995453913 6.25165922e-05
vn 6.01657339e-05 -0.000997124822 -4.578886e-05
vn -0.000760597119 0.000422354351 0.000493034313
vn -0.000700191653 -0.000247054268 0.000669828209
vn -0.000383882812 0.000353290729 0.000853108359
vn -0.000223372379 4.89121085e-05 0.000973491813
vn 5.79200741e-06 0.000391724665 0.000920050195
vn 9.99648255e-05 0.00023285822 0.000967345957
vn 0.000577633153 0.00043652617 0.000689752691
vn 0.000749786035 -0.000393450755 0.000531969359
vn 0.0008125077 0.000543978997 0.000209504287
vn 0.000974706258 -0.000183791417 -0.000127053368
vn 0.00081601378 0.000391824782 -0.000424934173
vn 0.000716266979 -0.000276610226 -0.000640642189
vn 0.000400468591 0.000537870277 -0.000741818454
vn 8.80504958e-05 -3.12860466e-05 -0.000995611539
vn 5.04763411e-05 -0.000176369853 -0.000983015751
vn -0.000167955339 0.000111095418 -0.000979501405
vn 3.49255206e-05 0.000238366352 -0.0009705337
vn -0.000487811281 0.000564691087 -0.000665686326
vn -0.000741670665 -0.000221792347 -0.000633014133
vn -0.000913647469 0.000384456711 -0.000131967798
vn -0.000997312949 -6.5494809e-05 -3.24253015e-05
vn 1.23496548e-07 -5.99729333e-08 -0.000999987009
vn 2.68626081e-08 -4.75333906e-08 -0.000999987009
vn 1.21558008e-08 -5.47203989e-08 -0.000999987009
vn -1.55115868e-06 -3.19642027e-06 -0.000999980723
vn -2.15499618e-08 5.8757724e-08 -0.000999987009
vn -1.12202949e-08 5.37776863e-08 -0.000999987009
vn 4.19942392e-09 5.60577611e-08 -0.000999987009
vn 1.00171276e-08 6.16798843e-08 -0.000999987009
vn 6.16217676e-06 -4.72740521e-06 -0.000999956741
vn 3.53382994e-08 3.86945231e-07 -0.000999987009
vn -3.17305705e-07 3.45919801e-07 -0.000999986893
vn -2.4062528e-08 -5.58016815e-08 -0.000999987009
vn 1.76911286e-08 5.98254033e-08 -0.000999987009
vn 2.11692832e-08 4.91756502e-08 -0.000999987009
vn -3.25836996e-10 5.81661368e-08 -0.000999987009
vn 1.19767032e-08 1.04178524e-08 -0.000999987009
vn 1.31486445e-07 -3.77083218e-08 -0.000999987009
vn 1.25402522e-07 -7.47101367e-08 -0.000999987009
vn 1.33421423e-07 -9.15063225e-08 -0.000999987009
vn 1.0360381e-07 -1.0611533e-07 -0.000999987009
vn -5.31313518e-08 3.42180435e-08 -0.000999987009
vn -4.03300184e-08 3.54839251e-08 -0.000999987009
vn -2.97460527e-08 5.34374927e-08 -0.000999987009
vn -2.75720815e-08 5.33690958e-08 -0.000999987009
vn 1.39312775e-08 -6.08183228e-08 -0.000999987009
vn -1.29236728e-08 -1.15198615e-08 -0.000999987009
vn -5.51786243e-08 9.22784626e-10 -0.000999987009
vn -4.68950319e-08 -2.6376469e-08 -0.000999987009
vn -6.1058941e-08 -2.09707398e-08 -0.000999987009
vn 6.13661655e-08 -8.46545145e-09 -0.000999987009
vn 5.65736258e-08 2.17773071e-08 -0.000999987009
vn 1.49088208e-07 -2.23346213e-08 -0.000999987009
vn 1.47686222e-07 4.85473328e-10 -0.000999987009
vn 1.60132075e-07 -1.19409558e-08 -0.000999987009
vn -6.76080631e-08 4.96278432e-08 -0.000999987009
vn -1.41889004e-07 -1.01296793e-08 -0.000999987009
vn -1.3720107e-07 4.82023594e-08 -0.000999987009
vn -8.21258652e-08 -3.09452055e-08 -0.000999987009
vn 5.25205869e-05 0.000998170697 -2.95173268e-05
vn 9.45448555e-05 0.00071067363 -0.00069712149
vn -0.000161606629 0.000697882322 -0.000697723124
vn -5.9027072e-05 0.00070594775 -0.000705781509
vn -7.6810371e-05 0.000664498832 -0.000743313867
vn 3.83404476e-05 -0.000751810614 -0.000658243895
vn 0.000170905725 -0.000649695867 -0.000740716176
vn 0.000201065341 -0.000686535321 -0.000698724587
vn 0.00038470127 -0.000584349502 -0.000714503112
vn 0.000371240225 -0.000574207457 -0.000729685358
vn 0.000539688102 -0.000514518819 -0.000666319218
vn 0.000507266843 -0.000396609481 -0.000765085337
vn 0.000665681611 -0.000387833308 -0.000637516496
vn 0.000592876575 -0.000197308764 -0.000780731032
vn 0.000731777924 -0.000178000817 -0.000657868339
vn 0.000734228001 -2.35825632e-06 -0.000678879733
vn 0.000626725378 4.74260523e-05 -0.000777778972
vn 0.000735703215 0.00015946319 -0.000658244884
vn 0.00061348913 0.000273764221 -0.000740714837
vn 0.000625134329 0.00028678574 -0.000725902908
vn 0.000591522781 0.000462951662 -0.000660113932
vn 0.000493655854 0.000440283533 -0.000749952102
vn 0.000411168119 0.000615045079 -0.000672781025
vn 0.00039833528 0.000565797032 -0.000721925695
vn 0.000251868536 0.000707839092 -0.000659924466
vn 0.000195421511 0.000643711654 -0.000739878218
vn 3.93892806e-05 0.000712536101 -0.000700510456
vn 4.27947452e-05 0.000706467254 -0.000706432387
vn 7.45199141e-05 0.000705148326 -0.000705114624
vn -3.64673033e-05 0.000714678667 -0.000698483025
vn -0.000125673323 0.000594843295 -0.000793940679
vn -0.000197214074 0.000692867325 -0.000693552836
vn -0.000392809627 0.000574716076 -0.000717897026
vn -0.000380911195 0.000565240392 -0.000731699402
vn -0.000596530794 0.000474495115 -0.000647286419
vn -0.000516117725 0.000321462401 -0.000793888234
vn -0.000680504483 0.000317491329 -0.000660368823
vn -0.000716557261 0.000160139389 -0.000678877695
vn -0.000603393419 7.50400359e-05 -0.000793888816
vn -0.000750910782 2.41207977e-06 -0.000660379592
vn -0.000714146881 -0.000167766251 -0.000679575547
vn -0.000604358269 -0.000181787967 -0.000775679306
vn -0.000665857631 -0.000380959478 -0.000641465129
vn -0.000536807056 -0.000383215171 -0.000751637213
vn -0.000541063782 -0.000527204946 -0.00065519393
vn -0.000418390293 -0.000499120564 -0.000758816313
vn -0.000368164532 -0.000686864078 -0.000626615249
vn -0.000245257281 -0.000591991819 -0.000767703517
vn -0.000140713775 -0.00075412658 -0.000641456747
vn -4.36026239e-05 -0.000642430212 -0.000765085744
vn -1.21894846e-06 0.000713550777 -0.000700584089
vn -2.3041298e-10 0.000707062485 -0.000707132742
vn -3.53254109e-06 0.000686700922 -0.000726913684
vn -2.50931521e-06 0.00099973951 2.21083992e-05
vn -9.20243807e-13 0.000999983051 -2.82425299e-06
vn -3.48274875e-06 0.000997315394 7.29660605e-05
vn 3.28529518e-06 0.000999516691 -3.04906407e-05
vn 5.94368476e-06 0.000989556895 0.000143930491
vn 4.60717274e-06 0.000996327493 -8.53487873e-05
vn 4.99073439e-12 0.000999869662 1.53164165e-05
vn -7.16772365e-06 0.000999961048 -8.77841956e-07
vn -1.24730877e-05 0.000961662212 -0.000273905694
vn -6.87548481e-06 0.000999963377 -4.14694529e-11
vn -6.13657539e-06 0.000999967568 -1.18222431e-06
vn 1.26353034e-05 0.000999679323 2.13437361e-05
vn 4.53537587e-06 0.000999970129 -3.66198765e-06
vn 6.60232035e-06 0.000999965356 -4.58611586e-11
vn 2.28879318e-10 0.00071173883 0.000702425838
vn 2.06037862e-06 0.000704006525 0.000710172404
vn 3.55942166e-06 0.000686477346 0.000727124629
vn 0.000334382756 0.000942423649 2.86638112e-07
vn 0.000313326804 0.000949456356 -1.82502481e-05
vn 0.000369512592 0.000928871625 2.51427718e-05
vn 3.21274274e-05 0.000999393291 -1.24451026e-05
vn 1.14791537e-05 0.000999677461 -2.20811889e-05
vn 7.97607499e-05 0.000995737384 -4.60361916e-05
vn -9.61126061e-05 0.000995238777 1.53731271e-05
vn -0.000275213504 0.000961085898 -2.33565606e-05
vn -0.000356871373 0.000928990019 -9.7950302e-05
vn -0.000321990083 0.000945445267 4.92899526e-05
vn -0.000405338535 0.000914152421 9.21171472e-11
vn -0.000128830769 0.000977682997 0.000165869351
vn -8.48626296e-05 0.000995954499 -2.91061278e-05
vn -3.08803501e-05 0.000998891308 -3.51651179e-05
vn 0.000145710132 0.000987240812 6.40184662e-05
vn 9.29547168e-05 0.000994557748 -4.67818936e-05
vn 0.000310393487 0.000950276444 -2.45895917e-05
vn -0.000317908969 0.00094810751 2.79383528e-07
vn -0.000380831538 0.000924614083 5.49299693e-06
vn -0.000557853724 0.000829899509 -6.33979789e-06
vn -0.000582925044 0.00081250479 2.96145299e-06
vn -0.000782443269 0.000622695195 -2.7194958e-06
vn -0.000792110863 0.000610353309 1.78798928e-06
vn -0.000906208996 0.00042279702 -1.39779092e-06
vn -0.000911548268 0.000411158864 1.55576083e-06
vn -0.000975912204 0.000218099667 -1.39799749e-06
vn -0.000978624914 0.000205584525 1.5556127e-06
vn -0.000999980955 3.21056223e-06 -1.39780218e-06
vn -0.000999939977 -9.5938376e-06 1.55556904e-06
vn -0.00097342045 -0.000228962832 -1.65123629e-06
vn -0.000969719607 -0.000244151131 2.88950423e-06
vn -0.000868089439 -0.000496374385 -2.71810814e-06
vn -0.000860204746 -0.000509920297 1.78835842e-06
vn -0.00071602891 -0.000698050135 -1.65183565e-06
vn -0.000719349482 -0.000694623101 -3.03744582e-06
vn -0.000536099251 -0.000844104332 7.70907718e-06
vn -0.000472380954 -0.000881299085 -1.19246324e-05
vn -0.00027382074 -0.000961715006 1.00188208e-05
vn -0.000183664321 -0.000982938916 -8.5241445e-06
vn -4.45538863e-05 -0.000998971867 6.63021319e-06
vn 5.09296551e-05 -0.000998668373 -6.47235674e-06
vn 0.000191304018 -0.000981477904 8.83184293e-06
vn 0.000281327346 -0.000959546305 -9.99794247e-06
vn 0.000480325863 -0.000876992359 1.20694849e-05
vn 0.00054265064 -0.0008399121 -7.22901632e-06
vn 0.000723767909 -0.000690019224 2.74687659e-06
vn 0.000721464516 -0.000692430302 1.78838786e-06
vn 0.000864164555 -0.000503180665 -1.65241909e-06
vn 0.00087192317 -0.000489607628 2.88885599e-06
vn 0.000971589005 -0.000236604028 -2.71943395e-06
vn 0.000975180825 -0.000221344031 1.78768869e-06
vn 0.000999980955 -3.2104424e-06 -1.39839347e-06
vn 0.000999939977 9.5938376e-06 1.55503653e-06
vn 0.000977292773 0.000211827341 -1.39833548e-06
vn 0.000974499912 0.00022432438 1.55509451e-06
vn 0.00090890564 0.0004169686 -1.39850113e-06
vn 0.000903491687 0.00042857253 1.55498969e-06
vn 0.000787314086 0.000616528967 -1.65190613e-06
vn 0.000777576119 0.000628761656 2.88955266e-06
vn 0.000578182808 0.000815886713 -2.7510614e-06
vn 0.000567926851 0.000823062786 9.63775392e-07
vn 0.000408597087 0.000912700372 8.55522842e-07
vn 0.000412482827 0.00091095129 -1.74222844e-10
vn 3.25836996e-10 4.37107989e-11 0.000999987009
vn -8.80187256e-10 4.37107989e-11 0.000999987009
vn -1.02262252e-08 4.37107989e-11 0.000999987009
vn -1.77282555e-09 4.37107989e-11 0.000999987009
vn -9.65392299e-09 4.37107989e-11 0.000999987009
vn 1.0571104e-08 4.37107989e-11 0.000999987009
vn 3.87659105e-09 4.37107989e-11 0.000999987009
vn -4.44053061e-09 4.37107989e-11 0.000999987009
vn -4.37803171e-09 4.37107989e-11 0.000999987009
vn -4.47747039e-09 4.37107989e-11 0.000999987009
vn 5.43623058e-09 4.37107989e-11 0.000999987009
vn -4.67395767e-09 4.37107989e-11 0.000999987009
vn 3.99812938e-09 4.37107989e-11 0.000999987009
vn 2.64448685e-09 4.37107989e-11 0.000999987009
vn 1.05231457e-09 4.37107989e-11 0.000999987009
vn -1.98184313e-09 4.37107989e-11 0.000999987009
vn -1.08892175e-08 4.37107989e-11 0.000999987009
vn 2.67589639e-09 4.37107989e-11 0.000999987009
vn 4.56109195e-09 4.37107989e-11 0.000999987009
vn -1.1238412e-08 4.37107989e-11 0.000999987009
vn 2.61758704e-09 4.37107989e-11 0.000999987009
vn -4.2022239e-09 4.37107989e-11 0.000999987009
vn 1.1544091e-08 4.37107989e-11 0.000999987009
vn -4.19681401e-09 4.37107989e-11 0.000999987009
vn 1.13818928e-08 4.37107989e-11 0.000999987009
vn 4.71489026e-09 4.37107989e-11 0.000999987009
vn -5.41475558e-08 -1.04241934e-07 0.000999987009
vn -4.77034376e-08 -1.02567945e-07 0.000999987009
vn -5.08733962e-08 -1.42623435e-07 0.000999987009
vn -1.830632e-08 1.30792417e-08 0.000999987009
vn 5.99259353e-09 2.65071662e-08 0.000999987009
vn 5.05793585e-09 3.76773208e-08 0.000999987009
vn 1.94432879e-08 7.26272276e-07 0.000999986776
vn 1.96554861e-08 7.29189196e-07 0.000999986776
vn -6.57610073e-08 8.28487941e-07 0.00099998666
vn -3.67857382e-07 1.85944555e-06 0.000999985263
vn 6.45597993e-08 1.27395055e-07 0.000999987009
vn -2.31883579e-08 7.57215304e-08 0.000999987009
vn -4.47876722e-08 1.161402e-07 0.000999987009
vn 8.85592826e-08 -1.39368481e-07 0.000999987009
vn 9.08592597e-08 -1.46315386e-07 0.000999987009
vn 1.63493723e-07 -2.04479619e-07 0.000999987009
vn 1.85434992e-08 -6.54141346e-08 0.000999987009
vn -1.7959555e-09 4.37107989e-11 0.000999987009
vn -8.90374352e-09 4.37107989e-11 0.000999987009

# Mesh 'eSeries_UR10e_042-mesh' with 2 faces
g eSeries_UR10e_042-mesh
usemtl LinkGrey
l  1 2
l  3 4

# Mesh 'eSeries_UR10e_042-mesh' with 978 faces
g eSeries_UR10e_042-mesh
usemtl LinkGrey
f  5//2 6//2 7//2
f  5//3 8//3 9//3
f  5//3 10//3 8//3
f  5//3 7//3 10//3
f  11//3 12//3 13//3
f  14//4 12//4 11//4
f  11//5 15//5 14//5
f  11//6 16//6 15//6
f  17//3 18//3 19//3
f  19//3 20//3 17//3
f  19//7 21//7 20//7
f  22//3 23//3 24//3
f  24//3 25//3 22//3
f  24//7 26//7 25//7
f  7//8 27//8 10//8
f  10//9 27//9 28//9
f  10//10 28//10 8//10
f  8//11 28//11 29//11
f  8//12 29//12 9//12
f  9//13 29//13 30//13
f  9//14 30//14 5//14
f  5//15 30//15 31//15
f  5//16 31//16 6//16
f  6//17 31//17 32//17
f  6//18 32//18 7//18
f  7//19 32//19 27//19
f  11//20 33//20 16//20
f  16//21 33//21 34//21
f  16//22 34//22 15//22
f  15//23 34//23 35//23
f  15//24 35//24 14//24
f  14//25 35//25 36//25
f  14//26 36//26 12//26
f  12//27 36//27 37//27
f  12//28 37//28 13//28
f  13//29 37//29 38//29
f  13//30 38//30 11//30
f  11//31 38//31 33//31
f  18//32 39//32 40//32
f  18//33 40//33 19//33
f  19//34 40//34 41//34
f  19//35 41//35 21//35
f  21//36 41//36 42//36
f  21//37 42//37 20//37
f  20//38 42//38 43//38
f  20//39 43//39 44//39
f  20//40 44//40 17//40
f  17//41 44//41 39//41
f  17//42 39//42 18//42
f  23//43 45//43 24//43
f  24//44 45//44 46//44
f  24//45 46//45 26//45
f  26//46 46//46 47//46
f  26//47 47//47 48//47
f  26//48 48//48 25//48
f  25//49 48//49 49//49
f  25//50 49//50 22//50
f  22//51 49//51 50//51
f  22//52 50//52 23//52
f  23//53 50//53 45//53
f  28//54 51//54 29//54
f  29//55 51//55 30//55
f  30//56 51//56 52//56
f  30//57 52//57 31//57
f  31//58 52//58 53//58
f  31//59 53//59 32//59
f  32//60 53//60 54//60
f  32//61 54//61 27//61
f  27//62 54//62 55//62
f  27//63 55//63 28//63
f  28//64 55//64 56//64
f  28//65 56//65 51//65
f  34//66 57//66 35//66
f  35//67 57//67 36//67
f  36//68 57//68 58//68
f  36//69 58//69 37//69
f  37//70 58//70 59//70
f  37//71 59//71 38//71
f  38//72 59//72 60//72
f  38//73 60//73 33//73
f  33//74 60//74 61//74
f  33//75 61//75 34//75
f  34//76 61//76 62//76
f  34//77 62//77 57//77
f  41//78 63//78 64//78
f  41//79 64//79 42//79
f  42//80 64//80 65//80
f  42//81 65//81 43//81
f  43//82 65//82 66//82
f  43//83 66//83 44//83
f  44//84 66//84 67//84
f  44//85 67//85 39//85
f  39//86 67//86 68//86
f  39//87 68//87 40//87
f  40//88 68//88 63//88
f  40//89 63//89 41//89
f  46//90 69//90 47//90
f  47//91 69//91 70//91
f  47//92 70//92 48//92
f  48//93 70//93 71//93
f  48//94 71//94 49//94
f  49//95 71//95 72//95
f  49//96 72//96 50//96
f  50//97 72//97 73//97
f  50//98 73//98 45//98
f  45//99 73//99 46//99
f  46//100 73//100 69//100
f  74//101 75//101 76//101
f  77//102 74//102 76//102
f  78//103 77//103 76//103
f  79//104 78//104 76//104
f  56//105 80//105 51//105
f  51//106 80//106 81//106
f  51//107 81//107 82//107
f  51//108 82//108 52//108
f  52//109 82//109 83//109
f  52//110 83//110 53//110
f  53//111 83//111 84//111
f  53//112 84//112 85//112
f  53//113 85//113 54//113
f  54//114 85//114 55//114
f  55//115 85//115 86//115
f  55//116 86//116 87//116
f  55//117 87//117 56//117
f  56//118 87//118 80//118
f  62//105 88//105 57//105
f  57//119 88//119 89//119
f  57//120 89//120 90//120
f  57//121 90//121 58//121
f  58//122 90//122 91//122
f  58//123 91//123 59//123
f  59//111 91//111 92//111
f  59//112 92//112 93//112
f  59//124 93//124 60//124
f  60//125 93//125 61//125
f  61//126 93//126 94//126
f  61//127 94//127 95//127
f  61//128 95//128 62//128
f  62//129 95//129 88//129
f  64//130 96//130 65//130
f  65//131 96//131 97//131
f  65//132 97//132 98//132
f  65//133 98//133 66//133
f  66//134 98//134 99//134
f  66//135 99//135 67//135
f  67//136 99//136 100//136
f  67//137 100//137 68//137
f  68//138 100//138 101//138
f  68//139 101//139 102//139
f  68//140 102//140 63//140
f  63//141 102//141 103//141
f  63//142 103//142 64//142
f  64//143 103//143 96//143
f  69//144 104//144 70//144
f  70//145 104//145 105//145
f  70//146 105//146 71//146
f  71//147 105//147 106//147
f  71//148 106//148 107//148
f  71//149 107//149 72//149
f  72//150 107//150 108//150
f  72//151 108//151 73//151
f  73//152 108//152 109//152
f  73//153 109//153 110//153
f  73//154 110//154 69//154
f  69//155 110//155 111//155
f  69//156 111//156 104//156
f  112//157 113//157 114//157
f  112//158 114//158 115//158
f  112//159 115//159 116//159
f  117//160 118//160 119//160
f  120//161 121//161 122//161
f  120//162 122//162 123//162
f  124//163 118//163 125//163
f  124//164 125//164 126//164
f  118//165 117//165 125//165
f  113//166 112//166 127//166
f  121//167 128//167 122//167
f  123//168 122//168 129//168
f  123//169 129//169 117//169
f  126//170 125//170 130//170
f  126//171 130//171 131//171
f  132//172 131//172 75//172
f  132//173 75//173 133//173
f  116//174 133//174 134//174
f  116//175 134//175 112//175
f  135//176 127//176 78//176
f  135//177 78//177 121//177
f  121//178 78//178 128//178
f  117//179 129//179 125//179
f  131//180 130//180 75//180
f  112//181 134//181 136//181
f  112//182 136//182 127//182
f  125//183 129//183 130//183
f  133//184 75//184 74//184
f  133//185 74//185 134//185
f  127//186 136//186 78//186
f  122//187 128//187 79//187
f  122//188 79//188 129//188
f  134//189 74//189 136//189
f  129//190 79//190 137//190
f  129//191 137//191 130//191
f  130//192 137//192 76//192
f  130//193 76//193 75//193
f  136//194 138//194 78//194
f  128//195 78//195 79//195
f  77//196 78//196 138//196
f  74//197 138//197 136//197
f  139//198 84//198 83//198
f  139//199 83//199 140//199
f  140//200 83//200 141//200
f  141//201 83//201 82//201
f  141//202 82//202 142//202
f  142//203 82//203 81//203
f  142//204 81//204 143//204
f  143//205 81//205 80//205
f  143//206 80//206 144//206
f  144//207 80//207 87//207
f  144//208 87//208 145//208
f  145//209 87//209 86//209
f  145//210 86//210 146//210
f  146//211 86//211 85//211
f  146//212 85//212 147//212
f  147//213 85//213 148//213
f  148//214 85//214 84//214
f  148//215 84//215 139//215
f  149//216 92//216 91//216
f  149//217 91//217 150//217
f  150//218 91//218 151//218
f  151//219 91//219 90//219
f  151//220 90//220 152//220
f  152//221 90//221 89//221
f  152//222 89//222 153//222
f  153//223 89//223 88//223
f  153//224 88//224 154//224
f  154//225 88//225 95//225
f  154//226 95//226 155//226
f  155//227 95//227 94//227
f  155//228 94//228 156//228
f  156//229 94//229 93//229
f  156//230 93//230 157//230
f  157//231 93//231 158//231
f  158//232 93//232 92//232
f  158//233 92//233 149//233
f  159//234 99//234 98//234
f  159//235 98//235 160//235
f  160//236 98//236 97//236
f  160//237 97//237 161//237
f  161//238 97//238 96//238
f  161//239 96//239 162//239
f  162//240 96//240 103//240
f  162//241 103//241 163//241
f  163//242 103//242 102//242
f  163//243 102//243 164//243
f  164//244 102//244 101//244
f  164//245 101//245 165//245
f  165//246 101//246 100//246
f  165//247 100//247 166//247
f  166//248 100//248 99//248
f  166//249 99//249 167//249
f  167//250 99//250 159//250
f  109//251 168//251 110//251
f  110//252 168//252 169//252
f  110//253 169//253 111//253
f  111//254 169//254 170//254
f  111//255 170//255 104//255
f  104//256 170//256 171//256
f  104//257 171//257 105//257
f  105//258 171//258 172//258
f  105//259 172//259 106//259
f  106//260 172//260 173//260
f  106//261 173//261 174//261
f  106//262 174//262 107//262
f  107//263 174//263 175//263
f  107//264 175//264 108//264
f  108//265 175//265 176//265
f  108//266 176//266 109//266
f  109//267 176//267 168//267
f  177//268 132//268 178//268
f  178//269 132//269 133//269
f  178//270 133//270 116//270
f  178//271 116//271 179//271
f  179//272 116//272 115//272
f  179//273 115//273 180//273
f  180//274 115//274 113//274
f  180//275 113//275 127//275
f  180//276 127//276 135//276
f  180//277 135//277 181//277
f  181//278 135//278 121//278
f  181//279 121//279 120//279
f  120//280 123//280 182//280
f  182//281 123//281 117//281
f  182//282 117//282 183//282
f  183//283 117//283 119//283
f  183//284 119//284 184//284
f  184//285 119//285 124//285
f  184//286 124//286 126//286
f  184//287 126//287 177//287
f  177//288 126//288 131//288
f  177//289 131//289 132//289
f  185//290 186//290 187//290
f  188//291 189//291 187//291
f  186//292 188//292 187//292
f  187//293 189//293 190//293
f  190//294 191//294 187//294
f  192//295 193//295 187//295
f  191//296 192//296 187//296
f  193//297 185//297 187//297
f  194//298 195//298 196//298
f  196//3 195//3 197//3
f  196//299 198//299 194//299
f  196//3 199//3 198//3
f  196//300 200//300 199//300
f  201//3 200//3 196//3
f  196//301 202//301 201//301
f  196//302 203//302 202//302
f  196//3 204//3 203//3
f  185//303 205//303 206//303
f  185//304 206//304 186//304
f  186//305 206//305 207//305
f  186//306 207//306 189//306
f  189//307 207//307 208//307
f  189//308 208//308 209//308
f  189//309 209//309 190//309
f  190//310 209//310 210//310
f  190//311 210//311 191//311
f  191//312 210//312 211//312
f  191//313 211//313 212//313
f  191//314 212//314 213//314
f  191//315 213//315 193//315
f  193//316 213//316 185//316
f  185//317 213//317 205//317
f  143//318 214//318 142//318
f  142//319 214//319 215//319
f  142//320 215//320 141//320
f  141//321 215//321 216//321
f  141//322 216//322 140//322
f  140//323 216//323 139//323
f  139//324 216//324 217//324
f  139//325 217//325 148//325
f  148//326 217//326 218//326
f  148//327 218//327 147//327
f  147//328 218//328 219//328
f  147//329 219//329 146//329
f  146//330 219//330 145//330
f  145//331 219//331 220//331
f  145//332 220//332 144//332
f  144//333 220//333 143//333
f  143//334 220//334 214//334
f  153//335 221//335 152//335
f  152//336 221//336 222//336
f  152//337 222//337 151//337
f  151//338 222//338 223//338
f  151//339 223//339 224//339
f  151//340 224//340 150//340
f  150//341 224//341 149//341
f  149//342 224//342 225//342
f  149//343 225//343 158//343
f  158//344 225//344 226//344
f  158//345 226//345 157//345
f  157//346 226//346 156//346
f  156//347 226//347 227//347
f  156//348 227//348 155//348
f  155//349 227//349 228//349
f  155//350 228//350 154//350
f  154//351 228//351 229//351
f  154//352 229//352 153//352
f  153//353 229//353 221//353
f  163//354 230//354 231//354
f  163//355 231//355 162//355
f  162//356 231//356 232//356
f  162//357 232//357 161//357
f  161//358 232//358 160//358
f  160//359 232//359 233//359
f  160//360 233//360 159//360
f  159//361 233//361 234//361
f  159//362 234//362 167//362
f  167//363 234//363 235//363
f  167//364 235//364 166//364
f  166//365 235//365 236//365
f  166//366 236//366 165//366
f  165//367 236//367 237//367
f  165//368 237//368 164//368
f  164//369 237//369 230//369
f  164//370 230//370 163//370
f  170//371 238//371 239//371
f  170//372 239//372 171//372
f  171//373 239//373 240//373
f  171//374 240//374 172//374
f  172//375 240//375 173//375
f  173//376 240//376 241//376
f  173//377 241//377 174//377
f  174//378 241//378 242//378
f  174//379 242//379 243//379
f  174//380 243//380 175//380
f  175//381 243//381 176//381
f  176//382 243//382 244//382
f  176//383 244//383 245//383
f  176//384 245//384 168//384
f  168//385 245//385 246//385
f  168//386 246//386 169//386
f  169//387 246//387 238//387
f  169//388 238//388 170//388
f  247//389 204//389 248//389
f  248//390 204//390 196//390
f  248//391 196//391 249//391
f  249//392 196//392 250//392
f  250//393 196//393 197//393
f  250//394 197//394 251//394
f  251//395 197//395 195//395
f  251//396 195//396 252//396
f  252//397 195//397 194//397
f  252//398 194//398 253//398
f  253//399 194//399 254//399
f  254//400 194//400 198//400
f  254//401 198//401 255//401
f  255//402 198//402 256//402
f  256//403 198//403 199//403
f  256//404 199//404 257//404
f  257//405 199//405 200//405
f  257//406 200//406 258//406
f  258//407 200//407 259//407
f  259//408 200//408 201//408
f  259//409 201//409 260//409
f  260//410 201//410 202//410
f  260//411 202//411 261//411
f  261//412 202//412 203//412
f  261//413 203//413 262//413
f  262//414 203//414 204//414
f  262//415 204//415 247//415
f  263//416 178//416 264//416
f  264//417 178//417 179//417
f  264//418 179//418 265//418
f  264//419 265//419 266//419
f  266//420 265//420 180//420
f  266//421 180//421 267//421
f  267//422 180//422 181//422
f  267//423 181//423 268//423
f  268//424 181//424 120//424
f  268//425 120//425 182//425
f  268//426 182//426 269//426
f  269//427 182//427 183//427
f  269//428 183//428 270//428
f  269//429 270//429 271//429
f  271//430 270//430 184//430
f  271//431 184//431 272//431
f  272//432 184//432 177//432
f  272//433 177//433 273//433
f  273//434 177//434 263//434
f  263//435 177//435 178//435
f  212//436 211//436 274//436
f  212//437 274//437 275//437
f  275//438 274//438 276//438
f  275//439 276//439 213//439
f  213//440 276//440 277//440
f  213//441 277//441 205//441
f  206//442 205//442 207//442
f  207//443 278//443 279//443
f  207//444 279//444 208//444
f  219//445 280//445 281//445
f  219//446 281//446 220//446
f  220//447 281//447 282//447
f  218//448 283//448 280//448
f  218//449 280//449 219//449
f  216//450 284//450 217//450
f  218//451 217//451 283//451
f  220//452 282//452 214//452
f  215//453 214//453 285//453
f  215//454 285//454 216//454
f  216//455 285//455 284//455
f  228//456 286//456 229//456
f  226//457 287//457 227//457
f  228//458 227//458 286//458
f  222//459 288//459 223//459
f  224//460 223//460 289//460
f  224//461 289//461 225//461
f  225//462 289//462 226//462
f  226//463 289//463 287//463
f  286//464 290//464 229//464
f  229//465 290//465 221//465
f  221//466 290//466 222//466
f  222//467 290//467 288//467
f  233//468 291//468 234//468
f  234//469 291//469 292//469
f  234//470 292//470 235//470
f  235//471 292//471 293//471
f  233//472 294//472 291//472
f  231//473 295//473 232//473
f  233//474 232//474 294//474
f  235//475 293//475 236//475
f  236//476 293//476 237//476
f  237//477 293//477 296//477
f  237//478 296//478 230//478
f  231//479 230//479 295//479
f  242//480 297//480 243//480
f  243//481 297//481 244//481
f  239//482 298//482 240//482
f  240//483 298//483 241//483
f  239//484 299//484 298//484
f  239//485 238//485 299//485
f  256//486 300//486 301//486
f  256//487 301//487 302//487
f  302//488 301//488 303//488
f  302//489 303//489 255//489
f  255//490 303//490 304//490
f  255//491 304//491 254//491
f  262//492 305//492 261//492
f  261//493 305//493 306//493
f  261//494 306//494 260//494
f  260//495 306//495 307//495
f  260//496 307//496 259//496
f  259//497 307//497 258//497
f  258//498 307//498 308//498
f  258//499 308//499 257//499
f  257//500 308//500 300//500
f  257//501 300//501 256//501
f  248//502 309//502 310//502
f  248//503 310//503 247//503
f  247//504 310//504 311//504
f  247//505 311//505 262//505
f  262//506 311//506 305//506
f  254//507 304//507 312//507
f  254//508 312//508 253//508
f  253//509 312//509 252//509
f  252//510 312//510 313//510
f  252//511 313//511 251//511
f  251//512 313//512 314//512
f  251//513 314//513 250//513
f  250//514 314//514 249//514
f  249//515 314//515 309//515
f  249//516 309//516 248//516
f  301//517 300//517 282//517
f  310//518 309//518 315//518
f  316//519 210//519 282//519
f  282//520 210//520 209//520
f  282//521 209//521 208//521
f  282//522 208//522 278//522
f  282//523 278//523 287//523
f  287//524 278//524 207//524
f  287//525 207//525 205//525
f  287//526 205//526 317//526
f  317//527 205//527 277//527
f  316//528 211//528 210//528
f  317//529 277//529 316//529
f  316//530 277//530 274//530
f  274//531 211//531 316//531
f  307//532 284//532 308//532
f  308//533 284//533 285//533
f  308//534 285//534 300//534
f  214//535 282//535 300//535
f  300//536 285//536 214//536
f  283//537 217//537 318//537
f  318//538 217//538 284//538
f  318//539 284//539 319//539
f  319//540 284//540 307//540
f  281//541 316//541 282//541
f  320//542 321//542 290//542
f  290//543 321//543 288//543
f  223//544 288//544 314//544
f  312//545 289//545 223//545
f  312//546 223//546 313//546
f  322//547 286//547 227//547
f  322//548 227//548 317//548
f  317//549 227//549 287//549
f  320//550 290//550 286//550
f  306//551 293//551 307//551
f  306//552 296//552 293//552
f  315//553 295//553 230//553
f  305//554 230//554 306//554
f  306//555 230//555 296//555
f  323//556 294//556 232//556
f  323//557 232//557 295//557
f  307//558 293//558 319//558
f  319//559 293//559 324//559
f  324//560 293//560 292//560
f  324//561 292//561 291//561
f  324//562 291//562 294//562
f  288//563 321//563 314//563
f  314//564 321//564 246//564
f  314//565 246//565 245//565
f  299//566 238//566 325//566
f  325//567 238//567 246//567
f  325//568 246//568 321//568
f  326//569 298//569 299//569
f  241//570 326//570 315//570
f  241//571 315//571 242//571
f  241//572 298//572 326//572
f  313//573 223//573 314//573
f  297//574 242//574 315//574
f  309//575 244//575 297//575
f  309//576 297//576 315//576
f  314//577 245//577 244//577
f  314//578 244//578 309//578
f  323//579 295//579 315//579
f  281//580 280//580 316//580
f  305//581 315//581 230//581
f  315//582 305//582 310//582
f  304//583 287//583 312//583
f  312//584 287//584 289//584
f  287//585 304//585 282//585
f  282//586 304//586 301//586
f  327//587 263//587 328//587
f  328//588 263//588 264//588
f  328//589 264//589 329//589
f  329//590 264//590 330//590
f  329//591 330//591 2//591
f  2//592 330//592 266//592
f  2//593 266//593 331//593
f  331//594 266//594 267//594
f  331//595 267//595 332//595
f  332//596 267//596 268//596
f  332//597 268//597 333//597
f  333//598 268//598 269//598
f  333//599 269//599 334//599
f  334//600 269//600 335//600
f  334//601 335//601 271//601
f  334//602 271//602 4//602
f  4//603 271//603 272//603
f  4//604 272//604 336//604
f  336//605 272//605 273//605
f  336//606 273//606 327//606
f  327//607 273//607 263//607
f  337//608 323//608 338//608
f  337//609 294//609 323//609
f  339//610 324//610 340//610
f  340//611 324//611 341//611
f  341//612 324//612 294//612
f  341//613 294//613 337//613
f  339//614 319//614 324//614
f  342//615 318//615 343//615
f  343//616 318//616 339//616
f  339//617 318//617 319//617
f  342//618 283//618 318//618
f  344//619 280//619 342//619
f  342//620 280//620 283//620
f  345//621 316//621 280//621
f  345//622 280//622 344//622
f  346//623 317//623 316//623
f  346//624 316//624 347//624
f  347//625 316//625 345//625
f  348//626 317//626 346//626
f  349//627 322//627 348//627
f  348//628 322//628 317//628
f  350//629 322//629 349//629
f  350//630 320//630 286//630
f  350//631 286//631 322//631
f  320//632 350//632 351//632
f  320//633 351//633 321//633
f  321//634 351//634 352//634
f  321//635 352//635 353//635
f  321//636 353//636 325//636
f  325//637 353//637 354//637
f  325//638 354//638 355//638
f  325//639 355//639 299//639
f  355//640 326//640 299//640
f  356//641 326//641 355//641
f  338//642 323//642 315//642
f  338//643 315//643 357//643
f  357//644 315//644 358//644
f  358//645 315//645 356//645
f  356//646 315//646 326//646
f  334//647 3//647 359//647
f  329//648 1//648 360//648
f  329//1 360//1 328//1
f  361//649 358//649 362//649
f  362//650 358//650 356//650
f  362//651 356//651 363//651
f  363//652 356//652 355//652
f  363//653 355//653 364//653
f  364//654 355//654 354//654
f  364//655 354//655 353//655
f  364//656 353//656 365//656
f  365//657 353//657 352//657
f  365//658 352//658 366//658
f  366//659 352//659 351//659
f  366//660 351//660 350//660
f  366//661 350//661 367//661
f  367//662 350//662 349//662
f  367//663 349//663 368//663
f  368//664 349//664 348//664
f  368//665 348//665 369//665
f  369//666 348//666 346//666
f  369//667 346//667 370//667
f  370//668 346//668 347//668
f  370//669 347//669 345//669
f  370//670 345//670 371//670
f  371//671 345//671 344//671
f  371//672 344//672 372//672
f  372//673 344//673 342//673
f  372//674 342//674 373//674
f  373//675 342//675 343//675
f  373//676 343//676 374//676
f  374//677 343//677 339//677
f  374//678 339//678 375//678
f  375//679 339//679 376//679
f  376//680 339//680 340//680
f  376//681 340//681 377//681
f  377//682 340//682 341//682
f  377//683 341//683 337//683
f  377//684 337//684 378//684
f  378//685 337//685 338//685
f  378//686 338//686 379//686
f  379//687 338//687 357//687
f  379//688 357//688 361//688
f  361//689 357//689 358//689
f  332//690 380//690 331//690
f  331//691 380//691 381//691
f  331//692 381//692 2//692
f  2//693 381//693 382//693
f  2//694 382//694 360//694
f  360//695 382//695 383//695
f  360//696 383//696 328//696
f  328//697 383//697 384//697
f  328//698 384//698 327//698
f  327//699 384//699 385//699
f  327//700 385//700 336//700
f  336//701 385//701 386//701
f  336//702 386//702 4//702
f  4//703 386//703 359//703
f  359//704 386//704 387//704
f  359//705 387//705 334//705
f  334//706 387//706 388//706
f  334//707 388//707 333//707
f  333//708 388//708 389//708
f  333//709 389//709 332//709
f  332//710 389//710 380//710
f  372//711 390//711 391//711
f  372//712 391//712 371//712
f  371//713 391//713 370//713
f  370//714 391//714 392//714
f  362//715 393//715 394//715
f  362//716 394//716 361//716
f  361//717 394//717 379//717
f  379//718 394//718 395//718
f  370//719 392//719 396//719
f  370//720 396//720 369//720
f  369//721 396//721 397//721
f  369//722 397//722 368//722
f  379//723 395//723 398//723
f  379//724 398//724 378//724
f  378//725 398//725 399//725
f  378//726 399//726 377//726
f  375//727 400//727 374//727
f  374//728 400//728 373//728
f  373//729 400//729 390//729
f  373//730 390//730 372//730
f  364//731 401//731 402//731
f  364//732 402//732 363//732
f  363//733 402//733 393//733
f  363//734 393//734 362//734
f  368//735 397//735 403//735
f  368//736 403//736 367//736
f  367//737 403//737 404//737
f  367//738 404//738 366//738
f  366//739 404//739 405//739
f  399//740 406//740 377//740
f  377//741 406//741 376//741
f  376//742 406//742 407//742
f  376//743 407//743 375//743
f  375//744 407//744 400//744
f  366//745 405//745 408//745
f  366//746 408//746 365//746
f  365//747 408//747 364//747
f  364//748 408//748 401//748
f  381//749 409//749 382//749
f  386//750 410//750 411//750
f  411//751 410//751 412//751
f  411//752 412//752 387//752
f  387//753 412//753 388//753
f  413//754 394//754 414//754
f  414//755 394//755 393//755
f  414//756 393//756 415//756
f  415//757 393//757 402//757
f  415//758 402//758 416//758
f  416//759 402//759 417//759
f  417//760 402//760 401//760
f  417//761 401//761 418//761
f  418//762 401//762 408//762
f  418//763 408//763 419//763
f  419//764 408//764 420//764
f  420//765 408//765 405//765
f  420//766 405//766 421//766
f  421//767 405//767 404//767
f  421//768 404//768 422//768
f  422//769 404//769 423//769
f  423//770 404//770 403//770
f  423//771 403//771 397//771
f  423//772 397//772 424//772
f  424//773 397//773 425//773
f  425//774 397//774 396//774
f  425//775 396//775 426//775
f  425//776 426//776 427//776
f  427//777 426//777 392//777
f  427//778 392//778 428//778
f  428//779 392//779 391//779
f  428//780 391//780 429//780
f  429//781 391//781 390//781
f  429//782 390//782 430//782
f  430//783 390//783 431//783
f  431//784 390//784 400//784
f  431//785 400//785 432//785
f  432//786 400//786 433//786
f  433//787 400//787 407//787
f  433//788 407//788 434//788
f  434//789 407//789 435//789
f  435//790 407//790 406//790
f  435//791 406//791 436//791
f  436//792 406//792 399//792
f  436//793 399//793 437//793
f  437//794 399//794 398//794
f  437//795 398//795 438//795
f  438//796 398//796 395//796
f  438//797 395//797 413//797
f  413//798 395//798 394//798
f  439//799 440//799 441//799
f  441//800 440//800 442//800
f  440//801 439//801 443//801
f  444//802 384//802 383//802
f  410//803 441//803 442//803
f  410//804 442//804 388//804
f  442//805 389//805 388//805
f  381//806 445//806 409//806
f  444//807 383//807 409//807
f  444//808 409//808 445//808
f  381//809 380//809 445//809
f  410//810 386//810 441//810
f  445//811 380//811 442//811
f  442//812 380//812 389//812
f  441//813 386//813 385//813
f  441//814 385//814 384//814
f  441//815 384//815 444//815
f  445//816 446//816 444//816
f  444//817 446//817 447//817
f  447//818 446//818 448//818
f  425//819 446//819 424//819
f  424//820 446//820 445//820
f  449//821 450//821 442//821
f  446//822 425//822 451//822
f  451//823 425//823 428//823
f  451//824 428//824 448//824
f  448//825 428//825 447//825
f  447//826 428//826 429//826
f  452//827 439//827 453//827
f  453//828 439//828 441//828
f  453//829 441//829 444//829
f  452//830 454//830 439//830
f  454//831 443//831 455//831
f  454//832 455//832 439//832
f  449//833 440//833 454//833
f  454//834 440//834 443//834
f  442//835 440//835 449//835
f  447//836 429//836 444//836
f  444//837 429//837 453//837
f  453//838 429//838 430//838
f  453//839 430//839 456//839
f  456//840 430//840 431//840
f  456//841 431//841 457//841
f  457//842 431//842 432//842
f  457//843 432//843 458//843
f  458//844 432//844 433//844
f  458//845 433//845 459//845
f  459//846 433//846 434//846
f  459//847 434//847 460//847
f  460//848 434//848 435//848
f  460//849 435//849 461//849
f  461//850 435//850 436//850
f  461//851 436//851 462//851
f  462//852 436//852 437//852
f  462//853 437//853 463//853
f  463//854 437//854 464//854
f  464//855 437//855 438//855
f  464//856 438//856 465//856
f  465//857 438//857 413//857
f  465//858 413//858 466//858
f  466//859 413//859 414//859
f  466//860 414//860 467//860
f  467//861 414//861 415//861
f  467//862 415//862 468//862
f  468//863 415//863 416//863
f  468//864 416//864 417//864
f  468//865 417//865 469//865
f  469//866 417//866 418//866
f  469//867 418//867 470//867
f  470//868 418//868 419//868
f  470//869 419//869 471//869
f  471//870 419//870 420//870
f  471//871 420//871 472//871
f  472//872 420//872 421//872
f  472//873 421//873 473//873
f  473//874 421//874 422//874
f  473//875 422//875 474//875
f  474//876 422//876 423//876
f  474//877 423//877 475//877
f  475//878 423//878 424//878
f  475//879 424//879 450//879
f  450//880 424//880 445//880
f  450//881 445//881 442//881
f  476//882 459//882 460//882
f  476//883 460//883 477//883
f  477//882 460//882 478//882
f  478//882 460//882 461//882
f  478//884 461//884 479//884
f  479//885 461//885 480//885
f  480//886 461//886 481//886
f  481//887 461//887 462//887
f  481//888 462//888 482//888
f  482//889 462//889 483//889
f  483//882 462//882 463//882
f  483//890 463//890 484//890
f  484//891 463//891 485//891
f  485//892 463//892 464//892
f  485//893 464//893 486//893
f  486//894 464//894 487//894
f  487//882 464//882 488//882
f  488//882 464//882 465//882
f  488//895 465//895 489//895
f  489//882 465//882 490//882
f  490//896 465//896 466//896
f  490//897 466//897 491//897
f  491//882 466//882 492//882
f  492//882 466//882 467//882
f  492//882 467//882 493//882
f  493//882 467//882 494//882
f  494//898 467//898 495//898
f  495//882 467//882 468//882
f  495//899 468//899 496//899
f  496//900 468//900 497//900
f  497//901 468//901 498//901
f  498//882 468//882 469//882
f  498//882 469//882 499//882
f  499//882 469//882 500//882
f  500//882 469//882 470//882
f  500//902 470//902 501//902
f  501//882 470//882 502//882
f  502//882 470//882 503//882
f  503//882 470//882 471//882
f  503//903 471//903 504//903
f  504//882 471//882 505//882
f  505//904 471//904 472//904
f  505//905 472//905 506//905
f  506//882 472//882 507//882
f  507//882 472//882 473//882
f  507//882 473//882 508//882
f  508//882 473//882 509//882
f  509//906 473//906 474//906
f  509//882 474//882 510//882
f  510//882 474//882 511//882
f  511//882 474//882 475//882
f  511//907 475//907 512//907
f  512//882 475//882 513//882
f  513//882 475//882 514//882
f  514//908 475//908 450//908
f  514//909 450//909 515//909
f  515//910 450//910 516//910
f  516//911 450//911 449//911
f  516//912 449//912 517//912
f  517//913 449//913 518//913
f  518//914 449//914 454//914
f  518//915 454//915 519//915
f  519//916 454//916 520//916
f  520//917 454//917 521//917
f  521//918 454//918 452//918
f  521//919 452//919 522//919
f  522//920 452//920 523//920
f  523//921 452//921 453//921
f  523//922 453//922 524//922
f  524//923 453//923 525//923
f  525//924 453//924 456//924
f  525//925 456//925 526//925
f  526//882 456//882 527//882
f  527//882 456//882 528//882
f  528//882 456//882 457//882
f  528//926 457//926 529//926
f  529//882 457//882 530//882
f  530//882 457//882 458//882
f  530//882 458//882 531//882
f  531//882 458//882 532//882
f  532//882 458//882 459//882
f  532//882 459//882 476//882

